<svg width="24" height="24" viewBox="0 0 24 24" fill="none" xmlns="http://www.w3.org/2000/svg">
<path fill-rule="evenodd" clip-rule="evenodd" d="M2.00002 3C2.00002 2.44772 2.44774 2 3.00002 2H17C17.5523 2 18 2.44772 18 3V15H21C21.5523 15 22 15.4477 22 16V19C22 20.6569 20.6569 22 19 22H5.00002C3.34317 22 2.00002 20.6569 2.00002 19V3ZM19 20C19.5523 20 20 19.5523 20 19V17H18V19C18 19.5523 18.4477 20 19 20ZM16.1707 20H5.00002C4.44774 20 4.00002 19.5523 4.00002 19V4H16V15.9954L16 17.5M16 17.5L16 19C16 19.3507 16.0602 19.6872 16.1707 20M6.00002 7.99998C6.00002 7.44769 6.44774 6.99998 7.00002 6.99998H13C13.5523 6.99998 14 7.44769 14 7.99998C14 8.55226 13.5523 8.99998 13 8.99998H7.00002C6.44774 8.99998 6.00002 8.55226 6.00002 7.99998ZM6.00002 12C6.00002 11.4478 6.44774 11 7.00002 11H13C13.5523 11 14 11.4478 14 12C14 12.5523 13.5523 13 13 13H7.00002C6.44774 13 6.00002 12.5523 6.00002 12ZM6.00002 16C6.00002 15.4477 6.44774 15 7.00002 15H10C10.5523 15 11 15.4477 11 16C11 16.5523 10.5523 17 10 17H7.00002C6.44774 17 6.00002 16.5523 6.00002 16Z" fill="#E80537"/>
</svg>
