<svg width="30" height="30" viewBox="0 0 30 30" fill="none" xmlns="http://www.w3.org/2000/svg">
<path d="M27.5 12.0876C27.4211 11.8589 27.2775 11.6581 27.0867 11.5094C26.8959 11.3608 26.666 11.2707 26.425 11.2501L19.3125 10.2126L16.125 3.75006C16.0226 3.53872 15.8628 3.36049 15.6639 3.23578C15.4649 3.11107 15.2348 3.04492 15 3.04492C14.7652 3.04492 14.5351 3.11107 14.3361 3.23578C14.1372 3.36049 13.9774 3.53872 13.875 3.75006L10.6875 10.2001L3.575 11.2501C3.34366 11.2829 3.12616 11.38 2.94719 11.5303C2.76822 11.6805 2.63495 11.8779 2.5625 12.1001C2.49618 12.3172 2.49023 12.5482 2.54529 12.7684C2.60034 12.9886 2.71432 13.1897 2.875 13.3501L8.0375 18.3501L6.7875 25.4501C6.73704 25.6856 6.75569 25.9307 6.84123 26.1559C6.92677 26.381 7.07555 26.5767 7.26966 26.7193C7.46378 26.8619 7.69497 26.9454 7.93541 26.9597C8.17586 26.9741 8.41533 26.9186 8.625 26.8001L15 23.4626L21.375 26.8001C21.5504 26.899 21.7486 26.9507 21.95 26.9501C22.2148 26.951 22.473 26.8678 22.6875 26.7126C22.8814 26.5736 23.0316 26.3821 23.1202 26.1606C23.2088 25.9391 23.2321 25.6969 23.1875 25.4626L21.9375 18.3626L27.1 13.3626C27.2805 13.2097 27.4139 13.0087 27.4847 12.783C27.5555 12.5573 27.5608 12.3162 27.5 12.0876ZM19.8125 17.0876C19.6678 17.2281 19.5593 17.4015 19.4962 17.593C19.433 17.7846 19.4172 17.9886 19.45 18.1876L20.35 23.4376L15.65 20.9376C15.4673 20.8472 15.2663 20.8002 15.0625 20.8002C14.8587 20.8002 14.6577 20.8472 14.475 20.9376L9.775 23.4376L10.675 18.1876C10.7078 17.9886 10.692 17.7846 10.6288 17.593C10.5657 17.4015 10.4572 17.2281 10.3125 17.0876L6.5625 13.3376L11.825 12.5751C12.0275 12.5469 12.22 12.4695 12.3856 12.3496C12.5513 12.2298 12.685 12.0711 12.775 11.8876L15 7.12506L17.35 11.9001C17.4401 12.0836 17.5738 12.2423 17.7394 12.3621C17.905 12.482 18.0975 12.5594 18.3 12.5876L23.5625 13.3501L19.8125 17.0876Z" fill="#E80537"/>
</svg>
