<svg width="24" height="24" viewBox="0 0 24 24" fill="none" xmlns="http://www.w3.org/2000/svg">
<path d="M22 5.08008C22.0008 4.4703 21.8207 3.87399 21.4823 3.36671C21.1439 2.85943 20.6626 2.464 20.0992 2.23054C19.5359 1.99707 18.916 1.93607 18.318 2.05526C17.7199 2.17446 17.1708 2.46848 16.74 2.90008L13.93 5.71008L7.44 3.55008C7.26721 3.49577 7.08291 3.48941 6.90678 3.53168C6.73066 3.57395 6.56932 3.66326 6.44 3.79008L4.06 6.15008C3.94723 6.26416 3.86356 6.40369 3.81604 6.5569C3.76853 6.71011 3.75857 6.8725 3.78701 7.03037C3.81544 7.18824 3.88144 7.33695 3.97943 7.46395C4.07741 7.59095 4.20451 7.69252 4.35 7.76008L9.53 10.1101L6.93 12.7101L5.22 11.8501C5.03537 11.7502 4.82398 11.7109 4.61578 11.7378C4.40758 11.7647 4.21314 11.8565 4.06 12.0001L2.29 13.8101C2.10375 13.9974 1.99921 14.2509 1.99921 14.5151C1.99921 14.7793 2.10375 15.0327 2.29 15.2201L8.78 21.7101C8.96736 21.8963 9.22081 22.0009 9.485 22.0009C9.74918 22.0009 10.0026 21.8963 10.19 21.7101L12 19.9401C12.1501 19.7915 12.2493 19.5993 12.2834 19.3909C12.3176 19.1826 12.2849 18.9687 12.19 18.7801L11.33 17.0701L13.93 14.4701L16.28 19.6501C16.3476 19.7956 16.4491 19.9227 16.5761 20.0207C16.7031 20.1186 16.8518 20.1846 17.0097 20.2131C17.1676 20.2415 17.33 20.2315 17.4832 20.184C17.6364 20.1365 17.7759 20.0528 17.89 19.9401L20.25 17.5801C20.3768 17.4508 20.4661 17.2894 20.5084 17.1133C20.5507 16.9372 20.5443 16.7529 20.49 16.5801L18.33 10.0901L21.1 7.26008C21.3872 6.97464 21.6147 6.63488 21.7692 6.26059C21.9238 5.88631 22.0022 5.485 22 5.08008ZM19.68 5.85008L16.44 9.09008C16.3132 9.2194 16.2239 9.38074 16.1816 9.55686C16.1393 9.73299 16.1457 9.91729 16.2 10.0901L18.36 16.5701L17.46 17.4701L15.11 12.3001C15.0433 12.1532 14.9421 12.0247 14.815 11.9255C14.6879 11.8262 14.5386 11.7592 14.38 11.7301C14.2201 11.7009 14.0554 11.7111 13.9003 11.7599C13.7453 11.8087 13.6044 11.8946 13.49 12.0101L9.37 16.1701C9.22208 16.3178 9.12421 16.5083 9.09012 16.7145C9.05604 16.9208 9.08748 17.1326 9.18 17.3201L10 19.0001L9.44 19.5601L4.41 14.5201L5 14.0001L6.71 14.8601C6.89749 14.9526 7.10926 14.984 7.31554 14.95C7.52182 14.9159 7.71223 14.818 7.86 14.6701L12 10.5101C12.1149 10.3961 12.2004 10.2559 12.2492 10.1015C12.298 9.9472 12.3085 9.78333 12.28 9.62399C12.2515 9.46466 12.1847 9.31464 12.0854 9.1868C11.9862 9.05897 11.8573 8.95714 11.71 8.89008L6.5 6.54008L7.4 5.64008L13.88 7.80008C14.0528 7.85439 14.2371 7.86075 14.4132 7.81848C14.5893 7.77621 14.7507 7.68689 14.88 7.56008L18.12 4.32008C18.2197 4.21818 18.3387 4.13722 18.47 4.08194C18.6014 4.02667 18.7425 3.99819 18.885 3.99819C19.0275 3.99819 19.1686 4.02667 19.3 4.08194C19.4313 4.13722 19.5504 4.21818 19.65 4.32008C19.7543 4.41672 19.8368 4.5345 19.892 4.66556C19.9472 4.79661 19.9738 4.93793 19.97 5.08008C19.9754 5.22127 19.9526 5.36213 19.9028 5.49436C19.853 5.6266 19.7772 5.74754 19.68 5.85008Z" fill="#E80537"/>
</svg>
