<svg width="14" height="15" viewBox="0 0 14 15" fill="none" xmlns="http://www.w3.org/2000/svg">
<path d="M6.58592 9.44928C6.56083 9.477 6.53745 9.50622 6.51592 9.53678C6.49384 9.56929 6.47619 9.6046 6.46342 9.64178C6.4466 9.67484 6.4348 9.71023 6.42842 9.74678C6.42555 9.78561 6.42555 9.82461 6.42842 9.86344C6.42645 9.93996 6.44243 10.0159 6.47508 10.0851C6.50128 10.1575 6.54308 10.2232 6.59752 10.2777C6.65195 10.3321 6.71769 10.3739 6.79008 10.4001C6.85991 10.431 6.93541 10.4469 7.01175 10.4469C7.08809 10.4469 7.16359 10.431 7.23342 10.4001C7.30581 10.3739 7.37155 10.3321 7.42598 10.2777C7.48042 10.2232 7.52222 10.1575 7.54842 10.0851C7.57432 10.0142 7.58621 9.9389 7.58342 9.86344C7.58386 9.78667 7.56915 9.71057 7.54012 9.6395C7.51109 9.56843 7.46831 9.50378 7.41425 9.44928C7.36002 9.3946 7.2955 9.35121 7.22442 9.32159C7.15334 9.29198 7.07709 9.27673 7.00008 9.27673C6.92308 9.27673 6.84683 9.29198 6.77575 9.32159C6.70466 9.35121 6.64015 9.3946 6.58592 9.44928ZM7.00008 1.69678C5.84636 1.69678 4.71854 2.0389 3.75926 2.67987C2.79997 3.32085 2.0523 4.23189 1.61079 5.29779C1.16928 6.36369 1.05376 7.53658 1.27884 8.66814C1.50392 9.79969 2.05949 10.8391 2.87529 11.6549C3.6911 12.4707 4.7305 13.0263 5.86206 13.2514C6.99361 13.4764 8.1665 13.3609 9.2324 12.9194C10.2983 12.4779 11.2093 11.7302 11.8503 10.7709C12.4913 9.81165 12.8334 8.68383 12.8334 7.53011C12.8334 6.76407 12.6825 6.00552 12.3894 5.29779C12.0962 4.59006 11.6665 3.947 11.1249 3.40532C10.5832 2.86365 9.94014 2.43397 9.2324 2.14081C8.52467 1.84766 7.76613 1.69678 7.00008 1.69678V1.69678ZM7.00008 12.1968C6.0771 12.1968 5.17485 11.9231 4.40742 11.4103C3.63999 10.8975 3.04186 10.1687 2.68865 9.31597C2.33544 8.46324 2.24302 7.52493 2.42309 6.61969C2.60315 5.71444 3.04761 4.88292 3.70025 4.23028C4.3529 3.57763 5.18442 3.13318 6.08966 2.95311C6.99491 2.77305 7.93322 2.86546 8.78594 3.21867C9.63866 3.57188 10.3675 4.17002 10.8803 4.93745C11.3931 5.70488 11.6667 6.60713 11.6667 7.53011C11.6667 8.76779 11.1751 9.95477 10.2999 10.8299C9.42475 11.7051 8.23776 12.1968 7.00008 12.1968V12.1968ZM7.00008 4.61344C6.6927 4.61325 6.3907 4.69401 6.12445 4.84762C5.8582 5.00122 5.63711 5.22225 5.48342 5.48844C5.44121 5.55484 5.41287 5.62908 5.4001 5.70671C5.38733 5.78434 5.3904 5.86375 5.40912 5.94017C5.42783 6.01658 5.46182 6.08842 5.50902 6.15136C5.55622 6.21431 5.61566 6.26705 5.68378 6.30642C5.75189 6.34579 5.82726 6.37098 5.90536 6.38046C5.98346 6.38995 6.06267 6.38354 6.13823 6.36162C6.21379 6.3397 6.28413 6.30272 6.34503 6.25291C6.40593 6.2031 6.45612 6.14149 6.49258 6.07178C6.54398 5.98276 6.61798 5.9089 6.7071 5.85768C6.79622 5.80646 6.89729 5.7797 7.00008 5.78011C7.15479 5.78011 7.30317 5.84157 7.41256 5.95097C7.52196 6.06036 7.58342 6.20873 7.58342 6.36344C7.58342 6.51815 7.52196 6.66653 7.41256 6.77592C7.30317 6.88532 7.15479 6.94678 7.00008 6.94678C6.84537 6.94678 6.697 7.00824 6.58761 7.11763C6.47821 7.22703 6.41675 7.3754 6.41675 7.53011V8.11344C6.41675 8.26815 6.47821 8.41653 6.58761 8.52592C6.697 8.63532 6.84537 8.69678 7.00008 8.69678C7.15479 8.69678 7.30317 8.63532 7.41256 8.52592C7.52196 8.41653 7.58342 8.26815 7.58342 8.11344V8.00844C7.96922 7.86846 8.29354 7.59733 8.4997 7.24245C8.70586 6.88757 8.78073 6.47153 8.71123 6.06705C8.64173 5.66256 8.43228 5.29537 8.1195 5.02966C7.80671 4.76395 7.41048 4.61663 7.00008 4.61344V4.61344Z" fill="#767676"/>
</svg>
