<svg width="24" height="24" viewBox="0 0 24 24" fill="none" xmlns="http://www.w3.org/2000/svg">
<path d="M10 8.5C10.5523 8.5 11 8.94772 11 9.5V10H12C12.5523 10 13 10.4477 13 11C13 11.5523 12.5523 12 12 12H9.5C9.22386 12 9 12.2239 9 12.5C9 12.7761 9.22386 13 9.5 13H10.5C11.8807 13 13 14.1193 13 15.5C13 16.7095 12.1411 17.7184 11 17.95V18.5C11 19.0523 10.5523 19.5 10 19.5C9.44772 19.5 9 19.0523 9 18.5V18H8C7.44772 18 7 17.5523 7 17C7 16.4477 7.44772 16 8 16H10.5C10.7761 16 11 15.7761 11 15.5C11 15.2239 10.7761 15 10.5 15H9.5C8.11929 15 7 13.8807 7 12.5C7 11.2905 7.85888 10.2816 9 10.05V9.5C9 8.94772 9.44772 8.5 10 8.5Z" fill="#E80537"/>
<path fill-rule="evenodd" clip-rule="evenodd" d="M5.9575 5.95678C7.43765 3.01814 10.4821 1 14.0001 1C18.9706 1 23.0001 5.02944 23.0001 10C23.0001 13.518 20.9819 16.5626 18.0431 18.0427C16.5624 20.983 13.5167 23 10 23C5.02944 23 1 18.9706 1 14C1 10.4832 3.01711 7.43752 5.9575 5.95678ZM9.0509 5.04945C10.3181 3.78274 12.0682 3 14.0001 3C17.8661 3 21.0001 6.13401 21.0001 10C21.0001 11.9319 20.2173 13.6821 18.9505 14.9493C18.9832 14.6373 19 14.3206 19 14C19 9.02944 14.9706 5 10 5C9.67945 5 9.3628 5.01676 9.0509 5.04945ZM10 7C6.13401 7 3 10.134 3 14C3 17.866 6.13401 21 10 21C13.866 21 17 17.866 17 14C17 10.134 13.866 7 10 7Z" fill="#E80537"/>
</svg>
