<svg width="30" height="30" viewBox="0 0 30 30" fill="none" xmlns="http://www.w3.org/2000/svg">
<path d="M24.5375 4.5624C24.3923 4.44492 24.2226 4.36149 24.0409 4.31823C23.8592 4.27496 23.6701 4.27297 23.4875 4.3124C22.1518 4.59233 20.7729 4.59589 19.4358 4.32288C18.0987 4.04986 16.8316 3.50604 15.7125 2.7249C15.5033 2.57974 15.2547 2.50195 15 2.50195C14.7453 2.50195 14.4967 2.57974 14.2875 2.7249C13.1684 3.50604 11.9013 4.04986 10.5642 4.32288C9.22707 4.59589 7.8482 4.59233 6.5125 4.3124C6.32992 4.27297 6.14083 4.27496 5.95913 4.31823C5.77742 4.36149 5.60772 4.44492 5.4625 4.5624C5.31747 4.68005 5.20065 4.82869 5.12061 4.99742C5.04058 5.16614 4.99936 5.35065 5 5.5374V14.8499C4.99889 16.6421 5.42597 18.4086 6.24567 20.0023C7.06537 21.5961 8.25397 22.9709 9.7125 24.0124L14.275 27.2624C14.4867 27.4131 14.7401 27.4941 15 27.4941C15.2599 27.4941 15.5133 27.4131 15.725 27.2624L20.2875 24.0124C21.746 22.9709 22.9346 21.5961 23.7543 20.0023C24.574 18.4086 25.0011 16.6421 25 14.8499V5.5374C25.0006 5.35065 24.9594 5.16614 24.8794 4.99742C24.7993 4.82869 24.6825 4.68005 24.5375 4.5624ZM22.5 14.8499C22.501 16.2433 22.1691 17.6169 21.5321 18.8562C20.895 20.0955 19.9712 21.1647 18.8375 21.9749L15 24.7124L11.1625 21.9749C10.0288 21.1647 9.10498 20.0955 8.46794 18.8562C7.83089 17.6169 7.49904 16.2433 7.5 14.8499V6.9749C10.1205 7.19919 12.7451 6.59118 15 5.2374C17.2549 6.59118 19.8795 7.19919 22.5 6.9749V14.8499Z" fill="#E80537"/>
</svg>
