<svg width="28" height="27" viewBox="0 0 28 27" fill="none" xmlns="http://www.w3.org/2000/svg">
<path fill-rule="evenodd" clip-rule="evenodd" d="M10.9505 2.29785C9.99934 2.29785 9.15486 2.90652 8.85407 3.8089L8.25281 5.61267L4.93418 5.61267C3.66268 5.61267 2.65346 6.683 2.72812 7.95231L3.57307 22.3165C3.64178 23.4846 4.60906 24.3966 5.77914 24.3966L21.5121 24.3966C22.7326 24.3966 23.722 23.4072 23.722 22.1867V20.7862C24.3825 20.4041 24.8269 19.6899 24.8269 18.8719V17.767C24.8269 16.9275 24.3588 16.1974 23.6694 15.8233C23.2572 12.5578 20.4697 10.0324 17.0923 10.0324L15.865 10.0324L15.9874 7.95231C16.062 6.683 15.0528 5.61267 13.7813 5.61267H10.5822L10.9505 4.50773H12.6726C13.2828 4.50773 13.7775 4.01303 13.7775 3.40279C13.7775 2.79255 13.2828 2.29785 12.6726 2.29785L10.9505 2.29785ZM9.94094 12.2423L5.19417 12.2423L5.77914 22.1867H8.25283V20.7862C7.59229 20.4041 7.14789 19.6899 7.14789 18.8719V17.767C7.14789 16.9275 7.61597 16.1974 8.30538 15.8233C8.47796 14.4563 9.06681 13.2189 9.94094 12.2423ZM13.7813 7.82254L13.6513 10.0324L5.06418 10.0324L4.93418 7.82254L13.7813 7.82254ZM17.0923 12.2423H14.8825C12.823 12.2423 11.0926 13.6508 10.6019 15.5571L21.3728 15.5571C20.8822 13.6508 19.1518 12.2423 17.0923 12.2423ZM10.4627 22.1867V21.0818L21.5121 21.0818V22.1867L10.4627 22.1867ZM22.617 17.767L9.35777 17.767V18.8719L22.617 18.8719V17.767Z" fill="black"/>
</svg>
