<svg width="28" height="27" viewBox="0 0 28 27" fill="none" xmlns="http://www.w3.org/2000/svg">
<path d="M20.5725 3.7315C19.8567 3.7315 19.1687 3.89277 18.5456 4.1979C17.5119 2.50287 15.6521 1.41113 13.6114 1.41113C11.5706 1.41113 9.71083 2.50287 8.67711 4.1979C8.05409 3.89277 7.3661 3.7315 6.65026 3.7315C4.09089 3.7315 2.00952 5.81288 2.00952 8.37224C2.00952 10.5302 3.49108 12.3494 5.49008 12.8668V23.4547C5.49008 24.0951 6.00984 24.6148 6.65026 24.6148H20.5725C21.2129 24.6148 21.7327 24.0951 21.7327 23.4547V12.8668C23.7317 12.3494 25.2132 10.5302 25.2132 8.37224C25.2132 5.81288 23.1319 3.7315 20.5725 3.7315ZM7.81045 22.2945V21.1343H19.4123V22.2945H7.81045ZM20.5725 10.6926C19.9321 10.6926 19.4123 11.2124 19.4123 11.8528V18.8139H18.2521V15.3334H15.9317V18.8139H14.7716V14.1732H12.4512V18.8139H11.291V15.3334H8.97063V18.8139H7.81045V11.8528C7.81045 11.2124 7.29068 10.6926 6.65026 10.6926C5.37058 10.6926 4.32989 9.65193 4.32989 8.37224C4.32989 7.0914 5.37058 6.05187 6.65026 6.05187C7.28372 6.05187 7.87774 6.30711 8.32093 6.77235C8.60982 7.07284 9.03676 7.19582 9.44167 7.09604C9.84657 6.99394 10.1656 6.68417 10.2782 6.28275C10.697 4.78031 12.0672 3.7315 13.6114 3.7315C15.1556 3.7315 16.5258 4.78031 16.9457 6.28275C17.0583 6.68417 17.3773 6.99394 17.7822 7.09604C18.1883 7.19582 18.6141 7.07284 18.903 6.77235C19.345 6.30711 19.939 6.05187 20.5725 6.05187C21.8522 6.05187 22.8929 7.0914 22.8929 8.37224C22.8929 9.65193 21.8522 10.6926 20.5725 10.6926Z" fill="black"/>
</svg>
