<svg width="28" height="27" viewBox="0 0 28 27" fill="none" xmlns="http://www.w3.org/2000/svg">
<path d="M18.4178 11.4104H9.13625V13.7307H18.4178V11.4104Z" fill="black"/>
<path d="M20.739 2.12891H6.81667C4.25381 2.12891 2.1759 4.2068 2.1759 6.76965C2.1759 9.3325 4.25381 11.4104 6.81667 11.4104C9.37953 11.4104 11.4574 9.3325 11.4574 6.76965C11.4574 5.92039 11.2126 5.13379 10.8135 4.44928H16.7409C16.343 5.13379 16.0982 5.91923 16.0982 6.76965C16.0982 9.3325 18.1761 11.4104 20.739 11.4104C23.3018 11.4104 25.3797 9.3325 25.3797 6.76965C25.3797 4.2068 23.3018 2.12891 20.739 2.12891ZM6.81667 9.09002C5.53582 9.09002 4.49629 8.05049 4.49629 6.76965C4.49629 5.4888 5.53582 4.44928 6.81667 4.44928C8.09752 4.44928 9.13705 5.4888 9.13705 6.76965C9.13705 8.05049 8.09752 9.09002 6.81667 9.09002ZM20.739 9.09002C19.4581 9.09002 18.4186 8.05049 18.4186 6.76965C18.4186 5.4888 19.4581 4.44928 20.739 4.44928C22.0198 4.44928 23.0593 5.4888 23.0593 6.76965C23.0593 8.05049 22.0198 9.09002 20.739 9.09002Z" fill="black"/>
<path d="M9.13625 25.3326H11.4566V17.2113H12.6168V25.3326H14.9372V17.2113H16.0974V25.3326H18.4178V14.891H9.13625V25.3326Z" fill="black"/>
</svg>
