<svg width="28" height="27" viewBox="0 0 28 27" fill="none" xmlns="http://www.w3.org/2000/svg">
<g clip-path="url(#clip0_298_190)">
<path d="M26.3706 8.59774L14.3167 2.61291C13.9779 2.44414 13.5778 2.44414 13.2378 2.61291L1.18393 8.59774C0.941647 8.71743 0.757222 8.92451 0.647532 9.15193C0.575208 9.29796 0.518555 9.54693 0.518555 9.66902V16.5695C0.518555 17.2291 1.05857 17.7665 1.72395 17.7665C2.38932 17.7665 2.92934 17.2291 2.92934 16.5695V11.4381L5.34012 12.3957V18.2644C5.34012 18.7181 5.59807 19.1322 6.0067 19.3357C8.07877 20.3639 10.2087 21.6327 13.7779 21.6327C17.347 21.6327 19.4781 20.3627 21.549 19.3357C21.9576 19.131 22.2156 18.7181 22.2156 18.2644V12.3957L26.2802 10.781C26.7201 10.6062 27.0167 10.1909 27.036 9.71929C27.0564 9.24769 26.7949 8.8108 26.3706 8.59774ZM19.8048 17.5247L18.6296 18.1076C15.5908 19.617 11.9637 19.617 8.92616 18.1076L7.7509 17.5247V13.3533L13.3294 15.5701C13.4741 15.6275 13.626 15.6539 13.7779 15.6539C13.9297 15.6539 14.0816 15.6275 14.2263 15.5689L19.8048 13.3521V17.5247ZM13.7779 13.1678L4.66389 9.54693L13.7779 5.0236L22.8918 9.54693L13.7779 13.1678Z" fill="black"/>
<path d="M1.72395 19.2448C1.05857 19.2448 0.518555 19.781 0.518555 20.4417V22.8357C0.518555 23.4976 1.05857 24.0326 1.72395 24.0326C2.38932 24.0326 2.92934 23.4976 2.92934 22.8357V20.4417C2.92934 19.781 2.38932 19.2448 1.72395 19.2448Z" fill="black"/>
</g>
<defs>
<clipPath id="clip0_298_190">
<rect width="26.5185" height="26.5185" fill="white" transform="translate(0.518555)"/>
</clipPath>
</defs>
</svg>
