<svg width="28" height="27" viewBox="0 0 28 27" fill="none" xmlns="http://www.w3.org/2000/svg">
<path d="M23.232 2.28781C22.9149 1.97181 22.4409 1.87679 22.0276 2.04805C21.6144 2.21931 21.3459 2.62259 21.3459 3.06897V24.0619H23.5558V17.4326H25.7656C26.3756 17.4326 26.8706 16.9376 26.8706 16.3277C26.8706 6.04444 23.3812 2.43697 23.232 2.28781ZM23.5558 15.2228V7.75703C24.0939 9.52485 24.559 11.9645 24.6463 15.2228H23.5558Z" fill="black"/>
<path d="M9.19156 6.38359V1.96402H6.98168V6.38359C6.98168 7.1979 6.53418 7.90282 5.87674 8.28732V1.96402H3.66687V8.28732C3.00943 7.90282 2.56193 7.199 2.56193 6.38359V1.96402H0.352051V6.38359C0.352051 8.43648 1.76637 10.1513 3.66687 10.6463V24.0619H5.87674V10.6463C7.77724 10.1513 9.19156 8.43648 9.19156 6.38359Z" fill="black"/>
<path d="M13.6113 9.69832C9.95507 9.69832 6.98168 12.6716 6.98168 16.3277C6.98168 19.9838 9.95507 22.957 13.6113 22.957C17.2676 22.957 20.2409 19.9838 20.2409 16.3277C20.2409 12.6716 17.2676 9.69832 13.6113 9.69832ZM13.6113 20.7472C11.1738 20.7472 9.19156 18.7651 9.19156 16.3277C9.19156 13.8914 11.1738 11.9081 13.6113 11.9081C16.0488 11.9081 18.0311 13.8914 18.0311 16.3277C18.0311 18.7651 16.0488 20.7472 13.6113 20.7472Z" fill="black"/>
<path d="M15.2687 14.1179C14.3538 14.1179 13.6113 14.8604 13.6113 15.7752C13.6113 14.8604 12.8688 14.1179 11.9539 14.1179C11.039 14.1179 10.2965 14.8604 10.2965 15.7752C10.2965 17.4325 13.6113 19.6423 13.6113 19.6423C13.6113 19.6423 16.9261 17.4325 16.9261 15.7752C16.9261 14.8604 16.1836 14.1179 15.2687 14.1179Z" fill="black"/>
</svg>
