<svg width="28" height="28" viewBox="0 0 28 28" fill="none" xmlns="http://www.w3.org/2000/svg">
<g clip-path="url(#clip0_298_184)">
<path d="M16.9881 3.75902C16.1317 2.9982 14.9788 2.57184 13.7778 2.57184C12.5767 2.57184 11.4238 2.9982 10.5675 3.75902L9.04232 2.35581C10.3046 1.23201 12.0056 0.602051 13.7778 0.602051C15.5499 0.602051 17.2509 1.23201 18.5132 2.35581L16.9881 3.75902Z" fill="black"/>
<path d="M13.1421 6.28459L11.2522 4.64918C11.9242 4.07893 12.8319 3.75902 13.7778 3.75902C14.7237 3.75902 15.6313 4.07893 16.3033 4.64918L14.4249 6.28459C14.2514 6.14452 14.0219 6.06652 13.7835 6.06652C13.5451 6.06652 13.3156 6.14452 13.1421 6.28459Z" fill="black"/>
<path fill-rule="evenodd" clip-rule="evenodd" d="M1.1499 20.0959L12.8286 7.95596C13.3528 7.41102 14.2027 7.41102 14.727 7.95596L26.4056 20.0959L24.5072 22.0693L22.6172 20.1046V27.1206H4.93815V20.1048L3.04831 22.0693L1.1499 20.0959ZM13.7778 10.916L20.3249 17.7218V25.0029H7.2304V17.722L13.7778 10.916Z" fill="black"/>
</g>
<defs>
<clipPath id="clip0_298_184">
<rect width="26.5185" height="26.5185" fill="white" transform="translate(0.518555 0.602051)"/>
</clipPath>
</defs>
</svg>
