<svg width="28" height="27" viewBox="0 0 28 27" fill="none" xmlns="http://www.w3.org/2000/svg">
<path d="M5.65639 10.359H13.7777C14.4181 10.359 14.9378 9.84043 14.9378 9.19891C14.9378 8.55738 14.4181 8.03882 13.7777 8.03882H5.65639C5.01597 8.03882 4.49621 8.55738 4.49621 9.19891C4.49621 9.84043 5.01597 10.359 5.65639 10.359Z" fill="black"/>
<path d="M19.5786 20.7997H18.6319C19.1122 22.1488 20.3861 23.1198 21.899 23.1198C23.8214 23.1198 25.3795 21.5607 25.3795 19.6396C25.3795 18.5735 24.8899 17.6326 24.1347 16.9934C23.7402 19.1535 21.8526 20.7997 19.5786 20.7997Z" fill="black"/>
<path d="M23.0592 11.1327V6.87869C23.0592 4.95991 21.4976 3.39844 19.5786 3.39844H17.2582V5.7186H19.5786C20.2179 5.7186 20.7388 6.23948 20.7388 6.87869V16.1594C20.7388 16.7986 20.2179 17.3194 19.5786 17.3194H13.7777V12.6791C13.7777 12.0387 13.2579 11.519 12.6175 11.519H7.97681C4.77819 11.519 2.1759 14.1211 2.1759 17.3194V19.6396H19.5786C21.4976 19.6396 23.0592 18.0781 23.0592 16.1594V14.2255L25.3795 14.9993V10.3589L23.0592 11.1327ZM4.49626 17.3194C4.49626 15.4007 6.05787 13.8392 7.97681 13.8392H11.4573V17.3194H4.49626Z" fill="black"/>
<path d="M7.97674 23.1198C9.48961 23.1198 10.7647 22.1488 11.2438 20.7997H4.70967C5.18999 22.1488 6.46386 23.1198 7.97674 23.1198Z" fill="black"/>
</svg>
