<svg width="28" height="27" viewBox="0 0 28 27" fill="none" xmlns="http://www.w3.org/2000/svg">
<path d="M13.7719 21.9718C12.5989 20.9921 10.9943 19.5039 9.46078 17.7795H6.49779C9.39524 21.4181 12.8351 24.129 13.0837 24.3211C13.2871 24.4804 13.5324 24.5595 13.7776 24.5595C14.0228 24.5595 14.268 24.4804 14.4714 24.3211C14.6929 24.1493 17.4627 21.9662 20.1172 18.9095H17.0502C15.7314 20.2678 14.5019 21.356 13.7719 21.9718Z" fill="black"/>
<path d="M4.85492 9.8695C4.78599 9.48756 4.73739 9.109 4.73739 8.73949C4.73739 5.99359 6.51157 4.21948 9.2576 4.21948C10.7142 4.21948 11.9155 5.27942 12.407 6.47949H15.1497C15.6413 5.27942 16.8425 4.21948 18.2991 4.21948C21.0452 4.21948 22.8193 5.99359 22.8193 8.73949C22.8193 9.47739 22.669 10.2356 22.4238 10.9995H24.754C24.9495 10.2447 25.0794 9.48869 25.0794 8.73949C25.0794 4.74719 22.2916 1.95947 18.2991 1.95947C16.4978 1.95947 14.8287 2.90529 13.7789 4.30988C12.728 2.90529 11.0589 1.95947 9.2576 1.95947C5.26513 1.95947 2.47729 4.74719 2.47729 8.73949C2.47729 9.11465 2.52023 9.49208 2.57109 9.8695H4.85492Z" fill="black"/>
<path d="M22.4757 13.2595L19.663 15.1342L15.0016 9.30787L10.3876 13.9217L6.99742 10.5317L4.26948 13.2595H1.34717V15.5195H5.20516L6.99742 13.7284L10.3876 17.1184L14.814 12.6911L19.1929 18.1648L23.1605 15.5195H26.2083V13.2595H22.4757Z" fill="black"/>
</svg>
