<svg width="24" height="24" viewBox="0 0 24 24" fill="none" xmlns="http://www.w3.org/2000/svg">
<path d="M19.0001 2H5.00006C4.20441 2 3.44135 2.31607 2.87874 2.87868C2.31613 3.44129 2.00006 4.20435 2.00006 5V19C2.00006 19.7956 2.31613 20.5587 2.87874 21.1213C3.44135 21.6839 4.20441 22 5.00006 22H19.0001C19.7957 22 20.5588 21.6839 21.1214 21.1213C21.684 20.5587 22.0001 19.7956 22.0001 19V5C22.0001 4.20435 21.684 3.44129 21.1214 2.87868C20.5588 2.31607 19.7957 2 19.0001 2ZM20.0001 19C20.0001 19.2652 19.8947 19.5196 19.7072 19.7071C19.5196 19.8946 19.2653 20 19.0001 20H5.00006C4.73484 20 4.48049 19.8946 4.29295 19.7071C4.10542 19.5196 4.00006 19.2652 4.00006 19V5C4.00006 4.73478 4.10542 4.48043 4.29295 4.29289C4.48049 4.10536 4.73484 4 5.00006 4H19.0001C19.2653 4 19.5196 4.10536 19.7072 4.29289C19.8947 4.48043 20.0001 4.73478 20.0001 5V19ZM17.0001 9H15.0001V7C15.0001 6.73478 14.8947 6.48043 14.7072 6.29289C14.5196 6.10536 14.2653 6 14.0001 6H10.0001C9.73484 6 9.48049 6.10536 9.29295 6.29289C9.10542 6.48043 9.00006 6.73478 9.00006 7V9H7.00006C6.73484 9 6.48049 9.10536 6.29295 9.29289C6.10542 9.48043 6.00006 9.73478 6.00006 10V14C6.00006 14.2652 6.10542 14.5196 6.29295 14.7071C6.48049 14.8946 6.73484 15 7.00006 15H9.00006V17C9.00006 17.2652 9.10542 17.5196 9.29295 17.7071C9.48049 17.8946 9.73484 18 10.0001 18H14.0001C14.2653 18 14.5196 17.8946 14.7072 17.7071C14.8947 17.5196 15.0001 17.2652 15.0001 17V15H17.0001C17.2653 15 17.5196 14.8946 17.7072 14.7071C17.8947 14.5196 18.0001 14.2652 18.0001 14V10C18.0001 9.73478 17.8947 9.48043 17.7072 9.29289C17.5196 9.10536 17.2653 9 17.0001 9ZM16.0001 13H14.0001C13.7348 13 13.4805 13.1054 13.293 13.2929C13.1054 13.4804 13.0001 13.7348 13.0001 14V16H11.0001V14C11.0001 13.7348 10.8947 13.4804 10.7072 13.2929C10.5196 13.1054 10.2653 13 10.0001 13H8.00006V11H10.0001C10.2653 11 10.5196 10.8946 10.7072 10.7071C10.8947 10.5196 11.0001 10.2652 11.0001 10V8H13.0001V10C13.0001 10.2652 13.1054 10.5196 13.293 10.7071C13.4805 10.8946 13.7348 11 14.0001 11H16.0001V13Z" fill="white"/>
</svg>
