<svg width="32" height="25" viewBox="0 0 32 25" fill="none" xmlns="http://www.w3.org/2000/svg">
<g clip-path="url(#clip0_473_374)">
<path d="M27.3582 42.0101C31.2465 39.8604 33.7329 36.7664 33.8053 32.6734C33.8584 29.7152 31.8619 27.4603 30.3964 23.3556C28.8951 19.1538 28.4518 14.5102 25.7941 12.5631C24.6456 11.7213 23.5525 11.3468 22.3874 11.1842C19.1796 10.7378 16.0981 12.7516 14.405 14.9599C12.4118 17.5584 10.2992 17.0671 8.72326 17.6231C7.37561 18.0997 6.24433 18.3918 4.60012 19.9893C3.90992 20.6595 2.56062 22.549 2.69018 25.2313C2.86803 28.9259 5.65361 30.3393 9.55541 34.6602C13.174 38.6679 14.5878 41.8575 17.4926 43.1163C20.3969 44.3742 23.4698 44.1597 27.3582 42.0101Z" fill="#EF7015"/>
<path d="M13.3417 10.0703C12.5668 8.71975 10.8006 8.30013 9.40548 9.13418C9.11495 9.30787 8.77935 9.36223 8.46327 9.28735C8.14667 9.21158 7.8829 9.01476 7.72179 8.73364C7.56016 8.45163 7.52094 8.1216 7.61142 7.80365C7.70228 7.4843 7.91302 7.21369 8.20355 7.03999C9.59863 6.20594 10.0984 4.41967 9.31622 3.05661C8.54124 1.70606 6.77504 1.28644 5.37996 2.12049C3.75229 3.09239 2.56748 4.64148 2.0454 6.47994C1.52783 8.29317 1.74672 10.1685 2.65856 11.7582C3.57128 13.3473 5.06744 14.459 6.87119 14.888C8.69889 15.3233 10.6024 15.0274 12.2296 14.0546C13.6256 13.22 14.1248 11.4328 13.3417 10.0703Z" fill="#02C771"/>
</g>
<defs>
<clipPath id="clip0_473_374">
<rect width="32" height="25" fill="white"/>
</clipPath>
</defs>
</svg>
