<svg width="100" height="100" viewBox="0 0 100 100" fill="none" xmlns="http://www.w3.org/2000/svg">
<path d="M72.3131 35.2068H27.6747C25.2779 35.2068 23.3348 37.1541 23.3348 39.5562V84.0014C23.3348 86.4035 25.2779 88.3508 27.6747 88.3508H72.3131C74.71 88.3508 76.653 86.4035 76.653 84.0014V39.5562C76.653 37.1541 74.71 35.2068 72.3131 35.2068Z" fill="#FFCB2E"/>
<path d="M49.994 63.8949C53.6584 63.8949 56.629 60.9177 56.629 57.2453C56.629 53.5728 53.6584 50.5957 49.994 50.5957C46.3296 50.5957 43.359 53.5728 43.359 57.2453C43.359 60.9177 46.3296 63.8949 49.994 63.8949Z" fill="#E80537"/>
<path d="M49.996 57.4456H49.994C48.6618 57.4456 47.5818 58.5279 47.5818 59.863V70.5444C47.5818 71.8796 48.6618 72.9619 49.994 72.9619H49.996C51.3282 72.9619 52.4082 71.8796 52.4082 70.5444V59.863C52.4082 58.5279 51.3282 57.4456 49.996 57.4456Z" fill="#E80537"/>
<path d="M31.6957 40.4746C31.3102 40.4806 30.9933 40.1691 30.9933 39.7847C30.9933 39.7605 30.9933 39.7342 30.9933 39.7099C30.9933 31.1951 32.2831 24.4201 34.8306 19.575C36.3606 16.6619 38.3651 14.4002 40.7893 12.8486C43.3993 11.1796 46.4958 10.334 49.996 10.334C53.4962 10.334 56.7016 11.1796 59.3238 12.8445C61.7642 14.3941 63.7686 16.6639 65.2825 19.5892C66.6007 22.1361 67.5797 25.2556 68.1893 28.8606C68.6939 31.8425 68.9644 35.2532 68.9947 39.0119C68.9987 39.3963 68.6878 39.7099 68.3043 39.7099H64.4166C64.0371 39.7099 63.7282 39.4024 63.7262 39.0221C63.6657 31.624 62.616 25.907 60.6055 22.0208C59.5115 19.9068 58.1691 18.3632 56.5038 17.3052C54.7134 16.1683 52.5838 15.614 49.996 15.614C47.4082 15.614 45.3977 16.1663 43.6234 17.3012C41.9803 18.3511 40.5915 19.9452 39.4914 22.035C37.3477 26.1154 36.2617 32.0609 36.2617 39.7099C36.2617 39.7119 36.2617 39.7139 36.2617 39.7159C36.2617 40.0942 35.961 40.4038 35.5815 40.4098L31.6937 40.4746H31.6957Z" fill="black"/>
<path d="M42.5435 89.6658L38.8173 89.3704L35.1213 89.5302L31.387 89.5444H31.3749L27.4609 89.4756L23.6034 88.0575L22.3156 84.234L22.0027 80.3357L22.0612 76.577L22.1359 72.8264L22.3378 69.189L22.1137 65.4869L22.3115 61.7464L22.3277 58.1131L22.0592 54.405L22.1036 50.6139L22.2691 46.9462L22.1924 43.2542V39.3256L23.7124 35.5749L27.4185 34.1164L31.3587 33.8716L35.1617 33.908L38.8677 34.082L42.5718 34.1629L46.2314 34.1973L49.9577 33.9323L53.7304 34.0091L57.4667 34.0233L61.1728 34.1548L64.8385 34.1851L68.5971 33.9545L72.5736 34.2539L76.1122 35.6822L77.8481 39.3114L77.6705 43.2805L77.6442 46.9037L77.9975 50.628L77.84 54.409L77.7492 58.0929L77.6927 61.7869L77.6543 65.4546L77.8158 69.1546L77.8885 72.8931L77.7411 76.5952L77.8279 80.3114L77.5978 84.234L76.2555 87.8815L72.5353 89.599L68.5749 89.3947L64.8789 89.4695L61.1425 89.4311L57.4183 89.4452H57.3981L53.7385 89.3239L50.0183 89.5929L46.2859 89.4655L42.5415 89.6597L42.5435 89.6658ZM38.8597 87.0723L42.5758 87.3676L46.2698 87.1754L49.9779 87.3029L53.6961 87.0338L57.4546 87.1572L61.1526 87.1431L64.8708 87.1815L68.6132 87.1067H68.6536L72.0912 87.2847L74.4388 86.2004L75.335 83.7647L75.5389 80.277L75.4521 76.5831L75.5994 72.8769L75.5288 69.2214L75.3673 65.5011L75.4077 61.7666L75.4642 58.0585L75.555 54.3443L75.7064 50.7009L75.3572 47.017L75.3855 43.2117L75.5389 39.7969L74.4347 37.4907L72.0508 36.5298L68.585 36.2688L64.9011 36.4954L61.1102 36.463L57.4082 36.3315L53.7082 36.3174L50.0203 36.2425L46.3061 36.5055L42.5415 36.4711L38.7789 36.3882L35.0809 36.2142L31.4233 36.1798L27.9251 36.3983L25.4686 37.3653L24.4875 39.7888V43.2583L24.5642 46.9887L24.3967 50.711L24.3543 54.3483L24.6208 58.0464L24.6026 61.8496L24.4108 65.489L24.6349 69.1951L24.427 72.9437L24.3543 76.6276L24.2978 80.271L24.5784 83.7768L25.4262 86.2894L27.8908 87.1957L31.4071 87.2564L35.0951 87.2422L38.8637 87.0783L38.8597 87.0723Z" fill="black"/>
<path d="M73.4557 82.9189L72.6523 84.2278C72.6523 84.2278 71.4755 84.5757 71.5583 84.4867C71.641 84.3977 71.3685 64.8596 71.3685 64.8596L73.4577 82.9189H73.4557Z" fill="black"/>
<path d="M69.7213 84.677L67.9813 84.7093L69.6426 71.4587L69.7213 84.677Z" fill="black"/>
</svg>
