<svg width="243" height="81" viewBox="0 0 243 81" fill="none" xmlns="http://www.w3.org/2000/svg">
<g clip-path="url(#clip0_246_1732)">
<path d="M67.1502 33.3061C65.0721 31.2963 64.0322 28.4742 64.0305 24.8398C64.0305 22.5285 64.5081 20.4973 65.4632 18.7463C66.3833 17.028 67.7963 15.6191 69.5233 14.6978C71.2749 13.7507 73.3143 13.2767 75.6413 13.2759C81.9931 13.2759 85.6415 16.3258 86.5865 22.4255H80.7026C80.4925 21.0019 79.9828 19.9313 79.1737 19.2136C78.3645 18.4959 77.2137 18.1388 75.7211 18.1421C73.9416 18.1421 72.5245 18.7392 71.4698 19.9333C70.4151 21.1275 69.8823 22.763 69.8713 24.8398C69.8713 26.8898 70.394 28.5056 71.4395 29.6872C72.4849 30.8688 73.9361 31.4587 75.7932 31.457C77.312 31.457 78.5084 31.0802 79.3825 30.3265C80.2566 29.5729 80.7865 28.4842 80.9721 27.0606H86.856C86.7547 28.753 86.2433 30.396 85.3651 31.8502C84.5011 33.2504 83.252 34.3466 81.6176 35.1388C79.9833 35.9309 78.0291 36.3266 75.7552 36.3258C72.0976 36.3233 69.2292 35.3167 67.1502 33.3061Z" fill="#E80537"/>
<path d="M113.661 13.8612V35.7391H107.973V28.8493C107.764 31.4185 106.999 33.3068 105.678 34.5144C104.358 35.7219 102.574 36.324 100.327 36.3207C98.2602 36.3207 96.4558 35.8664 94.9143 34.9578C93.3727 34.0492 92.1767 32.7319 91.3262 31.006C90.4757 29.2809 90.0505 27.2113 90.0505 24.797C90.0505 22.4095 90.5015 20.3461 91.4034 18.6068C92.3054 16.8675 93.5335 15.5465 95.0877 14.6437C96.6757 13.7256 98.4859 13.2544 100.324 13.2808C102.517 13.2808 104.282 13.8838 105.619 15.0897C106.955 16.2955 107.737 18.1709 107.964 20.7158V13.8612H113.661ZM106.624 29.7072C107.657 28.5122 108.174 26.8897 108.174 24.8397C108.174 22.737 107.658 21.0881 106.625 19.8931C105.592 18.6981 104.161 18.101 102.331 18.1018C100.39 18.1018 98.8263 18.6926 97.6392 19.8742C96.452 21.0558 95.8572 22.6972 95.8546 24.7983C95.8546 26.875 96.4562 28.5105 97.6594 29.7047C98.8626 30.8988 100.418 31.4955 102.327 31.4947C104.156 31.4947 105.588 30.8984 106.621 29.7059L106.624 29.7072Z" fill="#E80537"/>
<path d="M112.248 45.9403V40.294C113.341 40.6257 114.477 40.795 115.62 40.7964C117.034 40.7964 118.041 40.4853 118.641 39.8631C119.241 39.2409 119.541 38.138 119.542 36.5545V13.8613H125.237V36.8296C125.237 39.2171 124.917 41.1121 124.277 42.5148C123.696 43.853 122.632 44.928 121.295 45.5295C119.95 46.1391 118.153 46.444 115.905 46.444C114.435 46.4456 113.216 46.2777 112.248 45.9403Z" fill="#E80537"/>
<path d="M150.397 13.8613V35.7393H144.71V28.3068H144.67C144.67 30.1491 144.356 31.6677 143.729 32.8627C143.103 34.0577 142.285 34.9337 141.277 35.4906C140.277 36.0458 139.148 36.3333 138.002 36.3246C135.621 36.3246 133.836 35.6693 132.648 34.3588C131.459 33.0482 130.864 31.0045 130.862 28.2276V13.8613H136.557V26.7869C136.557 28.3445 136.877 29.48 137.518 30.1935C138.158 30.9069 139.132 31.2637 140.44 31.2637C141.003 31.2667 141.56 31.1541 142.076 30.9329C142.592 30.7118 143.057 30.3869 143.441 29.9787C144.291 29.1237 144.717 27.9559 144.717 26.4753V13.8613H150.397Z" fill="#E80537"/>
<path d="M120.036 9.30534C119.714 9.00628 119.46 8.64407 119.287 8.2418C119.115 7.83954 119.029 7.40604 119.035 6.96895C119.027 6.52597 119.111 6.08616 119.284 5.67746C119.456 5.26876 119.712 4.90009 120.036 4.59487C120.345 4.28209 120.714 4.0346 121.122 3.8673C121.53 3.69999 121.967 3.61634 122.409 3.62137C122.847 3.61563 123.282 3.69904 123.687 3.86647C124.091 4.03389 124.457 4.28178 124.762 4.59487C125.08 4.90314 125.331 5.27285 125.499 5.68118C125.668 6.08951 125.75 6.52779 125.741 6.96895C125.738 7.84543 125.386 8.68521 124.762 9.30522C124.138 9.92523 123.292 10.2752 122.409 10.2788C121.967 10.2839 121.53 10.2002 121.122 10.0329C120.714 9.86561 120.345 9.61811 120.036 9.30534Z" fill="#59D359"/>
<path d="M80.4735 65.2229C80.4735 70.2222 77.3917 73.5535 72.7671 73.5535C69.9916 73.5535 67.8679 72.227 66.6693 69.9497V78.9938H64.0305V57.2326H66.6693V60.4986C67.8679 58.2212 69.9916 56.896 72.7671 56.896C77.3917 56.8947 80.4735 60.226 80.4735 65.2229ZM77.7688 65.2229C77.7688 61.1781 75.9868 59.2726 72.1495 59.2726C68.3121 59.2726 66.5352 61.1781 66.5352 65.2229C66.5352 69.2676 68.3159 71.1731 72.152 71.1731C75.9881 71.1731 77.7688 69.2701 77.7688 65.2229Z" fill="#E80537"/>
<path d="M94.3878 57.1664V59.8181C94.0802 59.6485 93.531 59.4086 92.1615 59.4086C88.7013 59.4086 87.2256 62.5037 87.2256 65.9404V73.2134H84.5906V57.233H87.2281V61.7889C87.8103 59.1373 89.2531 56.9277 92.5045 56.9277C93.2917 56.9277 93.9435 56.9617 94.3878 57.1664Z" fill="#E80537"/>
<path d="M110.766 66.0397H98.2631C98.434 69.8081 99.9755 71.3154 103.504 71.3154C106.142 71.3154 107.205 70.671 107.958 68.562L110.423 69.5141C109.293 72.3354 106.519 73.5601 103.504 73.5601C98.6745 73.5601 95.5572 70.2942 95.5572 65.2295C95.5572 60.2665 98.8795 56.9014 103.367 56.9014C107.717 56.9014 110.8 59.8922 110.8 64.7873C110.8 65.2584 110.8 65.4619 110.766 66.0397ZM98.2973 63.9043H108.169C107.964 60.4713 106.593 59.1109 103.338 59.1109C100.25 59.1046 98.6061 60.6333 98.3024 63.898L98.2973 63.9043Z" fill="#E80537"/>
<path d="M141.054 63.3879V73.2133H138.423V63.5588C138.423 60.7023 136.846 59.2729 134.481 59.2729C130.852 59.2729 129.31 62.0954 129.31 66.7543V73.2133H126.671V63.3201C126.671 60.7023 125.097 59.2729 122.699 59.2729C119.547 59.2729 117.56 61.6871 117.56 65.8361V73.2133H114.921V57.2329H117.56V61.1784C118.347 58.6662 120.061 56.895 123.452 56.895C126.638 56.895 128.624 58.4916 129.172 61.4171C130.058 58.528 131.982 56.895 135.031 56.895C138.896 56.895 141.054 59.2729 141.054 63.3879Z" fill="#E80537"/>
<path d="M169.567 57.233V73.2134H166.928V69.9475C165.73 72.2248 163.606 73.5513 160.831 73.5513C156.206 73.5513 153.123 70.2201 153.123 65.2207C153.123 60.2213 156.206 56.8926 160.831 56.8926C163.606 56.8926 165.73 58.2178 166.928 60.4951V57.2292L169.567 57.233ZM167.065 65.2232C167.065 61.1785 165.284 59.2729 161.448 59.2729C157.612 59.2729 155.83 61.1785 155.83 65.2232C155.83 69.2679 157.611 71.1735 161.448 71.1735C165.286 71.1735 167.065 69.2704 167.065 65.2232Z" fill="#E80537"/>
<path d="M187.043 66.6184L189.716 67.3331C188.755 71.4118 185.981 73.453 182.316 73.5547L181.357 75.2555C183.002 75.3573 184.337 76.3773 184.337 78.009C184.337 79.7763 182.589 81.0011 180.705 81.0011C179.059 81.0011 177.414 80.0489 177.109 78.3155L179.026 77.4977C179.062 78.7915 179.849 79.2663 180.74 79.2663C181.597 79.2663 182.144 78.7915 182.144 78.0755C182.144 77.1247 180.979 76.4777 179.164 76.2064L180.81 73.4856C176.528 73.0108 173.684 69.814 173.684 65.2241C173.684 60.2272 177.076 56.896 182.008 56.896C185.846 56.896 188.722 58.9347 189.717 63.1176L187.044 63.8311C186.358 60.3277 184.818 59.2412 181.974 59.2412C178.177 59.2412 176.391 61.1455 176.391 65.2241C176.391 69.3028 178.171 71.2083 181.974 71.2083C184.817 71.207 186.357 70.1192 187.043 66.6184Z" fill="#E80537"/>
<path d="M209.109 65.2233C209.109 70.2227 205.41 73.5539 200.785 73.5539C196.16 73.5539 192.465 70.2227 192.465 65.2233C192.465 60.2239 196.164 56.8952 200.789 56.8952C205.413 56.8952 209.109 60.2264 209.109 65.2233ZM206.403 65.2233C206.403 61.1786 204.588 59.273 200.785 59.273C196.982 59.273 195.168 61.1786 195.168 65.2233C195.168 69.268 196.983 71.1736 200.785 71.1736C204.587 71.1736 206.403 69.2705 206.403 65.2233ZM198.627 51.4197C198.216 51.4197 197.908 52.0641 197.908 53.4597H196.263C196.263 49.9576 197.496 49.3145 198.694 49.3145C201.226 49.3145 202.365 52.1696 203.662 52.1696C204.176 52.1696 204.381 51.3883 204.381 50.1598H205.991C205.991 53.1519 205.033 54.2736 203.559 54.2736C201.198 54.2761 199.861 51.4197 198.627 51.4197Z" fill="#E80537"/>
<path d="M227.065 66.0397H214.561C214.734 69.8081 216.274 71.3154 219.802 71.3154C222.441 71.3154 223.503 70.671 224.256 68.562L226.723 69.5141C225.593 72.3354 222.818 73.5601 219.802 73.5601C214.973 73.5601 211.856 70.2942 211.856 65.2295C211.856 60.2665 215.178 56.9014 219.666 56.9014C224.017 56.9014 227.1 59.8922 227.1 64.7873C227.1 65.2584 227.1 65.4619 227.065 66.0397ZM214.596 63.9043H224.467C224.262 60.4713 222.893 59.1109 219.638 59.1109C216.548 59.1046 214.904 60.6333 214.596 63.898V63.9043Z" fill="#E80537"/>
<path d="M229.777 68.6283L232.38 67.7779C232.826 70.363 234.128 71.2473 236.8 71.2473C239.231 71.2473 240.397 70.5665 240.397 69.0704C240.397 67.7113 239.917 67.2352 237.964 66.8597L234.813 66.2416C232.483 65.7995 230.325 64.6438 230.325 61.6857C230.325 58.7966 232.689 56.8936 236.252 56.8936C239.335 56.8936 242.041 58.1158 242.725 61.9583L240.122 62.673C239.78 59.647 238.477 59.2048 236.354 59.2048C234.06 59.2048 232.997 59.9183 232.997 61.4834C232.997 62.7747 233.477 63.3865 234.949 63.659L238.992 64.4391C241.356 64.8813 243 66.0721 243 68.622C243 71.5802 240.469 73.5523 236.628 73.5523C233.134 73.5535 230.531 71.9218 229.777 68.6283Z" fill="#E80537"/>
<path d="M146.372 57.2327H149.011V73.2131H146.372V57.2327ZM146.358 52.7383C146.176 52.5683 146.032 52.3628 145.934 52.1348C145.836 51.9067 145.787 51.6609 145.79 51.4131C145.786 51.162 145.834 50.9127 145.932 50.6812C146.029 50.4496 146.175 50.2407 146.358 50.0677C146.533 49.8903 146.743 49.75 146.974 49.6552C147.205 49.5604 147.453 49.5132 147.704 49.5163C147.952 49.5127 148.198 49.5598 148.428 49.6546C148.657 49.7495 148.864 49.8901 149.036 50.0677C149.216 50.2425 149.359 50.452 149.455 50.6833C149.55 50.9147 149.598 51.163 149.593 51.4131C149.591 51.9099 149.391 52.3859 149.038 52.7374C148.684 53.0889 148.204 53.2874 147.704 53.2897C147.453 53.2925 147.205 53.2452 146.974 53.1504C146.743 53.0556 146.533 52.9154 146.358 52.7383Z" fill="#E80537"/>
<path d="M31.9937 9.36441L28.3715 8.49769L29.3447 6.90115C29.7827 6.18139 29.77 5.21794 29.179 4.61752C29.1686 4.60852 29.1589 4.59887 29.1498 4.58863C28.5436 3.99699 27.5653 3.9882 26.8401 4.4291L25.0606 5.50936L24.0924 1.52242C23.8912 0.693381 23.1862 0.00628063 22.3269 0H22.2851C21.4295 0.00879288 20.7271 0.688357 20.5221 1.50735L19.545 5.4453L17.8655 4.42659C17.1403 3.98569 16.162 3.99448 15.557 4.58611L15.5279 4.615C14.9356 5.21543 14.923 6.17888 15.3609 6.89864L16.3088 8.46L12.6195 9.3619C11.7893 9.56539 11.1008 10.2625 11.1008 11.1117V11.1506C11.1008 12.0048 11.8019 12.7057 12.6385 12.9092L16.5873 13.8463L15.3723 15.841C14.9343 16.5595 14.947 17.5242 15.5393 18.1246L15.5684 18.1535C16.1734 18.7452 17.1517 18.754 17.8769 18.3131L19.6855 17.2152L20.5373 20.7487C20.7372 21.579 21.4435 22.2686 22.3028 22.2749H22.337C23.1976 22.2673 23.9026 21.5802 24.1089 20.7499L24.9745 17.17L26.8565 18.3131C27.5817 18.754 28.5601 18.7452 29.1663 18.1535L29.1954 18.1246C29.7865 17.5242 29.7991 16.5595 29.3612 15.841L28.1373 13.8312L32.0076 12.9079C32.8442 12.7095 33.5378 12.0086 33.5441 11.1556V11.1205C33.5213 10.2638 32.829 9.56414 31.9937 9.36441Z" fill="#59D359"/>
<path d="M11.4159 73.6529C8.35943 73.6529 5.98638 70.9422 6.55591 68.0003C8.39234 58.4965 14.7496 51.4873 22.3091 51.4873C29.8687 51.4873 36.2247 58.4952 38.0586 68.0003C38.6281 70.9447 36.2551 73.6529 33.1986 73.6529H11.4159Z" fill="#E80537"/>
<path d="M36.4639 24.1364C37.7295 23.8663 39.061 23.8676 40.2962 24.262C43.8602 25.4051 45.1056 28.9097 44.45 32.2736C41.8757 45.4993 32.9683 55.2532 22.3737 55.2532C11.7792 55.2532 2.72615 45.4453 0.153132 32.2196C-0.473352 29.0001 0.832773 25.6877 4.05126 24.4203C5.39915 23.8877 6.89259 23.84 8.30882 24.1565C10.9476 24.7469 17.4213 26.0721 22.4167 26.0721C26.8958 26.0721 33.7416 24.7155 36.4639 24.1364Z" fill="#FF7500"/>
</g>
<defs>
<clipPath id="clip0_246_1732">
<rect width="243" height="81" fill="white"/>
</clipPath>
</defs>
</svg>
