<svg width="239" height="81" viewBox="0 0 239 81" fill="none" xmlns="http://www.w3.org/2000/svg">
<g clip-path="url(#clip0_246_1703)">
<path d="M73.0458 36.6282C70.7835 34.4168 69.6524 31.313 69.6524 27.3166C69.6524 24.7758 70.1715 22.5422 71.2097 20.616C72.2109 18.7264 73.748 17.1771 75.6267 16.164C77.5323 15.1223 79.7507 14.601 82.2821 14.6001C89.1928 14.6001 93.1611 17.9544 94.1869 24.663H87.7864C87.5589 23.0929 87.0044 21.9153 86.1229 21.1302C85.2414 20.3451 83.9898 19.9526 82.3684 19.9526C80.4327 19.9526 78.8913 20.6089 77.7443 21.9215C76.5972 23.2341 76.0175 25.0324 76.0051 27.3166C76.0051 29.5714 76.5737 31.3476 77.7111 32.6451C78.8484 33.9426 80.4269 34.5918 82.4467 34.5927C84.0974 34.5927 85.3989 34.1788 86.3512 33.3511C87.3036 32.5234 87.8789 31.3245 88.0772 29.7544H94.4776C94.3687 31.6152 93.8125 33.422 92.8566 35.0203C91.9166 36.562 90.558 37.768 88.7808 38.6383C87.0035 39.5087 84.8793 39.9438 82.4082 39.9438C78.428 39.9429 75.3072 38.8377 73.0458 36.6282Z" fill="white"/>
<path d="M123.638 15.2422V39.303H117.451V31.7286C117.223 34.5536 116.392 36.6303 114.956 37.9589C113.521 39.2875 111.579 39.95 109.131 39.9465C106.883 39.9465 104.921 39.4465 103.243 38.4465C101.564 37.4465 100.263 35.998 99.3394 34.1011C98.4136 32.2041 97.9511 29.928 97.952 27.2726C97.952 24.6474 98.4424 22.3784 99.423 20.4654C100.404 18.5525 101.74 17.0996 103.431 16.1067C105.159 15.0975 107.128 14.5794 109.127 14.6081C111.516 14.6081 113.437 15.2715 114.887 16.5983C116.338 17.9251 117.188 19.9872 117.439 22.7847V15.2462L123.638 15.2422ZM115.984 32.6677C117.107 31.3551 117.669 29.5714 117.67 27.3166C117.67 25.0075 117.108 23.1945 115.984 21.8775C114.86 20.5605 113.302 19.9037 111.312 19.9073C109.206 19.9073 107.506 20.5569 106.21 21.8562C104.914 23.1554 104.267 24.9605 104.268 27.2713C104.268 29.5545 104.922 31.3529 106.231 32.6664C107.54 33.9799 109.231 34.6366 111.304 34.6366C113.293 34.6366 114.85 33.9803 115.975 32.6677H115.984Z" fill="white"/>
<path d="M122 50.2774V44.0683C123.188 44.4335 124.424 44.6211 125.667 44.6252C127.204 44.6252 128.3 44.2828 128.953 43.5981C129.606 42.9134 129.933 41.7003 129.934 39.9587V15H136.122V40.2585C136.122 42.8836 135.773 44.9671 135.076 46.5088C134.445 47.9824 133.288 49.1661 131.832 49.8271C130.369 50.4985 128.415 50.8342 125.97 50.8342C124.375 50.8342 123.051 50.6486 122 50.2774Z" fill="white"/>
<path d="M163.6 15.2422V39.3031H157.414V31.1265H157.372C157.372 33.1522 157.031 34.8218 156.349 36.1353C155.666 37.4487 154.777 38.4123 153.682 39.026C152.594 39.6364 151.366 39.9527 150.12 39.9438C147.53 39.9438 145.588 39.2231 144.294 37.7818C143 36.3404 142.353 34.0927 142.352 31.0386V15.2422H148.541V29.464C148.541 31.1762 148.889 32.4249 149.585 33.2099C150.28 33.995 151.342 34.3875 152.771 34.3875C153.383 34.3907 153.989 34.2668 154.551 34.0235C155.112 33.7803 155.618 33.423 156.036 32.9741C156.96 32.0328 157.422 30.7486 157.423 29.1216V15.2422H163.6Z" fill="white"/>
<path d="M130.573 10.2345C130.224 9.90519 129.947 9.50676 129.759 9.06444C129.572 8.62212 129.478 8.14555 129.483 7.66487C129.474 7.17763 129.567 6.69392 129.755 6.24444C129.942 5.79496 130.221 5.38954 130.573 5.0539C130.909 4.71077 131.311 4.43947 131.755 4.25633C132.198 4.07318 132.674 3.98197 133.154 3.9882C133.631 3.98091 134.104 4.07171 134.544 4.255C134.984 4.4383 135.382 4.71019 135.714 5.0539C136.059 5.39322 136.331 5.79997 136.514 6.24903C136.697 6.69809 136.786 7.17995 136.776 7.66487C136.772 8.62868 136.389 9.55192 135.71 10.2336C135.031 10.9152 134.111 11.3 133.15 11.3042C132.671 11.3092 132.196 11.217 131.753 11.0332C131.31 10.8494 130.909 10.5777 130.573 10.2345Z" fill="#59D359"/>
<path d="M87.5395 71.7255C87.5395 77.2246 84.1859 80.8892 79.1542 80.8892C76.1352 80.8892 73.8238 79.4239 72.5161 76.9262V80.5149H69.6524V54.3359H72.5227V66.5276C73.8265 64.0218 76.1378 62.5645 79.1608 62.5645C84.1885 62.5645 87.5395 66.2305 87.5395 71.7255ZM84.5961 71.7255C84.5961 67.2762 82.6578 65.1808 78.4824 65.1808C74.3071 65.1808 72.3754 67.2762 72.3754 71.7255C72.3754 76.1748 74.3137 78.2703 78.4824 78.2703C82.6512 78.2703 84.5988 76.1775 84.5988 71.7255H84.5961Z" fill="white"/>
<path d="M107.079 72.6248H93.4753C93.6625 76.7757 95.334 78.4209 99.1774 78.4209C102.048 78.4209 103.203 77.7122 104.023 75.3916L106.706 76.44C105.477 79.5439 102.458 80.8907 99.1774 80.8907C93.9227 80.8907 90.5306 77.2939 90.5306 71.727C90.5306 66.2652 94.1458 62.5659 99.0274 62.5659C103.76 62.5659 107.115 65.8576 107.115 71.2407C107.117 71.7643 107.117 71.9881 107.079 72.6248ZM93.5138 70.2683H104.248C104.025 66.4917 102.534 64.9957 98.9929 64.9957C95.638 64.9957 93.8484 66.6769 93.5138 70.2683Z" fill="white"/>
<path d="M127.249 69.4452V80.5152H124.378V69.633C124.378 66.753 122.664 65.1811 120.054 65.1811C116.626 65.1811 114.464 67.836 114.464 72.4012V80.5152H111.593V62.9311H114.464V67.2698C115.321 64.5017 117.185 62.5581 120.875 62.5581C124.978 62.5648 127.249 65.0319 127.249 69.4452Z" fill="white"/>
<path d="M148.088 72.6248H134.486C134.671 76.7757 136.344 78.4209 140.186 78.4209C143.057 78.4209 144.213 77.7122 145.034 75.3916L147.715 76.44C146.486 79.5439 143.467 80.8907 140.186 80.8907C134.932 80.8907 131.541 77.2939 131.541 71.727C131.541 66.2652 135.156 62.5659 140.038 62.5659C144.772 62.5659 148.126 65.8576 148.126 71.2407C148.126 71.7643 148.126 71.9881 148.088 72.6248ZM134.521 70.2696H145.257C145.034 66.493 143.541 64.9971 140.002 64.9971C136.647 64.9957 134.857 66.6769 134.521 70.2683V70.2696Z" fill="white"/>
<path d="M162.481 65.5552H156.816V80.515H153.946V65.5552H150.181V62.9376H153.946V58.6375C153.946 57.4971 154.397 56.4033 155.201 55.5969C156.005 54.7904 157.095 54.3374 158.231 54.3374H162.152V56.9564H158.294C157.904 56.9564 157.53 57.1119 157.254 57.3887C156.978 57.6655 156.823 58.0409 156.823 58.4324V62.9389H162.488L162.481 65.5552Z" fill="white"/>
<path d="M166.212 62.9378H169.081V80.5219H166.212V62.9378ZM168.746 59.5702H166.771L169.379 53.585H173.927L168.746 59.5702Z" fill="white"/>
<path d="M188.092 73.2588L191 74.0461C189.918 78.6446 186.787 80.8892 182.613 80.8892C177.246 80.8892 173.556 77.2245 173.556 71.7255C173.556 66.2265 177.246 62.5645 182.613 62.5645C186.787 62.5645 189.915 64.8078 191 69.4076L188.092 70.1935C187.346 66.3397 185.669 65.1448 182.576 65.1448C178.439 65.1448 176.501 67.2389 176.501 71.7255C176.501 76.2121 178.439 78.3075 182.576 78.3075C185.669 78.3075 187.346 77.1113 188.092 73.2588Z" fill="white"/>
<path d="M195.475 62.9377H198.346V80.5218H195.475V62.9377ZM195.459 57.9929C195.261 57.8063 195.104 57.5803 194.998 57.3294C194.891 57.0785 194.838 56.8081 194.842 56.5355C194.837 56.2594 194.889 55.9852 194.995 55.7304C195.102 55.4756 195.26 55.2457 195.459 55.0555C195.649 54.8609 195.877 54.7068 196.128 54.6026C196.379 54.4985 196.648 54.4464 196.92 54.4494C197.19 54.4455 197.458 54.4973 197.708 54.6016C197.957 54.7058 198.183 54.8603 198.371 55.0555C198.567 55.2477 198.722 55.4782 198.826 55.7327C198.93 55.9872 198.981 56.2604 198.976 56.5355C198.974 57.0822 198.756 57.6057 198.371 57.9924C197.986 58.379 197.464 58.5975 196.92 58.6003C196.648 58.6025 196.38 58.5498 196.129 58.4454C195.879 58.3411 195.652 58.1872 195.462 57.9929H195.459Z" fill="white"/>
<path d="M220.936 71.7255C220.936 77.2245 216.911 80.8892 211.879 80.8892C206.848 80.8892 202.822 77.2245 202.822 71.7255C202.822 66.2265 206.848 62.5645 211.879 62.5645C216.911 62.5645 220.936 66.2305 220.936 71.7255ZM217.992 71.7255C217.992 67.2762 216.016 65.1808 211.885 65.1808C207.753 65.1808 205.778 67.2762 205.778 71.7255C205.778 76.1748 207.753 78.2702 211.885 78.2702C216.016 78.2702 217.992 76.1775 217.992 71.7255Z" fill="white"/>
<path d="M223.849 75.4661L226.682 74.5336C227.166 77.3777 228.582 78.3502 231.49 78.3502C234.136 78.3502 235.403 77.6015 235.403 75.9523C235.403 74.4564 234.882 73.9328 232.756 73.5212L229.33 72.8485C226.794 72.3609 224.447 71.0901 224.447 67.8357C224.447 64.6572 227.018 62.5645 230.895 62.5645C234.248 62.5645 237.193 63.9099 237.939 68.1367L235.106 68.9214C234.734 65.5911 233.316 65.1075 231.006 65.1075C228.509 65.1075 227.354 65.8921 227.354 67.6132C227.354 69.0346 227.876 69.706 229.478 70.011L233.877 70.8689C236.448 71.3565 238.238 72.666 238.238 75.4701C238.238 78.7245 235.479 80.8932 231.304 80.8932C227.501 80.8839 224.67 79.0948 223.849 75.4661Z" fill="white"/>
<path d="M0 31.0613L0 54.7026C0 57.3629 2.14934 59.5195 4.80068 59.5195H43.7332C46.3846 59.5195 48.5339 57.3629 48.5339 54.7026V31.0613C48.5339 28.401 46.3846 26.2443 43.7332 26.2443H4.80068C2.14934 26.2443 0 28.401 0 31.0613Z" fill="#FF7500"/>
<path d="M30.0096 0C28.5147 0 27.0185 1.18959 26.3042 2.89738C25.4944 4.83163 23.0197 4.76236 22.2311 2.89738C21.5088 1.19225 20.0206 0 18.5243 0C12.2553 0 11.476 6.99767 13.6905 10.2574C14.5919 11.5828 18.6027 16.918 21.4185 20.648C21.7514 21.09 22.1818 21.4485 22.6761 21.6954C23.1703 21.9422 23.7149 22.0707 24.267 22.0707C24.8191 22.0707 25.3636 21.9422 25.8579 21.6954C26.3521 21.4485 26.7826 21.09 27.1154 20.648C29.9299 16.918 33.942 11.5895 34.8435 10.2574C37.0593 6.99767 36.28 0 30.0096 0Z" fill="#59D359"/>
<path d="M38.2435 51.6121C35.879 49.3115 32.4351 48.756 30.5154 48.9865C28.4788 49.2303 26.5976 49.9416 24.7708 51.6401C23.6622 52.6698 22.6851 54.2111 20.7507 55.1156C18.8164 56.0201 17.0135 55.7817 15.5146 55.9748C13.0439 56.2892 11.2927 57.2803 9.79784 58.6884C8.38791 60.0205 6.60093 63.0231 6.84123 66.3188C7.06958 69.4559 8.39853 71.6753 11.0179 74.2143C16.6563 79.676 22.701 83.4406 31.9187 79.1219C41.1364 74.8031 42.1414 67.7415 41.5918 59.8953C41.3382 56.2492 40.4925 53.8021 38.2435 51.6121Z" fill="white"/>
</g>
<defs>
<clipPath id="clip0_246_1703">
<rect width="238.235" height="81" fill="white"/>
</clipPath>
</defs>
</svg>
