<svg width="93" height="96" viewBox="0 0 93 96" fill="none" xmlns="http://www.w3.org/2000/svg">
<path d="M77.2815 6.91447L79.0704 15.4139L80.9863 23.8168L82.643 32.2706L84.3963 40.7091L86.5256 49.0613L87.8978 57.581L90.0982 65.9231L91.7804 74.3819L88.4822 81.222L79.9089 82.3992L71.361 84.1549L62.803 85.8396L54.2195 87.438L45.6361 89.0465L37.1034 90.8935L28.5607 92.6949L19.9518 94.2273L15.1849 91.1016L12.8167 81.8157L10.9618 72.3674L9.08654 62.9293L7.24178 53.4861L4.81768 44.1596L3.19653 34.6605L1.2044 25.3087L5.21916 17.4537L14.5547 15.5712L23.7734 13.3639L33.0989 11.6589L42.3989 9.82202L51.6328 7.67561L60.8617 5.50383L70.1871 3.47412L77.2815 6.91447Z" fill="white"/>
<path d="M8.84768 41.9778L77.6525 28.4346L86.4087 71.9768L84.5691 76.8633L24.2308 89.9194L17.5277 88.3312L8.84768 41.9778Z" fill="#E80537"/>
<path d="M34.6489 57.815L18.412 49.686L18.5899 55.0851L34.6489 57.815Z" fill="#FF7500"/>
<path d="M36.0007 54.496L25.5826 42.5715L30.3902 39.5776L36.0007 54.496Z" fill="#FF7500"/>
<path d="M34.3135 62.2041C33.7392 62.3918 20.5312 64.1729 20.5312 64.1729L21.7254 69.44L34.3135 62.2041Z" fill="#FF7500"/>
<path d="M49.3663 48.2447C49.4323 48.1432 49.5086 48.0367 49.5899 47.9301C49.5695 47.8692 49.5492 47.8032 49.5238 47.7373C49.0715 46.626 48.3346 46.5397 47.1709 46.489C46.7999 46.4738 46.4441 46.4586 46.1087 46.3824C45.0974 46.1592 44.8891 45.119 44.7061 44.2005C44.5587 43.4495 44.3707 42.5209 43.8777 42.2317C43.4458 41.9831 42.6631 41.775 42.1143 41.9526C40.9505 42.3332 40.0459 43.0842 39.7105 44.2157C39.4259 45.19 39.243 46.1389 39.4717 47.1639C39.7359 48.336 40.173 49.6807 40.6507 50.2643C40.9658 50.6499 41.8399 51.2233 42.2058 51.5125C42.5107 51.7561 42.8207 51.9692 43.1256 52.1519C43.1815 52.1367 43.2425 52.1214 43.2882 52.1113L49.3663 48.2447Z" fill="#59D359"/>
<path d="M49.9659 50.3301L46.19 52.7353L49.8846 51.761C49.9303 51.3957 49.971 50.8933 49.9659 50.3301Z" fill="black"/>
<path d="M55.8966 49.8735C55.2715 49.0413 54.7176 48.4476 54.2805 48.2243C52.9491 47.5342 51.9174 48.4019 51.3889 49.021C51.1907 49.2595 51.0586 49.4574 51.023 49.5233L50.8959 49.7365L50.6825 49.8735C50.6825 49.8735 43.4356 54.1967 42.9223 54.42C42.6174 54.5519 42.2566 54.7397 41.8805 55.0035C41.0166 55.6023 40.051 56.5867 39.3853 58.2054C38.9686 59.2203 39.5123 61.2043 40.8692 62.8839C42.5107 64.9186 46.9371 68.3083 46.9371 68.3083C46.9371 68.3083 50.22 71.3528 51.0281 72.4387C52.0648 73.8341 53.9604 74.3872 56.0287 74.2908C58.092 74.1944 59.3269 74.3872 61.0396 73.1998C61.0751 73.1745 62.1169 72.2154 62.1525 72.1901C64.8104 70.3024 64.1142 67.2071 63.0927 63.9342C63.0114 63.6805 62.0407 59.956 62.0407 59.956C62.0407 59.956 60.9379 58.4794 59.2405 55.3334C58.1225 53.258 56.9232 51.2435 55.8966 49.8785V49.8735Z" fill="#FF7500"/>
<path d="M66.0859 68.0192C66.0097 66.2889 65.3846 65.3146 64.9832 64.0207C64.9069 63.7771 63.7482 60.418 63.6873 60.1998C63.0317 57.9874 58.5646 48.0875 55.241 46.3724C53.3759 45.4083 51.7649 45.9766 50.6317 46.8697C49.661 44.8958 48.3041 44.4543 47.2623 44.4087C47.1302 44.4036 46.9981 44.3985 46.8812 44.3884C46.8354 44.2159 46.7897 43.9824 46.7541 43.7896C46.5356 42.6936 46.0274 41.4656 44.7264 40.7045C43.8422 40.192 42.8969 39.8875 41.5044 40.3391C39.6902 40.9328 38.4553 42.1912 37.9267 43.9824C37.134 46.6718 38.13 50.0766 39.5479 51.812C39.9646 52.3245 40.4372 52.7609 40.9149 53.1415C39.7105 53.9128 38.3536 55.2169 37.449 57.4089C36.7071 59.2154 37.6218 61.3009 39.2887 63.4575C40.9302 65.5836 43.2933 67.7757 45.509 69.8307C47.1251 71.3276 48.6548 72.7434 49.3459 73.677C50.1997 74.8289 53.193 75.5393 53.193 75.5393C53.193 75.5393 54.9158 76.407 56.0135 76.3664C58.5036 76.2751 61.1869 75.3769 63.2299 73.9663C63.2705 73.9358 63.3163 73.9054 63.3569 73.88C65.6082 72.2765 66.1774 70.1149 66.0859 68.0141V68.0192ZM40.6507 50.2644C40.173 49.6808 39.7359 48.3362 39.4717 47.164C39.243 46.139 39.4259 45.1901 39.7105 44.2209C40.0459 43.0894 40.9505 42.3384 42.1143 41.9578C42.6631 41.7802 43.4458 41.9883 43.8777 42.2369C44.3707 42.5261 44.5587 43.4547 44.7061 44.2057C44.889 45.1241 45.0974 46.1644 46.1087 46.3876C46.4492 46.4638 46.7999 46.479 47.1708 46.4942C48.3346 46.5449 49.0715 46.6312 49.5238 47.7425C49.5492 47.8034 49.5645 47.8693 49.5899 47.9353C49.5086 48.0419 49.4323 48.1484 49.3663 48.2499L43.2882 52.1165C43.2425 52.1266 43.1866 52.1419 43.1256 52.1571C42.8207 51.9744 42.5107 51.7613 42.2058 51.5177C41.8399 51.2234 40.9658 50.6551 40.6507 50.2695V50.2644ZM62.1474 72.1903C62.1118 72.2156 61.07 73.1747 61.0345 73.2C59.3168 74.3874 58.0869 74.1895 56.0236 74.2859C53.9604 74.3823 52.0648 73.8343 51.023 72.4338C50.2149 71.3479 46.932 68.3034 46.932 68.3034C46.932 68.3034 42.5056 64.9087 40.8641 62.879C39.5072 61.1994 38.9635 59.2205 39.3802 58.2005C40.0459 56.5869 41.0115 55.5974 41.8754 54.9987C42.2566 54.7348 42.6123 54.5521 42.9172 54.4151C43.4305 54.1919 43.7913 54.1259 43.8422 54.1157L44.0556 54.0853L46.1799 52.7305L49.9558 50.3253L50.6774 49.8686L50.8908 49.7316L51.0179 49.5185C51.0586 49.4525 51.1856 49.2546 51.3838 49.0161C51.9072 48.397 52.944 47.5293 54.2754 48.2194C54.7074 48.4427 55.2664 49.0364 55.8915 49.8686C56.913 51.2386 58.1123 53.248 59.2354 55.3234C60.9328 58.4745 62.0356 59.9461 62.0356 59.9461C62.0356 59.9461 63.0063 63.6706 63.0876 63.9243C64.1091 67.1972 64.8053 70.2925 62.1474 72.1801V72.1903Z" fill="black"/>
<path d="M40.5084 58.1545L40.5236 60.1233C40.6202 60.2502 43.4813 63.7717 43.4813 63.7717C43.4813 63.7717 47.9179 67.7905 48.0653 67.9123L44.4215 62.9395C44.4215 62.9395 40.5338 58.1799 40.5135 58.1494L40.5084 58.1545Z" fill="black"/>
<path d="M43.5474 56.2925L41.7535 57.4088L44.386 58.6774L43.5474 56.2925Z" fill="black"/>
<path d="M47.425 59.4536L47.5317 62.5337L50.4589 60.2249L47.425 59.4536Z" fill="black"/>
<path d="M50.713 68.9727L51.9936 68.3435L50.3674 66.0195L50.713 68.9727Z" fill="black"/>
<path d="M44.142 45.5146C44.142 45.5146 44.7874 46.8644 45.5853 46.9101C46.3832 46.9557 46.7186 47.042 46.3984 47.3515C46.0782 47.6611 44.9958 47.996 44.4825 47.4632C43.9692 46.9304 43.9032 46.1794 43.9032 46.1794L44.1471 45.5146H44.142Z" fill="black"/>
<path d="M91.2214 65.705L89.0158 57.3477L87.6488 48.8838L85.5143 40.4757L83.7661 32.0525L82.1043 23.5632L80.1935 15.1805L78.2878 6.13313L70.3294 2.27161L60.5974 4.39266L57.0807 5.21469C56.7351 3.79897 56.4607 2.79426 56.4607 2.79426C56.4607 2.79426 54.6566 -0.432968 52.4104 0.0490867C48.7107 0.845746 48.67 4.47892 48.67 4.47892L49.2291 7.05157L42.1702 8.7007L32.8854 10.5325L26.4263 11.7148C25.8926 9.5684 25.3997 7.78226 25.1049 7.37125C24.5103 6.53399 19.6774 5.92508 19.032 8.68548C18.7474 9.89823 18.91 11.6742 19.1794 13.2929L14.321 14.4549L4.44672 16.444L0 25.1515L2.06836 34.8585L3.68951 44.3525L6.12378 53.7399L11.6885 82.0339L14.1838 91.8171L19.7028 95.43L28.7944 93.8113L37.3423 92.0099L45.8445 90.168L63.0215 86.9611L71.5897 85.2713L80.102 83.5258L89.2445 82.2674L92.9798 74.5342L91.2214 65.705ZM4.31459 34.4272L2.40377 25.4661L5.98656 18.4636L14.819 16.6825L19.6317 15.5307C19.8603 16.5049 20.0484 17.1646 20.0484 17.1646C20.0484 17.1646 20.6989 21.4422 22.4369 22.4469C24.1749 23.4516 28.9723 22.0003 28.0423 18.3367C27.7222 17.0885 27.3512 15.5104 26.9751 13.9475L33.3174 12.7855L42.653 10.9435L49.7118 9.29439L50.2709 11.8772C50.2709 11.8772 52.1664 16.1599 54.5448 15.6474C56.9232 15.1349 58.712 14.4701 58.2343 10.9841C58.0818 9.86778 57.843 8.62459 57.5889 7.45751L61.1005 6.63548L70.0397 4.68696L76.2753 7.71122L77.9524 15.6829L78.8519 19.6256L4.40099 34.9397L4.31459 34.4272ZM87.7199 80.1768L79.7565 81.2728L71.1425 83.0387L62.5946 84.7233L45.3973 87.9353L36.8748 89.7823L28.3676 91.5736L20.2059 93.0248L16.1912 90.3963L13.9348 81.5671L10.2148 62.7162L8.37001 53.268L5.94591 43.9212L4.79738 37.1927L79.3753 21.838L79.8784 24.0351L81.5351 32.5041L83.2986 40.9882L85.4127 49.2948L86.7797 57.7638L88.9955 66.1819L90.5963 74.2297L87.7301 80.1717L87.7199 80.1768Z" fill="black"/>
</svg>
