<svg width="100" height="100" viewBox="0 0 100 100" fill="none" xmlns="http://www.w3.org/2000/svg">
<path d="M29.5697 65.8938L8.65342 53.7396C7.88484 53.2923 7.28378 52.6076 6.93984 51.787L6.47915 50.6839C5.98543 49.5037 6.07375 48.1631 6.71736 47.0563L25.7586 14.3161C26.2501 13.472 27.0285 12.8312 27.9534 12.5104L29.2025 12.0787C30.325 11.6895 31.5632 11.809 32.5904 12.4074L91.6176 46.7017C92.5051 47.2188 93.166 48.0473 93.4689 49.0282L93.498 49.1214C93.8362 50.2229 93.6956 51.4151 93.1076 52.4081C88.9487 59.403 73.0376 86.9893 71.7629 87.7661C71.6187 87.8539 71.2325 87.9714 70.8084 88.1292C69.6648 88.5521 68.3916 88.4435 67.3379 87.83L29.5697 65.8938Z" fill="#E80537"/>
<path d="M54.0111 24.8542C54.0111 24.8542 47.4262 25.7279 44.4396 30.8672C41.4505 36.008 43.2278 41.6226 45.5415 44.3436C47.8552 47.0647 55.0284 48.1355 55.0284 48.1355C55.0284 48.1355 58.773 47.2167 58.9023 43.052C59.0317 38.8873 52.8164 36.7646 54.0263 35.8643C55.2387 34.9624 60.7025 34.2412 60.7025 34.2412L64.2922 30.8258L54.0111 24.8542Z" fill="#59D359"/>
<path d="M49.4342 53.0255C48.9202 52.7283 43.2313 45.7549 36.0691 45.26C28.9069 44.7652 26.5636 47.4141 24.1071 50.4579C21.6491 53.4993 21.7309 61.3402 21.7309 61.3402L59.4258 83.2413C59.4258 83.2413 68.4803 73.4886 68.9071 67.4328C69.3338 61.3769 66.7367 55.9879 60.7237 53.5199C54.7091 51.0493 49.4342 53.0255 49.4342 53.0255Z" fill="#FF7500"/>
<path d="M72.0989 88.3347C71.9396 88.4318 71.711 88.5121 71.3974 88.6234C71.2839 88.6649 71.1572 88.7074 71.0295 88.754C69.6923 89.2462 68.2209 89.1197 66.9954 88.4063L8.31901 54.3179C7.42907 53.8023 6.72202 52.9949 6.32488 52.0472L5.86419 50.9441C5.2925 49.579 5.39698 48.0031 6.1405 46.7245L25.1818 13.9842C25.7521 13.002 26.6598 12.2546 27.7346 11.884L28.9838 11.4523C30.2922 10.9983 31.7277 11.1398 32.9237 11.8331L91.9509 46.1274C92.9862 46.7278 93.7502 47.6913 94.104 48.8353L94.1331 48.9286C94.5274 50.2075 94.3612 51.6025 93.6773 52.7511C92.7568 54.2971 91.2376 56.8982 89.4748 59.9078C78.7083 78.3031 73.0672 87.755 72.1061 88.3407L72.0989 88.3347ZM29.9055 65.318L67.663 87.2537C68.5474 87.7658 69.6066 87.8591 70.5683 87.502C70.7036 87.4507 70.8353 87.4051 70.9554 87.3632C71.1064 87.3093 71.3041 87.2409 71.3886 87.2032C72.6458 86.0105 82.8319 68.6036 88.3185 59.2285C90.0798 56.2163 91.6031 53.6162 92.5271 52.0646C93.0187 51.2378 93.1393 50.2348 92.8562 49.3148L92.8271 49.2215C92.572 48.3988 92.0222 47.7072 91.2801 47.2749L32.2529 12.9807C31.3935 12.4811 30.3576 12.3806 29.4186 12.7065L28.1719 13.1367C27.3997 13.4062 26.7481 13.942 26.3354 14.6478L7.28902 47.3912C6.75333 48.3107 6.68086 49.444 7.09143 50.4251L7.55212 51.5283C7.8367 52.2116 8.34663 52.7923 8.98768 53.1612L29.9065 65.3139L29.9055 65.318Z" fill="black"/>
<path d="M36.4757 34.9362C35.6792 36.2644 34.4608 38.4429 33.7137 39.7895C33.3464 40.4504 32.5149 40.6796 31.8586 40.3026L24.1341 35.8912C23.4808 35.5192 23.2567 34.6847 23.6342 34.0349L26.4958 29.1174C26.8724 28.4718 27.7019 28.2507 28.3501 28.6257L35.9961 33.0677C36.6514 33.4487 36.8665 34.2854 36.4783 34.9347L36.4757 34.9362Z" fill="#A6A6A6"/>
<path d="M91.2771 48.1577L92.0712 49.9561C92.0712 49.9561 91.5837 51.4498 91.5496 51.2971C91.5156 51.1445 70.748 37.2764 70.748 37.2764L91.2771 48.1577Z" fill="black"/>
<path d="M90.4169 53.3714L89.1877 55.2304L76.4415 43.876L90.4169 53.3714Z" fill="black"/>
</svg>
