<svg width="100" height="100" viewBox="0 0 100 100" fill="none" xmlns="http://www.w3.org/2000/svg">
<g clip-path="url(#clip0_261_289)">
<path d="M14.7897 58.8014L15.0105 76.3543L85.2087 76.5935L85.1502 28.6304C85.1502 28.6304 85.1552 28.5585 85.1602 28.4414L14.8281 27.1868L14.7897 58.8014Z" fill="#E80537"/>
<path d="M85.1502 26.409C85.0298 26.1681 85.1184 24.9687 83.7367 24.8483C83.3017 24.8115 76.3897 24.6291 67.3196 24.2695C65.4093 24.1942 63.3668 24.1775 61.249 24.1775C59.5778 24.1775 57.8598 24.1875 56.1251 24.1875C53.9471 24.1875 51.7423 24.1708 49.5677 24.0972C44.0591 23.9098 38.522 23.8145 33.634 23.6689C25.1144 23.4147 18.4331 23.3979 16.7703 23.3979C16.5077 23.3979 16.3705 23.3979 16.3705 23.3979C16.3705 23.3979 15.2866 23.4933 14.9854 24.0336C14.7446 24.4686 14.7881 25.7349 14.8148 26.2183L85.1586 28.4365C85.1853 27.9313 85.2439 26.6031 85.1469 26.409H85.1502Z" fill="#59D359"/>
<path d="M14.8181 26.2183C14.8248 26.3354 14.8298 26.409 14.8298 26.409V27.1868L85.1619 28.4431V28.4364L14.8181 26.2183Z" fill="#59D359"/>
<path d="M85.1619 28.4432L85.6436 28.4516L85.1635 28.4365V28.4432H85.1619Z" fill="black"/>
<path d="M87.298 76.592L87.2394 28.6941C87.3565 26.7068 87.2712 26.0912 87.1307 25.7215C86.6472 23.3545 84.9142 22.8543 83.9172 22.7673C83.7181 22.7506 83.2029 22.7322 80.886 22.6586C77.9787 22.5649 73.1125 22.4093 67.4031 22.1818C65.3121 22.0982 63.119 22.0881 61.2505 22.0881C60.4208 22.0881 59.5793 22.0915 58.7295 22.0931C57.868 22.0965 56.9999 22.0982 56.1266 22.0982C54.3267 22.0982 51.963 22.0881 49.6394 22.0095C46.3925 21.8991 43.1522 21.8205 40.0191 21.7452C37.8026 21.6917 35.7082 21.6415 33.6975 21.5813C25.2246 21.3287 18.6003 21.3086 16.7719 21.3086H16.3654H16.2767L16.1881 21.317C15.6762 21.3621 13.9398 21.6181 13.1603 23.0199C13.0114 23.2859 12.5647 24.0922 12.7387 26.486L12.7002 58.7982V58.8266L12.921 76.3795L12.9461 78.4354L15.002 78.4421L85.2003 78.6813L87.2996 78.688L87.2963 76.5886L87.298 76.592ZM85.2086 76.5953L15.0104 76.3561L14.7896 58.8032L14.8281 27.1886V26.4107C14.8281 26.4107 14.823 26.3388 14.8163 26.22C14.7896 25.7382 14.7444 24.4702 14.987 24.0353C15.2881 23.495 16.3721 23.3996 16.3721 23.3996C16.3721 23.3996 16.5092 23.3996 16.7719 23.3996C18.4347 23.3996 25.1159 23.4163 33.6356 23.6706C38.5236 23.8162 44.0606 23.9115 49.5692 24.0989C51.7439 24.1725 53.9486 24.1892 56.1266 24.1892C57.8614 24.1892 59.5793 24.1792 61.2505 24.1792C63.3666 24.1792 65.4108 24.1959 67.3212 24.2712C76.3912 24.6308 83.3033 24.8132 83.7382 24.85C85.12 24.9704 85.0313 26.1698 85.1517 26.4107C85.2488 26.6047 85.1885 27.933 85.1635 28.4382L85.6436 28.4532L85.1618 28.4448C85.1551 28.5619 85.1517 28.6339 85.1517 28.6339L85.2103 76.597L85.2086 76.5953Z" fill="black"/>
<path d="M19.5054 33.5203L19.855 39.7549L25.8654 39.3935L26.1665 33.6842L19.5054 33.5203Z" fill="#FFCB2E"/>
<path d="M19.7948 43.7812L20.0357 50.0325L26.287 49.6109L26.1064 43.7209L19.7948 43.7812Z" fill="#FFCB2E"/>
<path d="M20.0958 53.6994L20.3367 59.949L26.5864 59.5292L26.4057 53.6392L20.0958 53.6994Z" fill="#FFCB2E"/>
<path d="M20.5157 64.9374L20.7566 71.1887L27.008 70.7689L26.8273 64.8772L20.5157 64.9374Z" fill="#FFCB2E"/>
<path d="M30.8053 33.6406L31.1549 39.8752L37.1654 39.5139L37.4648 33.8046L30.8053 33.6406Z" fill="#FFCB2E"/>
<path d="M31.0946 43.9018L31.3355 50.1531L37.5851 49.7316L37.4062 43.8416L31.0946 43.9018Z" fill="#FFCB2E"/>
<path d="M31.3958 53.8181L31.635 60.0694L37.8863 59.6495L37.7056 53.7595L31.3958 53.8181Z" fill="#FFCB2E"/>
<path d="M31.8157 65.0578L32.0566 71.3091L38.3062 70.8876L38.1272 64.9976L31.8157 65.0578Z" fill="#FFCB2E"/>
<path d="M42.0449 34.1809L42.3945 40.4155L48.405 40.0559L48.7044 34.3448L42.0449 34.1809Z" fill="#FFCB2E"/>
<path d="M42.3344 44.4421L42.5736 50.6934L48.8249 50.2735L48.6442 44.3835L42.3344 44.4421Z" fill="#FFCB2E"/>
<path d="M17.9915 25.3601C17.9915 25.9405 17.5198 26.4123 16.9393 26.4123C16.3588 26.4123 15.8871 25.9405 15.8871 25.3601C15.8871 24.7796 16.3588 24.3079 16.9393 24.3079C17.5198 24.3079 17.9915 24.7796 17.9915 25.3601Z" fill="#FFAC66"/>
<path d="M19.9453 26.4123C20.5264 26.4123 20.9975 25.9412 20.9975 25.3601C20.9975 24.7789 20.5264 24.3079 19.9453 24.3079C19.3642 24.3079 18.8931 24.7789 18.8931 25.3601C18.8931 25.9412 19.3642 26.4123 19.9453 26.4123Z" fill="#FFAC66"/>
<path d="M66.075 64.2165L66.9766 68.9054L68.7649 67.8833L70.267 69.7619L71.7843 68.1543L70.2821 66.622L71.4246 65.5397L66.4112 63.1576C66.2105 63.0623 65.9813 63.2212 66.0014 63.4437L66.075 64.2182V64.2165Z" fill="#FFAC66"/>
<path d="M81.2943 74.4441L83.3987 74.143C83.3987 74.143 83.2181 59.8989 83.2181 60.5597C83.2181 61.2204 81.2943 74.4441 81.2943 74.4441Z" fill="black"/>
<path d="M77.2728 74.4439H79.6315L80.7088 63.686L77.2728 74.4439Z" fill="black"/>
</g>
<defs>
<clipPath id="clip0_261_289">
<rect width="74.5994" height="57.3828" fill="white" transform="translate(12.7003 21.3086)"/>
</clipPath>
</defs>
</svg>
