<svg width="100" height="100" viewBox="0 0 100 100" fill="none" xmlns="http://www.w3.org/2000/svg">
<g clip-path="url(#clip0_261_288)">
<path d="M28.053 16.2798C28.053 16.2798 29.5401 19.2685 31.8712 18.9177C34.2024 18.567 44.8687 13.4782 45.67 12.4409C46.4712 11.4036 45.5396 8.31714 45.5396 8.31714" fill="black"/>
<path d="M37.0995 15.4626C37.7211 15.4441 38.2099 14.9277 38.1912 14.3093C38.1726 13.6909 37.6535 13.2046 37.0319 13.2232C36.4103 13.2418 35.9215 13.7581 35.9402 14.3765C35.9588 14.9949 36.4779 15.4812 37.0995 15.4626Z" fill="white"/>
<path d="M15.1581 22.3315C15.1581 22.3315 13.0962 26.2257 13.5705 28.1771C14.0449 30.1284 29.0829 65.565 29.0829 65.565L39.7086 91.2215C39.9266 91.7466 40.2364 92.2291 40.6253 92.6436C41.8197 93.9084 44.5376 96.4336 46.8131 95.9383C49.8259 95.2815 51.9946 94.6141 51.9946 94.6141L19.0191 22.8651L15.1581 22.3315Z" fill="black"/>
<path d="M53.7467 4.9692C50.719 6.26372 50.7596 6.35724 47.732 7.65176C44.7043 8.94628 44.7299 9.0058 41.7044 10.3003C38.6767 11.5948 38.572 11.3504 35.5421 12.647C32.5145 13.9415 32.5572 14.0436 29.5295 15.3402C26.5018 16.6347 26.536 16.7155 23.5062 18.01C20.4785 19.3045 20.4721 19.2918 17.4444 20.5863C16.1624 21.1326 15.3547 23.2774 15.9102 24.5528C17.1858 27.4245 16.9935 27.5095 18.2756 30.3813C19.5576 33.253 19.7541 33.1659 21.0362 36.0355C22.3182 38.9072 22.1408 38.9859 23.4228 41.8555C24.2775 43.77 25.1336 45.6831 25.9911 47.5947C27.2732 50.4665 27.3052 50.4516 28.5851 53.3233C29.8671 56.1951 30.0273 56.1249 31.3094 58.9946C32.5914 61.8663 32.4909 61.911 33.773 64.7827C35.055 67.6544 35.1746 67.6013 36.4566 70.4709C37.7387 73.3427 37.6297 73.3916 38.9117 76.2633C40.1937 79.135 40.2129 79.1265 41.495 81.9983C42.777 84.87 42.8881 84.8211 44.1722 87.6929C45.4542 90.5646 45.2769 90.6433 46.5546 93.5172C47.1038 94.7777 48.593 95.3261 49.8665 94.7904C52.672 93.4385 52.6506 93.3981 55.439 92.0122C57.2979 91.0897 59.1554 90.1643 61.0115 89.2361C63.7999 87.8523 63.8746 87.9969 66.663 86.6131C68.5219 85.6905 70.3809 84.7659 72.2398 83.8391C75.0303 82.4532 74.9854 82.3681 77.776 80.9822C80.5665 79.5963 80.4917 79.4475 83.2972 78.0935C84.5599 77.5642 85.7351 74.1865 85.2309 72.9197C84.0685 70.1457 84.1198 70.1223 82.9467 67.3526C81.7737 64.5829 81.6754 64.6233 80.5024 61.8514C79.3293 59.0817 79.387 59.0562 78.2118 56.2865C77.0388 53.5168 77.2161 53.4424 76.041 50.6705C74.8679 47.9008 74.6008 48.0114 73.4256 45.2417C72.2526 42.4719 70.1736 36.8156 69.0006 34.0438C67.8275 31.274 67.5156 31.4037 66.3425 28.634C65.1673 25.8622 65.4387 25.7495 64.2657 22.9777C63.4822 21.1298 62.7016 19.2812 61.9239 17.4318C60.7487 14.66 60.5286 14.7535 59.3534 11.9817C58.1782 9.20986 58.2765 9.16947 57.1142 6.39125C56.5907 5.07973 55.0501 4.4059 53.7467 4.9607V4.9692Z" fill="white"/>
<path d="M44.9628 94.0233L43.7043 92.7202C42.7556 91.7382 41.9971 90.5903 41.465 89.3341C37.26 79.3903 17.9678 33.7825 17.9828 33.9632C17.9999 34.1651 44.9628 94.0233 44.9628 94.0233Z" fill="white"/>
<path d="M36.0229 25.6369L25.63 30.0922L24.9548 28.396L35.3498 23.9385L36.0229 25.6369Z" fill="black"/>
<path d="M60.2978 59.5686L43.4393 67.8246L42.6594 66.173L59.5179 57.917L60.2978 59.5686Z" fill="black"/>
<path d="M62.567 64.4639L45.7085 72.7178L44.9286 71.0661L61.7871 62.8123L62.567 64.4639Z" fill="black"/>
<path d="M64.9409 68.9258L48.0824 77.1797L47.3025 75.528L64.161 67.2742L64.9409 68.9258Z" fill="black"/>
<path d="M49.6592 54.8072L39.1168 59.5686C38.9437 59.6451 38.6916 59.4623 38.5548 59.1626L28.7496 38.2888C28.6128 37.9869 27.6364 35.5382 27.8094 35.4595L38.6766 30.5833C38.8497 30.5068 40.0548 32.0479 40.1915 32.3497L49.7233 54.1185C49.8601 54.4203 49.8301 54.7306 49.6571 54.8072H49.6592Z" fill="#FFAC66"/>
<path d="M62.3468 49.4803L51.8044 54.2417C51.6313 54.3183 51.3792 54.1355 51.2424 53.8357C51.2424 53.8357 40.324 30.2113 40.497 30.1327L52.0223 25.8708C52.1954 25.7942 53.0715 28.0878 53.2061 28.3875L62.4131 48.7916C62.5498 49.0934 62.5199 49.4038 62.3468 49.4803Z" fill="#F18184"/>
<path d="M72.7013 45.1887L65.3831 48.7279C65.2101 48.8044 64.1054 49.0063 63.9687 48.7045L54.1634 27.8307C54.0266 27.5288 53.0502 25.0801 53.2232 25.0014L61.7187 20.9627C61.8918 20.8862 63.0969 22.4273 63.2336 22.7291L72.7654 44.4978C72.9022 44.7997 72.8722 45.11 72.6992 45.1866L72.7013 45.1887Z" fill="#F89682"/>
<path d="M50.6313 83.7924L52.1762 87.6823L55.894 85.8096L54.377 81.9919L50.6313 83.7924Z" fill="black"/>
<path d="M56.5586 80.9208L58.1034 84.8107L61.8213 82.9401L60.3042 79.1204L56.5586 80.9208Z" fill="black"/>
<path d="M62.4857 78.0512L64.0305 81.939L67.7505 80.0684L66.2335 76.2507L62.4857 78.0512Z" fill="black"/>
<path d="M68.6587 75.0985L70.2057 78.9884L73.9235 77.1158L72.4064 73.2981L68.6587 75.0985Z" fill="black"/>
<path d="M74.5452 72.2162L76.0921 76.1061L79.81 74.2356L78.2929 70.4158L74.5452 72.2162Z" fill="black"/>
<path d="M48.8601 95.7683C47.5824 95.7683 46.3687 95.0413 45.841 93.8276C45.2 92.3842 44.9158 91.6254 44.6423 90.892C44.3624 90.1417 44.0974 89.4339 43.4628 88.0097C42.8282 86.5876 42.4778 85.8755 42.1381 85.1889C41.7919 84.4875 41.4351 83.7648 40.7877 82.3129C40.1488 80.8824 39.8241 80.1682 39.4993 79.454C39.1724 78.7355 38.8476 78.0191 38.2044 76.578C37.557 75.1283 37.2558 74.38 36.9652 73.6552C36.6789 72.9431 36.384 72.2098 35.7494 70.7856C35.1148 69.3656 34.7622 68.6557 34.4225 67.9691C34.0742 67.2698 33.7153 66.5449 33.0678 65.0952C32.4226 63.6477 32.1192 62.9016 31.8264 62.1788C31.538 61.4689 31.241 60.7334 30.6042 59.3092C29.9718 57.8935 29.6278 57.2218 29.2603 56.5119C28.9013 55.8147 28.5295 55.0919 27.88 53.638C27.2411 52.2074 26.9142 51.4954 26.5873 50.7833C26.2582 50.0669 25.9292 49.3506 25.286 47.9094C24.6407 46.4661 24.3202 45.7497 23.9976 45.027C23.6771 44.3149 23.3566 43.5965 22.7199 42.168C22.0703 40.7098 21.784 39.951 21.5084 39.2134C21.2284 38.4673 20.9635 37.7616 20.3332 36.3459C19.7029 34.9345 19.3503 34.2691 18.9764 33.5655C18.6067 32.8705 18.2243 32.1499 17.5726 30.6917C16.9166 29.2229 16.6367 28.4576 16.3632 27.7179C16.1004 27.0058 15.8312 26.2682 15.2051 24.8632C14.8547 24.0575 14.8868 22.9713 15.2927 21.9574C15.688 20.9669 16.3632 20.2101 17.1431 19.8764C18.6473 19.2323 19.4059 18.9114 20.1601 18.5946C20.9229 18.2715 21.6814 17.9527 23.2049 17.3001C24.7091 16.656 25.4655 16.3096 26.1984 15.9737C26.9398 15.6336 27.7048 15.2829 29.2282 14.6303C30.7303 13.9884 31.4824 13.6355 32.211 13.2954C32.9503 12.9489 33.7153 12.5918 35.2409 11.9392C36.7835 11.2803 37.5955 11.0082 38.3797 10.7446C39.1702 10.4789 39.9159 10.2281 41.4009 9.59466C42.9073 8.95059 43.6658 8.60836 44.4008 8.27676C45.1423 7.94303 45.9093 7.59655 47.4285 6.94611C48.9306 6.30416 49.6827 5.95343 50.4114 5.61545C51.1506 5.2711 51.9177 4.91612 53.4433 4.26354C54.2531 3.91706 55.1591 3.91706 55.9924 4.26142C56.8342 4.61002 57.5052 5.28598 57.8385 6.11711C58.4026 7.46476 58.6739 8.17685 58.9346 8.86344C59.2102 9.59041 62.0414 15.7271 62.6418 17.1407C63.2315 18.5351 66.4878 26.9909 67.0604 28.3428C67.6309 29.6884 69.1159 32.3284 69.7185 33.7526C70.3103 35.1513 71.3851 37.9635 71.9684 39.3367C72.5646 40.7438 72.8231 41.4772 73.0731 42.1872C73.3273 42.9056 73.5667 43.5858 74.1436 44.9505C74.7162 46.3024 76.1563 48.9616 76.7589 50.3794C77.355 51.7866 80.6348 60.1829 81.2203 61.5603C81.8015 62.9335 82.122 63.62 82.4318 64.2854C82.7459 64.9613 83.0728 65.6628 83.6647 67.0593C84.2843 68.5218 84.5642 69.2211 84.8591 69.963C85.124 70.6283 85.3996 71.3191 85.9488 72.6285C86.4124 73.7912 85.8441 75.5428 85.6582 76.0508C85.4146 76.7182 84.733 78.3167 83.6219 78.8014C82.1754 79.4986 81.5087 79.8706 80.8015 80.266C80.1413 80.6337 79.4596 81.0142 78.1221 81.6795C76.7375 82.3661 76.0452 82.7381 75.3743 83.0973C74.6948 83.4608 73.9897 83.8392 72.5859 84.5364C71.1928 85.2293 70.4962 85.5758 69.7997 85.9223C69.1031 86.2709 68.4066 86.6174 67.0113 87.3103C65.5989 88.0118 64.8618 88.3306 64.1481 88.6389C63.4217 88.9535 62.7358 89.251 61.3598 89.9334C59.9624 90.6263 59.2679 90.9749 58.5714 91.3214C57.8769 91.6679 57.1804 92.0165 55.7873 92.7073C54.6612 93.2664 53.9946 93.6044 53.4155 93.8998C52.5609 94.3356 51.8835 94.6799 50.2062 95.4877L50.1699 95.5047C49.7447 95.6833 49.3003 95.7683 48.8665 95.7683H48.8601ZM54.0523 5.67922C52.548 6.32329 51.7938 6.6719 51.0652 7.012C50.3259 7.35636 49.561 7.71134 48.0375 8.36179C46.5311 9.00586 45.7705 9.34808 45.0376 9.67969C44.2962 10.0134 43.5312 10.3599 42.0099 11.0103C40.4672 11.6693 39.6553 11.9414 38.8711 12.205C38.0805 12.4707 37.3348 12.7215 35.8498 13.3549C34.3477 13.9969 33.5956 14.3497 32.867 14.6898C32.1277 15.0363 31.3628 15.3934 29.8372 16.046C28.3329 16.6901 27.5766 17.0365 26.8437 17.3724C26.1022 17.7125 25.3373 18.0632 23.8138 18.7158C22.2882 19.3684 21.5276 19.6893 20.7648 20.0124C20.0127 20.3313 19.2541 20.6501 17.7521 21.2921C17.3589 21.46 16.9679 21.9319 16.7307 22.525C16.4786 23.1584 16.4359 23.8152 16.6217 24.2403C17.2649 25.6858 17.5448 26.4489 17.814 27.1844C18.0896 27.9347 18.3503 28.6426 18.9828 30.0625C19.6131 31.4739 19.9657 32.1392 20.3396 32.8428C20.7092 33.5379 21.0917 34.2585 21.7434 35.7188C22.3929 37.177 22.6793 37.9359 22.9549 38.6735C23.2348 39.4196 23.4997 40.1253 24.1301 41.541C24.7668 42.9673 25.0873 43.6836 25.4078 44.3957C25.7326 45.1184 26.0531 45.8348 26.6984 47.2802C27.3372 48.7129 27.6663 49.425 27.9932 50.1392C28.3223 50.8555 28.6513 51.5698 29.2923 53.0088C29.9248 54.4245 30.2688 55.0962 30.6363 55.8062C30.9953 56.5034 31.367 57.2261 32.0166 58.68C32.664 60.1297 32.9674 60.8758 33.2601 61.6007C33.5486 62.3106 33.8456 63.0461 34.4802 64.4682C35.1148 65.8881 35.4673 66.5981 35.8071 67.2825C36.1554 67.9819 36.5143 68.7067 37.1617 70.1564C37.8092 71.6061 38.1083 72.3543 38.401 73.0792C38.6873 73.7912 38.9822 74.5267 39.6168 75.9488C40.2578 77.3857 40.5826 78.0999 40.9074 78.8163C41.2321 79.5326 41.5591 80.2489 42.2001 81.6859C42.8347 83.1079 43.1851 83.82 43.5248 84.5066C43.8709 85.2081 44.2278 85.9308 44.8752 87.3826C45.5312 88.8514 45.8153 89.6145 46.091 90.3543C46.3559 91.0663 46.6316 91.8039 47.2576 93.209C47.6294 94.0635 48.6507 94.4546 49.5417 94.0911C51.1891 93.2961 51.8558 92.956 52.6998 92.5267C53.2831 92.2291 53.954 91.889 55.0864 91.3257C56.4774 90.6348 57.1718 90.2884 57.8663 89.9419C58.565 89.5933 59.2615 89.2447 60.6589 88.5496C62.0713 87.8481 62.8084 87.5293 63.5221 87.2211C64.2486 86.9065 64.9344 86.6089 66.3105 85.9265C67.7036 85.2336 68.4001 84.8871 69.0967 84.5406C69.7933 84.192 70.4898 83.8455 71.8851 83.1526C73.2697 82.466 73.9619 82.094 74.6307 81.7348C75.3102 81.3713 76.0153 80.9929 77.4212 80.2957C78.7246 79.6495 79.3891 79.2775 80.0344 78.9183C80.763 78.5102 81.4532 78.1254 82.951 77.4048L82.9873 77.3878C83.827 77.035 84.874 74.1462 84.5001 73.2109C83.951 71.9015 83.6732 71.2065 83.404 70.5326C83.1113 69.7993 82.8356 69.1084 82.2224 67.6588C81.6412 66.2856 81.3207 65.599 81.0109 64.9337C80.6968 64.2577 80.3699 63.5563 79.778 62.1597C79.1883 60.7674 71.1052 41.2986 70.5262 39.9361C69.9343 38.5374 68.8595 35.7252 68.2762 34.352C67.7057 33.0065 62.6631 21.2113 62.3725 20.5205C62.0798 19.8233 60.2914 15.7441 59.9389 15.0703C59.5884 14.3986 57.7509 10.1495 57.471 9.40973C57.2146 8.73377 56.9475 8.03444 56.3877 6.69741C56.2039 6.23827 55.8407 5.87266 55.3834 5.68347C54.9411 5.50067 54.4647 5.49854 54.0416 5.67922H54.0523Z" fill="black"/>
<path d="M27.0466 16.2798C27.0466 16.2798 28.5338 19.2685 30.8649 18.9177C33.196 18.567 43.8624 13.4782 44.6636 12.4409C45.4649 11.4036 44.5333 8.31714 44.5333 8.31714" fill="black"/>
<path d="M36.0936 15.4629C36.7152 15.4443 37.204 14.9279 37.1854 14.3095C37.1667 13.6911 36.6477 13.2049 36.026 13.2235C35.4044 13.242 34.9156 13.7584 34.9343 14.3768C34.953 14.9952 35.472 15.4814 36.0936 15.4629Z" fill="white"/>
</g>
<defs>
<clipPath id="clip0_261_288">
<rect width="73" height="92" fill="white" transform="translate(13.5 4)"/>
</clipPath>
</defs>
</svg>
