<svg width="209" height="81" viewBox="0 0 209 81" fill="none" xmlns="http://www.w3.org/2000/svg">
<g clip-path="url(#clip0_246_1922)">
<path d="M67.716 34.157C65.6147 32.0962 64.5634 29.1962 64.5634 25.4822C64.5634 23.123 65.048 21.0356 66.0199 19.2465C66.9574 17.4947 68.38 16.0541 70.1152 15.0996C71.8935 14.1232 73.9418 13.6343 76.3119 13.6343C82.7258 13.6343 86.4173 16.7608 87.3865 23.0138H81.4282C81.2123 21.5484 80.6999 20.4388 79.8922 19.7061C79.0846 18.9734 77.8982 18.5951 76.3887 18.5951C74.584 18.5951 73.1567 19.2186 72.0789 20.4388C71.0011 21.659 70.4622 23.3388 70.4622 25.4809C70.4622 27.595 71.0011 29.2481 72.051 30.4417C73.1024 31.6606 74.584 32.2574 76.443 32.2574C77.979 32.2574 79.1918 31.8778 80.0803 31.0918C80.97 30.3325 81.5089 29.1949 81.697 27.7309H87.6553C87.5501 29.4643 87.0324 31.1469 86.1459 32.6371C85.2839 34.0744 84.0167 35.1854 82.3471 35.998C80.6774 36.8106 78.7098 37.2183 76.4192 37.2183C72.7277 37.2462 69.8173 36.2232 67.716 34.157Z" fill="white"/>
<path d="M114.762 14.2044V36.6508H108.995V29.5745C108.78 32.2041 107.998 34.157 106.678 35.3759C105.358 36.5948 103.526 37.2196 101.262 37.2196C99.1602 37.2196 97.3555 36.7587 95.7918 35.8102C94.2294 34.8884 93.0112 33.5336 92.1545 31.7712C91.2978 30.0088 90.8609 27.8667 90.8609 25.401C90.8609 22.9605 91.319 20.846 92.2353 19.0574C93.1516 17.2688 94.3909 15.9131 95.9533 14.9904C97.5619 14.0421 99.3973 13.5534 101.262 13.577C103.498 13.577 105.276 14.2004 106.624 15.4207C107.971 16.6675 108.753 18.5924 108.995 21.1941V14.1738L114.762 14.2044ZM107.648 30.4697C108.699 29.2495 109.21 27.5697 109.21 25.4822C109.21 23.3135 108.699 21.6324 107.648 20.4121C106.596 19.1919 105.142 18.5685 103.31 18.5685C101.342 18.5685 99.7799 19.1653 98.567 20.3855C97.3542 21.6057 96.7623 23.2855 96.7623 25.4329C96.7623 27.5803 97.382 29.2282 98.5948 30.475C99.8064 31.6953 101.397 32.3187 103.31 32.3187C105.142 32.2907 106.598 31.6953 107.648 30.475V30.4697Z" fill="white"/>
<path d="M113.333 47.1147V41.3132C114.441 41.6601 115.595 41.8339 116.755 41.8288C118.183 41.8288 119.207 41.5024 119.8 40.879C120.393 40.2555 120.716 39.1179 120.716 37.4914V14.2324H126.483V37.7884C126.483 40.2289 126.158 42.1845 125.512 43.6178C124.92 44.9878 123.845 46.0888 122.494 46.7084C121.12 47.3318 119.317 47.6568 117.051 47.6568C115.543 47.6289 114.33 47.4397 113.333 47.1147Z" fill="white"/>
<path d="M151.918 14.2046V36.6509H146.152V29.0298H146.125C146.125 30.9281 145.801 32.4734 145.181 33.6923C144.562 34.9112 143.725 35.8064 142.703 36.3752C141.69 36.9425 140.551 37.2409 139.392 37.2424C136.994 37.2424 135.19 36.5657 133.977 35.2376C132.764 33.8814 132.171 31.794 132.171 28.9472V14.2326H137.937V27.4886C137.937 29.0871 138.261 30.2527 138.908 30.9854C139.554 31.7167 140.551 32.0964 141.871 32.0964C142.443 32.1016 143.01 31.9857 143.535 31.7562C144.059 31.5267 144.53 31.1887 144.916 30.7643C145.778 29.897 146.21 28.6768 146.21 27.1582V14.2326H151.922L151.918 14.2046Z" fill="white"/>
<path d="M121.227 9.54198C120.907 9.23316 120.652 8.86284 120.478 8.453C120.303 8.04316 120.211 7.60215 120.209 7.15614C120.199 6.7 120.286 6.24695 120.462 5.82663C120.638 5.40631 120.901 5.02819 121.233 4.71701C121.546 4.39707 121.919 4.14347 122.331 3.97119C122.743 3.7989 123.186 3.71143 123.632 3.71392C124.074 3.71157 124.512 3.79923 124.919 3.97162C125.326 4.14401 125.695 4.39756 126.002 4.71701C126.476 5.19223 126.8 5.79793 126.932 6.45783C127.065 7.11774 127 7.80234 126.747 8.42545C126.493 9.04855 126.062 9.5823 125.508 9.95948C124.954 10.3367 124.301 10.5404 123.632 10.5451C123.184 10.5505 122.741 10.4644 122.327 10.2919C121.914 10.1195 121.54 9.86436 121.227 9.54198Z" fill="#59D159"/>
<path d="M81.215 50.666V75.0906H78.547V71.7283C77.3355 74.0595 75.1799 75.4156 72.3768 75.4156C67.6882 75.4156 64.5899 72 64.5899 66.8767C64.5899 61.7533 67.716 58.3364 72.3768 58.3364C75.1799 58.3364 77.3355 59.6912 78.547 62.0224V50.666H81.215ZM78.682 66.8767C78.682 62.7284 76.8773 60.7769 72.9964 60.7769C69.1156 60.7769 67.3122 62.7324 67.3122 66.8767C67.3122 71.0209 69.1169 72.9752 72.9964 72.9752C76.876 72.9752 78.682 71.0236 78.682 66.8767Z" fill="white"/>
<path d="M100.745 67.7174H88.0856C88.2472 71.5939 89.8069 73.1112 93.3939 73.1112C96.0619 73.1112 97.1397 72.4611 97.8957 70.2924L100.401 71.2675C99.2688 74.1689 96.4406 75.4158 93.3952 75.4158C88.5186 75.4158 85.366 72.0548 85.366 66.8768C85.366 61.7801 88.7344 58.3379 93.2601 58.3379C97.6521 58.3379 100.778 61.4018 100.778 66.4159C100.777 66.9035 100.777 67.1206 100.745 67.7174ZM88.1399 65.5207H98.1367C97.9209 61.9972 96.5478 60.6145 93.2588 60.6145C90.1062 60.5878 88.4312 62.1598 88.1399 65.5207Z" fill="white"/>
<path d="M103.498 70.3736L106.146 69.5064C106.604 72.1627 107.924 73.0565 110.619 73.0565C113.07 73.0565 114.256 72.3518 114.256 70.8345C114.256 69.4518 113.771 68.9696 111.804 68.5566L108.626 67.9332C106.281 67.4723 104.073 66.3066 104.073 63.2707C104.073 60.3161 106.47 58.3645 110.081 58.3645C113.206 58.3645 115.928 59.6114 116.629 63.5691L113.981 64.3018C113.631 61.1833 112.311 60.7503 110.155 60.7503C107.838 60.7503 106.76 61.4817 106.76 63.0816C106.76 64.4137 107.245 65.0331 108.727 65.3035L112.822 66.1175C115.22 66.5784 116.865 67.7986 116.865 70.4003C116.865 73.4362 114.305 75.4703 110.424 75.4703C106.893 75.4157 104.253 73.7346 103.498 70.3736Z" fill="white"/>
<path d="M137.555 66.8767C137.555 72.0001 134.43 75.4157 129.768 75.4157C126.966 75.4157 124.81 74.0596 123.597 71.7283V80.9999H120.931V58.6895H123.597V62.0518C124.81 59.7192 126.966 58.3644 129.768 58.3644C134.458 58.3365 137.555 61.7534 137.555 66.8767ZM134.834 66.8767C134.834 62.7285 133.029 60.7769 129.148 60.7769C125.267 60.7769 123.464 62.7285 123.464 66.8767C123.464 71.025 125.268 72.9752 129.148 72.9752C133.028 72.9752 134.835 71.0236 134.835 66.8767H134.834Z" fill="white"/>
<path d="M155.743 67.7174H143.08C143.241 71.5939 144.801 73.1112 148.388 73.1112C151.056 73.1112 152.134 72.4611 152.89 70.2924L155.397 71.2675C154.264 74.1689 151.436 75.4158 148.391 75.4158C143.514 75.4158 140.334 72.0548 140.334 66.8768C140.334 61.7801 143.702 58.3379 148.229 58.3379C152.621 58.3379 155.746 61.4018 155.746 66.4159C155.773 66.8493 155.772 67.2841 155.743 67.7174ZM143.106 65.5207H153.103C152.887 61.9972 151.514 60.6145 148.227 60.6145C145.102 60.5878 143.431 62.1598 143.106 65.5207Z" fill="white"/>
<path d="M158.466 70.3736L161.106 69.5064C161.564 72.1627 162.884 73.0565 165.579 73.0565C168.031 73.0565 169.216 72.3518 169.216 70.8345C169.216 69.4518 168.731 68.9696 166.765 68.5566L163.587 67.9332C161.244 67.4723 159.034 66.3066 159.034 63.2707C159.034 60.3161 161.432 58.3645 165.042 58.3645C168.169 58.3645 170.89 59.6114 171.59 63.5691L168.95 64.3018C168.599 61.1833 167.279 60.7503 165.123 60.7503C162.806 60.7503 161.728 61.4817 161.728 63.0816C161.728 64.4137 162.213 65.0331 163.696 65.3035L167.791 66.1175C170.189 66.5784 171.832 67.7986 171.832 70.4003C171.832 73.4362 169.273 75.4703 165.393 75.4703C161.861 75.4157 159.247 73.7346 158.466 70.3736Z" fill="white"/>
<path d="M191.149 58.6894V75.0906H188.481V71.7283C187.27 74.0595 185.114 75.4156 182.311 75.4156C177.622 75.4156 174.524 72.0001 174.524 66.8767C174.524 61.7533 177.65 58.3364 182.308 58.3364C185.111 58.3364 187.267 59.6912 188.479 62.0224V58.6628H191.147L191.149 58.6894ZM188.616 66.8767C188.616 62.7284 186.812 60.7769 182.931 60.7769C179.05 60.7769 177.246 62.7284 177.246 66.8767C177.246 71.0249 179.051 72.9752 182.931 72.9752C186.838 72.9752 188.616 71.0236 188.616 66.8767Z" fill="white"/>
<path d="M195.245 70.3736L197.893 69.5064C198.35 72.1627 199.671 73.0565 202.366 73.0565C204.816 73.0565 206.003 72.3518 206.003 70.8345C206.003 69.4518 205.517 68.9696 203.551 68.5566L200.373 67.9332C198.028 67.4723 195.819 66.3066 195.819 63.2707C195.819 60.3161 198.217 58.3645 201.828 58.3645C204.953 58.3645 207.674 59.6114 208.376 63.5691L205.727 64.3018C205.378 61.1833 204.058 60.7503 201.902 60.7503C199.585 60.7503 198.507 61.4817 198.507 63.0816C198.507 64.4137 198.992 65.0331 200.473 65.3035L204.569 66.1175C206.967 66.5784 208.638 67.7986 208.638 70.4003C208.638 73.4362 206.078 75.4703 202.197 75.4703C198.64 75.4157 196.026 73.7346 195.245 70.3736Z" fill="white"/>
<path d="M45.0279 48.9036V46.7616C45.0279 37.2462 44.0587 32.2041 40.4215 28.3009C39.0533 26.8046 37.3277 25.6848 35.4085 25.0479C30.4247 23.3667 25.6554 25.6447 22.3134 28.6806C18.3531 32.232 15.1461 30.8227 12.4516 31.229C10.1623 31.5806 8.2755 31.7165 5.17715 33.7773C3.88353 34.6445 1.02749 37.3821 0.278064 41.6369C-0.045011 43.5351 0.0132484 48.6039 0.0132484 48.6039L45.0279 48.9036Z" fill="white"/>
<path d="M40.7975 43.8335H4.2344C3.67791 43.8312 3.12646 43.9397 2.6118 44.1527C2.09714 44.3657 1.62945 44.679 1.23563 45.0746C0.84182 45.4702 0.529669 45.9403 0.317152 46.4577C0.104635 46.9752 -0.00405186 47.5298 -0.00265029 48.0897V71.2953C-0.00492723 71.8558 0.103114 72.4111 0.315239 72.9293C0.527364 73.4476 0.839376 73.9184 1.23328 74.3147C1.62718 74.711 2.09517 75.0249 2.61026 75.2383C3.12535 75.4517 3.67735 75.5604 4.2344 75.5581H40.7975C41.3546 75.5604 41.9066 75.4517 42.4216 75.2383C42.9367 75.0249 43.4047 74.711 43.7986 74.3147C44.1925 73.9184 44.5045 73.4476 44.7167 72.9293C44.9288 72.4111 45.0368 71.8558 45.0346 71.2953V48.0897C45.036 47.5298 44.9273 46.9752 44.7148 46.4577C44.5022 45.9403 44.1901 45.4702 43.7963 45.0746C43.4025 44.679 42.9348 44.3657 42.4201 44.1527C41.9055 43.9397 41.354 43.8312 40.7975 43.8335Z" fill="#FF7500"/>
<path d="M30.5597 15.3154C30.5597 11.8186 27.6759 9.67785 23.9036 9.43407C23.3912 9.40609 22.8523 9.51533 22.3677 9.37945C22.1307 9.33116 21.9058 9.23563 21.7062 9.09852C21.5065 8.9614 21.3362 8.78547 21.2051 8.58108C21.0741 8.37669 20.9851 8.14799 20.9433 7.90844C20.9015 7.6689 20.9078 7.42336 20.9618 7.1863C21.0158 6.94924 21.1164 6.72546 21.2577 6.52813C21.399 6.33081 21.5782 6.16393 21.7846 6.03735C21.991 5.91076 22.2205 5.82702 22.4596 5.79107C22.6987 5.75512 22.9425 5.76767 23.1767 5.828C24.1737 6.1264 24.0929 6.56067 24.5511 7.02026C25.466 7.97006 27.8374 7.86083 29.1575 7.23739C30.5054 6.61396 30.8285 5.37241 29.9387 4.39197C28.9152 3.253 27.4879 2.46704 25.7096 2.00613C25.413 1.92487 25.1164 1.87291 24.8199 1.81563C24.8128 1.81563 24.8061 1.81283 24.8011 1.80783C24.7962 1.80283 24.7934 1.79606 24.7934 1.78899C24.7531 1.30493 24.5343 0.853514 24.1801 0.523445C23.8259 0.193375 23.3617 0.00851143 22.8789 0.00517297C22.3961 0.0018345 21.9295 0.180263 21.5708 0.505403C21.2121 0.830542 20.9872 1.27889 20.9403 1.76235C20.9403 1.78899 20.9125 1.78899 20.9125 1.81563C20.8706 1.83358 20.8256 1.84308 20.7801 1.84361C17.115 2.49369 14.2855 4.98743 14.5569 7.99671L14.5291 7.97006C14.5291 10.22 16.739 12.4154 19.6758 13.2013C19.8082 13.2293 19.9181 13.2826 20.0532 13.3106C20.1075 13.3372 20.1856 13.3372 20.2425 13.3638C20.5378 13.4185 20.8622 13.4731 21.1853 13.4971H21.266C21.7506 13.5237 22.2353 13.4424 22.7225 13.5517C22.9594 13.6 23.1844 13.6955 23.384 13.8326C23.5837 13.9697 23.754 14.1457 23.885 14.35C24.0161 14.5544 24.1051 14.7831 24.1469 15.0227C24.1887 15.2622 24.1824 15.5078 24.1284 15.7448C24.0744 15.9819 23.9737 16.2057 23.8324 16.403C23.6911 16.6003 23.512 16.7672 23.3056 16.8938C23.0992 17.0204 22.8697 17.1041 22.6306 17.1401C22.3915 17.176 22.1477 17.1635 21.9135 17.1031C20.9165 16.8047 20.9972 16.3705 20.5391 15.9042C19.6242 14.9557 17.2527 15.0636 15.9326 15.6871C14.5847 16.3105 14.2617 17.5521 15.1514 18.5338C16.1754 19.6448 17.5493 20.4312 19.2733 20.893C19.3276 20.893 19.3541 20.9197 19.4057 20.9463C19.7023 21.0276 19.9976 21.0795 20.2677 21.1368H20.2942C20.3344 21.6209 20.5532 22.0723 20.9074 22.4024C21.2617 22.7324 21.7258 22.9173 22.2086 22.9206C22.6914 22.924 23.158 22.7455 23.5167 22.4204C23.8754 22.0953 24.1003 21.6469 24.1472 21.1635C24.1472 21.1368 24.175 21.1368 24.175 21.1088C24.2171 21.0917 24.262 21.0827 24.3074 21.0822C24.4968 21.0555 25.5468 20.7838 25.7096 20.7292C28.5114 19.87 30.5597 18.0543 30.5597 15.3154Z" fill="#59D159"/>
</g>
<defs>
<clipPath id="clip0_246_1922">
<rect width="208.636" height="81" fill="white"/>
</clipPath>
</defs>
</svg>
