<svg width="115" height="48" viewBox="0 0 115 48" fill="none" xmlns="http://www.w3.org/2000/svg">
<g clip-path="url(#clip0_246_2108)">
<path d="M38.5359 35.8938C36.6401 34.0462 35.6923 31.4526 35.6923 28.113C35.6923 25.99 36.1268 24.1237 36.9984 22.5141C37.8687 20.9044 39.1027 19.6638 40.7017 18.7935C42.2993 17.9231 44.1602 17.4873 46.2832 17.4873C52.0787 17.4873 55.4063 20.2908 56.2646 25.8951H50.8982C50.7071 24.5836 50.2418 23.5996 49.5025 22.9432C48.7632 22.2868 47.7137 21.9593 46.3541 21.9593C44.7324 21.9593 43.4383 22.5087 42.4731 23.605C41.5065 24.7026 41.0238 26.2053 41.0238 28.113C41.0238 29.9967 41.5011 31.4821 42.4543 32.5676C43.4076 33.6532 44.7311 34.196 46.425 34.196C47.8073 34.196 48.8996 33.8497 49.699 33.1585C50.4972 32.4674 50.9811 31.466 51.1482 30.1532H56.5146C56.3956 31.7989 55.9424 33.2655 55.155 34.5543C54.3675 35.8417 53.2285 36.8497 51.7378 37.577C50.2472 38.3043 48.4637 38.6679 46.3889 38.6679C43.0493 38.6666 40.4329 37.7428 38.5359 35.8938Z" fill="#E80537"/>
<path d="M80.9559 38.1305H75.7687V31.7976C75.5775 34.1585 74.8797 35.8938 73.6765 37.0035C72.4719 38.1131 70.8436 38.6679 68.7927 38.6679C66.9077 38.6679 65.2633 38.2508 63.8555 37.4152C62.4478 36.581 61.3569 35.3711 60.5815 33.7842C59.8061 32.1986 59.4184 30.2962 59.4184 28.0783C59.4184 25.8844 59.8301 23.9887 60.6523 22.3897C61.4759 20.7921 62.5962 19.5756 64.0146 18.74C65.4331 17.9058 67.0254 17.4873 68.7901 17.4873C70.7941 17.4873 72.4037 18.0421 73.6203 19.1504C74.8369 20.2601 75.5522 21.9833 75.7674 24.3202V18.0234H80.9559V38.1305ZM74.5348 32.585C75.4773 31.4887 75.9479 29.9967 75.9479 28.113C75.9479 26.1812 75.4773 24.6665 74.5348 23.5689C73.5922 22.4726 72.2861 21.9232 70.6176 21.9232C68.8529 21.9232 67.4278 22.4659 66.3422 23.5515C65.2566 24.6371 64.7138 26.1451 64.7138 28.077C64.7138 29.9847 65.262 31.4874 66.3596 32.585C67.4558 33.6826 68.8756 34.2307 70.6163 34.2307C72.2861 34.2307 73.5922 33.6826 74.5348 32.585Z" fill="#E80537"/>
<path d="M79.6685 47.5035V42.3163C80.6939 42.6265 81.7193 42.7816 82.7447 42.7816C84.0322 42.7816 84.9506 42.4955 85.5001 41.9233C86.0482 41.3511 86.3223 40.3364 86.3223 38.8818V18.0247H91.5095V39.1318C91.5095 41.3257 91.2167 43.0677 90.6325 44.3551C90.0482 45.6426 89.1418 46.5677 87.9132 47.1279C86.6846 47.688 85.0455 47.9688 82.9934 47.9688C81.6591 47.9688 80.5508 47.8137 79.6685 47.5035Z" fill="#E80537"/>
<path d="M114.461 18.0247V38.1305H109.274V31.2976H109.238C109.238 32.9914 108.952 34.3871 108.38 35.4834C107.808 36.581 107.062 37.3858 106.143 37.8979C105.225 38.4099 104.229 38.6679 103.157 38.6679C100.985 38.6679 99.3585 38.0663 98.2729 36.8618C97.1873 35.6572 96.6445 33.7789 96.6445 31.2267V18.0247H101.832V29.9018C101.832 31.3323 102.123 32.3764 102.709 33.0315C103.293 33.6879 104.181 34.0155 105.375 34.0155C106.424 34.0155 107.336 33.6224 108.111 32.835C108.887 32.0476 109.274 30.974 109.274 29.6157V18.0247H114.461Z" fill="#E80537"/>
<path d="M86.7688 13.8385C86.1605 13.2423 85.8571 12.527 85.8571 11.6915C85.8571 10.8332 86.1605 10.1059 86.7688 9.50963C87.3771 8.91336 88.099 8.61523 88.9333 8.61523C89.7675 8.61523 90.4828 8.91336 91.0804 9.50963C91.6766 10.1059 91.9747 10.8332 91.9747 11.6915C91.9747 12.5257 91.6766 13.2423 91.0804 13.8385C90.4841 14.4348 89.7688 14.7329 88.9333 14.7329C88.099 14.7329 87.3771 14.4348 86.7688 13.8385Z" fill="#02C771"/>
</g>
<path d="M13.6849 45.5345C18.1271 45.6171 21.8274 44.1807 23.9366 40.6723C25.4617 38.137 24.8601 35.1859 25.6433 30.8984C26.444 26.5088 28.3819 22.2658 27.0539 19.2506C26.4802 17.9474 25.7207 17.0765 24.793 16.3531C22.2381 14.3627 18.5626 14.5659 15.9922 15.6319C12.9667 16.8856 11.3828 15.4038 9.74007 15.0973C8.33466 14.8363 7.20888 14.5236 4.98623 15.085C4.05341 15.3202 1.94014 16.2819 0.711174 18.6697C-0.982131 21.9583 0.723556 24.5751 1.9422 30.268C3.0721 35.5481 2.70166 39.0172 4.58792 41.5598C6.47419 44.1013 9.24271 45.452 13.6849 45.5345Z" fill="#EF7015"/>
<path d="M17.5159 10.866C17.52 9.3089 16.2002 8.06239 14.575 8.08716C14.2366 8.09232 13.9187 7.97159 13.6824 7.7487C13.4461 7.52479 13.3161 7.22245 13.3172 6.89844C13.3182 6.5734 13.4492 6.26796 13.6866 6.03786C13.9249 5.80672 14.2427 5.67773 14.5812 5.67257C16.2064 5.64781 17.5324 4.35074 17.5365 2.7792C17.5406 1.2221 16.2209 -0.0244023 14.5956 0.000362719C12.7001 0.0282233 10.8995 0.777364 9.52812 2.10848C8.17327 3.41999 7.42516 5.15354 7.42 6.98615C7.41587 8.81876 8.15573 10.5296 9.50335 11.8029C10.8685 13.0938 12.665 13.7893 14.5606 13.7604C16.1868 13.7356 17.5128 12.4375 17.5159 10.866Z" fill="#02C771"/>
<defs>
<clipPath id="clip0_246_2108">
<rect width="78.7692" height="39.3846" fill="white" transform="translate(35.6923 8.61523)"/>
</clipPath>
</defs>
</svg>
