<svg width="28" height="46" viewBox="0 0 28 46" fill="none" xmlns="http://www.w3.org/2000/svg">
<path d="M13.6849 45.5345C18.1271 45.6171 21.8274 44.1807 23.9366 40.6723C25.4617 38.137 24.8601 35.1859 25.6433 30.8984C26.444 26.5088 28.3819 22.2658 27.0539 19.2506C26.4802 17.9474 25.7207 17.0765 24.793 16.3531C22.2381 14.3627 18.5626 14.5659 15.9922 15.6319C12.9667 16.8856 11.3828 15.4038 9.74007 15.0973C8.33466 14.8363 7.20888 14.5236 4.98623 15.085C4.05341 15.3202 1.94014 16.2819 0.711174 18.6697C-0.982131 21.9583 0.723556 24.5751 1.9422 30.268C3.0721 35.5481 2.70166 39.0172 4.58792 41.5598C6.47419 44.1013 9.24271 45.452 13.6849 45.5345Z" fill="#EF7015"/>
<path d="M17.5159 10.866C17.52 9.3089 16.2002 8.06239 14.575 8.08716C14.2366 8.09232 13.9187 7.97159 13.6824 7.7487C13.4461 7.52479 13.3161 7.22245 13.3172 6.89844C13.3182 6.5734 13.4492 6.26796 13.6866 6.03786C13.9249 5.80672 14.2427 5.67773 14.5812 5.67257C16.2064 5.64781 17.5324 4.35074 17.5365 2.7792C17.5406 1.2221 16.2209 -0.0244023 14.5956 0.000362719C12.7001 0.0282233 10.8995 0.777364 9.52812 2.10848C8.17327 3.41999 7.42516 5.15354 7.42 6.98615C7.41587 8.81876 8.15573 10.5296 9.50335 11.8029C10.8685 13.0938 12.665 13.7893 14.5606 13.7604C16.1868 13.7356 17.5128 12.4375 17.5159 10.866Z" fill="#02C771"/>
</svg>
