<svg width="100" height="100" viewBox="0 0 100 100" fill="none" xmlns="http://www.w3.org/2000/svg">
<path d="M26.406 22.7191L24.1485 22.7739L20.2045 30.8414L33.6891 81.7291L35.7409 84.941C35.7409 84.941 40.8264 87.371 40.9976 87.2838C41.1687 87.1967 41.2868 74.9011 41.2868 74.9011L26.406 22.7191Z" fill="#59D359"/>
<path d="M32.3549 26.4713C32.7004 26.3177 44.4658 23.3501 44.4658 23.3501L43.4719 19.4935C43.4719 19.4935 31.1691 23.1137 31.2003 23.2347C31.2314 23.3558 32.3549 26.4713 32.3549 26.4713Z" fill="black"/>
<path d="M39.5953 38.8902C39.9407 38.7367 51.7062 35.769 51.7062 35.769L50.7123 31.9124C50.7123 31.9124 38.4094 35.5326 38.4406 35.6537C38.4718 35.7747 39.5953 38.8902 39.5953 38.8902Z" fill="black"/>
<path d="M81.0974 74.2415C80.3103 71.9384 65.0637 13.8966 65.0637 13.8966C65.0637 13.8966 63.3192 10.4915 59.5435 11.1742C55.7679 11.8569 36.4976 17.1135 36.4976 17.1135L27.6404 19.3962C27.6404 19.3962 23.6646 20.4208 24.1209 24.0611C24.5772 27.7013 40.2616 86.6907 40.2616 86.6907C40.2616 86.6907 42.1994 88.6005 44.0741 88.0205C45.9488 87.4406 79.4059 78.1448 79.4059 78.1448C79.4059 78.1448 81.8841 76.5425 81.0989 74.2389L81.0974 74.2415ZM39.8409 56.7708L47.4173 54.8182L48.204 58.2464L40.9864 60.3475L39.8389 56.7713L39.8409 56.7708ZM48.6016 60.4068L49.4905 63.856L42.5853 65.8421L41.5073 62.2352L48.6016 60.4068ZM42.8573 67.4735L49.9516 65.6451L50.8405 69.0943L43.9353 71.0804L42.8573 67.4735ZM52.8525 74.8482L45.9473 76.8343L44.8693 73.2273L51.9636 71.399L52.8525 74.8482ZM53.5381 64.7208L60.6324 62.8925L61.5213 66.3417L54.6161 68.3278L53.5381 64.7208ZM59.2824 57.6542L60.1713 61.1034L53.2661 63.0895L52.1881 59.4825L59.2824 57.6542ZM50.6977 53.6996L57.792 51.8713L58.6809 55.3205L51.7757 57.3066L50.6977 53.6996ZM63.3397 72.1455L56.4345 74.1315L55.3565 70.5246L62.4508 68.6963L63.3397 72.1455ZM60.5408 51.4361L68.1172 49.4835L68.8411 53.1688L61.5071 54.818L60.5388 51.4366L60.5408 51.4361ZM69.9632 54.9016L70.8521 58.3508L63.9469 60.3369L62.8689 56.7299L69.9632 54.9016ZM71.3132 60.1399L72.2021 63.5891L65.2969 65.5752L64.2189 61.9682L71.3132 60.1399ZM73.8268 69.4427L66.9216 71.4288L65.8436 67.8219L72.9379 65.9936L73.8268 69.4427ZM35.3174 49.1346L30.4297 32.0309L30.9707 31.8764C34.2742 30.939 63.9122 22.5415 63.9122 22.5415C63.9122 22.5415 64.2779 22.458 68.9652 39.8779L69.1126 40.425L35.3174 49.1346Z" fill="#59D359"/>
<path d="M31.8188 32.8043L36.2573 47.3307L67.634 39.2444C66.0823 33.4902 63.7301 26.1913 63.0894 24.2893C59.44 25.3202 35.7419 31.6922 31.8188 32.8043ZM36.1884 44.0918L33.7348 34.5713L62.3541 27.1956L65.0289 36.0805L36.1884 44.0918Z" fill="#59D359"/>
<path d="M33.7347 34.5713L36.1883 44.0918L65.0308 36.08L62.3539 27.1956L33.7347 34.5713Z" fill="black"/>
<path d="M63.9122 22.5415C63.9122 22.5415 34.2742 30.9391 30.9708 31.8765L30.4298 32.0309L35.3174 49.1346L69.1127 40.425L68.9652 39.8779C64.2759 22.4586 63.9122 22.5415 63.9122 22.5415ZM36.2572 47.3308L31.8187 32.8044C35.7418 31.6923 59.4399 25.3203 63.0892 24.2895C63.73 26.1915 66.0821 33.4903 67.6339 39.2445L36.2572 47.3308Z" fill="black"/>
<path d="M47.4173 54.8182L39.8409 56.7708L40.9884 60.3469L48.2061 58.2458L47.4173 54.8182Z" fill="black"/>
<path d="M68.1153 49.484L60.5389 51.4365L61.5071 54.8179L68.8412 53.1687L68.1153 49.484Z" fill="black"/>
<path d="M57.7901 51.8719L50.6958 53.7002L51.7758 57.3066L58.679 55.321L57.7901 51.8719Z" fill="black"/>
<path d="M49.4905 63.856L48.6016 60.4068L41.5073 62.2351L42.5853 65.842L49.4905 63.856Z" fill="black"/>
<path d="M53.2661 63.0893L60.1693 61.1038L59.2804 57.6546L52.1861 59.4829L53.2661 63.0893Z" fill="black"/>
<path d="M63.9449 60.3374L70.8501 58.3513L69.9612 54.9021L62.8669 56.7305L63.9449 60.3374Z" fill="black"/>
<path d="M49.9517 65.6451L42.8574 67.4734L43.9354 71.0803L50.8406 69.0942L49.9517 65.6451Z" fill="black"/>
<path d="M45.9474 76.8342L52.8506 74.8486L51.9617 71.3995L44.8674 73.2278L45.9474 76.8342Z" fill="black"/>
<path d="M56.4346 74.1316L63.3378 72.146L62.4489 68.6968L55.3546 70.5251L56.4346 74.1316Z" fill="black"/>
<path d="M66.9217 71.4289L73.8249 69.4434L72.936 65.9942L65.8417 67.8225L66.9217 71.4289Z" fill="black"/>
<path d="M60.6304 62.8931L53.5361 64.7214L54.6161 68.3279L61.5193 66.3423L60.6304 62.8931Z" fill="black"/>
<path d="M72.2001 63.5896L71.3112 60.1404L64.2169 61.9688L65.2949 65.5757L72.2001 63.5896Z" fill="black"/>
<path d="M43.8558 86.5474L42.0208 85.8459L35.9668 62.3552L43.8558 86.5474Z" fill="black"/>
<path d="M44.8704 86.286L40.8086 73.5469L46.8331 85.7802L44.8704 86.286Z" fill="black"/>
<path d="M81.9059 73.9644C81.1393 71.7162 66.0414 14.2599 65.8897 13.6795L65.8663 13.5888L65.8233 13.5052C65.1191 12.1336 62.8705 9.70172 59.3889 10.3322C55.6299 11.0128 37.1483 16.049 36.276 16.2867L27.4247 18.5678C26.0874 18.9125 23.8505 20.1321 23.3375 22.482L19.2974 30.7528L32.8969 82.0777L35.1536 85.6089L35.3741 85.7134C38.6588 87.2825 40.0006 87.8896 40.6486 88.0753C41.5044 88.6334 42.8118 89.2322 44.1733 88.8813C44.2238 88.8683 44.2742 88.8553 44.3236 88.8383C46.1645 88.2692 79.2979 79.0612 79.6332 78.9683L79.7603 78.9356L79.8684 78.8625C79.9921 78.7833 82.8964 76.8647 81.9053 73.9624L81.9059 73.9644ZM34.4813 81.3811L21.1135 30.9301L23.6068 25.8306C25.716 35.1753 36.8689 77.2489 39.0748 85.5577C38.2434 85.1783 37.2727 84.7251 36.3332 84.2767L34.4838 81.3826L34.4813 81.3811ZM79.034 77.361C76.3601 78.1039 45.64 86.6427 43.8192 87.2066C42.8144 87.5064 41.5789 86.7106 41.0207 86.2306C35.5844 65.7794 25.3208 26.7806 24.9674 23.957C24.6124 21.1188 27.7229 20.2591 27.852 20.2259L36.7214 17.9401C36.9146 17.8881 55.9987 12.6859 59.6962 12.0169C62.5425 11.5006 64.0079 13.773 64.2642 14.2168C65.1921 17.7505 79.5097 72.2373 80.2891 74.5187C80.7805 75.958 79.42 77.0809 79.0365 77.3625L79.034 77.361Z" fill="black"/>
</svg>
