<svg width="431" height="431" viewBox="0 0 431 431" fill="none" xmlns="http://www.w3.org/2000/svg">
<g clip-path="url(#clip0_280_234)">
<path d="M324.667 188.851C294.787 167.052 252.518 174.797 230.279 206.239C225.811 212.683 219.015 217.118 211.315 218.604C203.806 220.016 196.053 218.241 189.897 213.691C183.668 209.108 179.557 202.208 178.519 194.561C177.451 186.718 179.4 178.766 184.003 172.323C206.238 140.859 199.833 97.3118 169.83 75.307C139.815 53.293 97.6557 61.2345 75.4048 92.6671C49.4669 129.367 38.6271 174.656 45.1097 219.191C50.8628 262.592 74.0489 301.807 109.314 327.826C144.248 353.526 188.278 363.504 230.812 355.37C274.623 347.352 313.491 322.453 339.037 286.05C361.132 254.484 354.736 210.924 324.658 188.864L324.667 188.851Z" fill="#5D0216"/>
<g clip-path="url(#clip1_280_234)">
<path d="M403.023 243.564C403.955 243.564 292.294 224.713 292.294 224.713C292.294 224.713 292.017 222.893 289.169 223.302C263.785 226.948 136.255 248.853 137.679 248.853C139.261 248.853 250.558 271.542 250.558 271.542C250.558 271.542 401.667 243.565 403.023 243.565V243.564Z" fill="white"/>
<path d="M247.962 283.383L248.255 274.776L140.931 254.345L141.888 260.275L247.962 283.383Z" fill="white"/>
<path d="M402.679 254.069L403.219 247.105L320.906 262.691L254.918 274.548L255.812 283.464L402.679 254.069Z" fill="white"/>
<path d="M133.88 225.285L130.451 201.183L125.808 182.711L122.081 158.962L113.633 118.461C113.379 117.123 113.722 115.798 114.566 114.783C115.409 113.768 116.652 113.183 117.973 113.183L265.769 116.549L291.715 222.468L258.125 227.946L186.961 236.92L160.406 241.241L138.02 246.092L133.88 225.287V225.285Z" fill="#FFAC66"/>
<path d="M402.194 241.073C401.381 240.928 400.188 240.717 398.67 240.453C395.641 239.927 391.314 239.183 386.12 238.295C375.739 236.522 361.895 234.169 348.051 231.822C323.966 227.738 299.893 223.671 294.035 222.682L293.313 219.729L268.373 117.921L267.537 114.51L264.018 114.431L118.085 111.107H118.033L117.93 111.105C115.924 111.105 114.038 111.991 112.756 113.534C111.476 115.077 110.954 117.09 111.327 119.058L111.334 119.1L111.343 119.141L119.778 159.585L123.48 183.177L123.512 183.383L123.562 183.583L128.152 201.838L131.565 225.823L131.579 225.926L131.598 226.029L134.57 241.709L135.391 249.027L135.423 249.02L137.852 264.087L252.363 289.034V289.016L406.988 257.881L408.21 242.095C408.21 242.095 403.586 241.326 402.194 241.076V241.073ZM136.11 225.175L132.664 200.953L128.015 182.465L124.295 158.762L115.837 118.206C115.588 116.893 116.598 115.685 117.928 115.685C117.944 115.685 117.962 115.685 117.978 115.685L263.912 119.01L288.851 220.819L272.329 223.512C266.667 224.378 260.146 225.384 253.148 226.472L219.491 230.715L203.255 233.68L188.105 236.275L160.857 240.563L139.828 244.511L136.108 225.175H136.11ZM247.964 283.383L141.887 260.275L140.932 254.347L248.255 274.778L247.962 283.384L247.964 283.383ZM251.422 271.021C220.274 264.142 162.26 253.238 140.14 248.515C161.935 244.99 219.493 236.327 253.727 231.016L258.288 230.44L258.372 230.429L258.454 230.417L273.072 228.034C280.213 226.941 285.925 226.084 289.497 225.57C289.776 225.531 289.969 225.528 290.099 225.538C290.099 225.538 376.428 239.971 398.97 243.835C370.797 248.922 295.459 262.87 251.422 271.021ZM402.679 254.069L255.813 283.464L254.92 274.548L320.908 262.691L403.219 247.105L402.679 254.069Z" fill="black"/>
<path d="M178.27 248.035L237.612 261.614L343.326 240.18L294.399 229.958L178.27 248.035Z" fill="black"/>
<path d="M150.383 260.289C151.204 260.485 158.984 262.243 158.984 262.243L159.494 258.942L150.527 257.144L150.385 260.287L150.383 260.289Z" fill="black"/>
<path d="M163.748 262.997L173.02 264.718L173.535 261.332L164.178 259.612L163.748 262.997Z" fill="black"/>
<path d="M120.705 119.363C121.384 119.192 126.811 120.039 126.811 120.039L138.004 181.632L120.705 119.363Z" fill="black"/>
<path d="M146.879 138.596L149.932 155.518L165.534 153.824L162.482 137.919L146.879 138.596Z" fill="#FF7500"/>
<path d="M156.408 195.635L159.46 212.555L175.062 210.863L172.01 194.958L156.408 195.635Z" fill="#FF7500"/>
<path d="M181.18 191.356L184.232 208.278L199.834 206.584L196.782 190.68L181.18 191.356Z" fill="#FF7500"/>
<path d="M152.306 165.332L155.359 182.252L170.962 180.56L167.91 164.656L152.306 165.332Z" fill="#FF7500"/>
<path d="M171.651 138.596L174.705 155.518L190.306 153.824L187.254 137.919L171.651 138.596Z" fill="#FF7500"/>
<path d="M177.079 165.332L180.131 182.252L195.734 180.56L192.68 164.656L177.079 165.332Z" fill="#FF7500"/>
<path d="M201.375 164.381L204.427 181.303L220.029 179.611L216.977 163.704L201.375 164.381Z" fill="#FF7500"/>
<path d="M198.806 138.596L201.858 155.518L217.462 153.824L214.408 137.919L198.806 138.596Z" fill="#FF7500"/>
<path d="M129.88 120.082L135.405 120.372L137.679 159.848L129.88 120.082Z" fill="black"/>
<path d="M275.486 100.997L281.236 66.622L297.402 65.9913L275.486 100.997Z" fill="#59D359"/>
<path d="M288.59 103.041L306.553 76.8721L320.136 82.5393L288.59 103.041Z" fill="#59D359"/>
<path d="M268.619 98.0598L259.933 73.5717L270.247 67.3412L268.619 98.0598Z" fill="#59D359"/>
</g>
</g>
<defs>
<clipPath id="clip0_280_234">
<rect width="431" height="431" fill="white"/>
</clipPath>
<clipPath id="clip1_280_234">
<rect width="297" height="223.039" fill="white" transform="translate(111.21 65.9913)"/>
</clipPath>
</defs>
</svg>
