<svg width="433" height="387" viewBox="0 0 433 387" fill="none" xmlns="http://www.w3.org/2000/svg">
<path d="M349.457 152.86C319.577 131.061 277.308 138.806 255.07 170.248C250.602 176.692 243.805 181.127 236.106 182.613C228.597 184.025 220.844 182.25 214.687 177.7C208.458 173.117 204.347 166.217 203.31 158.57C202.242 150.726 204.191 142.774 208.794 136.331C231.028 104.868 224.623 61.3204 194.621 39.3157C164.606 17.3017 122.446 25.2432 100.195 56.6758C74.2572 93.3757 63.4174 138.665 69.8999 183.2C75.6531 226.601 98.8392 265.816 134.104 291.835C169.038 317.535 213.068 327.513 255.602 319.378C299.413 311.361 338.281 286.462 363.827 250.058C385.922 218.493 379.526 174.933 349.448 152.872L349.457 152.86Z" fill="#5D0216"/>
<g clip-path="url(#clip0_261_198)">
<path d="M427.814 207.572C428.746 207.572 317.084 188.721 317.084 188.721C317.084 188.721 316.807 186.902 313.959 187.311C288.576 190.957 161.046 212.862 162.47 212.862C164.052 212.862 275.348 235.55 275.348 235.55C275.348 235.55 426.457 207.574 427.814 207.574V207.572Z" fill="white"/>
<path d="M272.752 247.391L273.045 238.785L165.721 218.354L166.678 224.283L272.752 247.391Z" fill="white"/>
<path d="M427.469 218.078L428.009 211.114L345.697 226.7L279.709 238.557L280.602 247.473L427.469 218.078Z" fill="white"/>
<path d="M158.67 189.294L155.242 165.192L150.598 146.72L146.872 122.971L138.424 82.4695C138.17 81.132 138.512 79.8069 139.356 78.7918C140.199 77.7767 141.442 77.1921 142.763 77.1921L290.559 80.5581L316.505 186.477L282.915 191.954L211.752 200.929L185.197 205.25L162.811 210.1L158.67 189.295V189.294Z" fill="#FFAC66"/>
<path d="M426.984 205.082C426.171 204.936 424.978 204.725 423.46 204.461C420.431 203.935 416.104 203.191 410.91 202.304C400.529 200.53 386.685 198.178 372.841 195.831C348.756 191.747 324.683 187.68 318.826 186.691L318.103 183.738L293.164 81.9292L292.327 78.519L288.808 78.4393L142.875 75.1159H142.823L142.72 75.1141C140.714 75.1141 138.828 75.9999 137.546 77.5429C136.266 79.0859 135.744 81.0984 136.117 83.0666L136.124 83.1091L136.133 83.1498L144.569 123.594L148.271 147.186L148.303 147.391L148.352 147.591L152.942 165.847L156.355 189.832L156.369 189.935L156.389 190.038L159.361 205.717L160.181 213.036L160.213 213.029L162.642 228.096L277.154 253.042V253.025L431.778 221.89L433 206.104C433 206.104 428.376 205.335 426.984 205.085V205.082ZM160.9 189.184L157.454 164.961L152.805 146.474L149.086 122.77L140.627 82.2144C140.378 80.9017 141.389 79.6935 142.719 79.6935C142.735 79.6935 142.752 79.6935 142.768 79.6935L288.702 83.0187L313.641 184.827L297.12 187.52C291.457 188.387 284.936 189.393 277.938 190.48L244.281 194.723L228.046 197.689L212.895 200.284L185.648 204.571L164.618 208.52L160.898 189.184H160.9ZM272.754 247.391L166.678 224.283L165.723 218.356L273.045 238.787L272.752 247.393L272.754 247.391ZM276.213 235.029C245.064 228.151 187.05 217.247 164.931 212.524C186.725 208.998 244.283 200.336 278.517 195.024L283.079 194.449L283.162 194.438L283.244 194.426L297.862 192.043C305.003 190.95 310.715 190.092 314.287 189.579C314.566 189.54 314.76 189.536 314.889 189.547C314.889 189.547 401.218 203.98 423.76 207.843C395.588 212.931 320.25 226.879 276.213 235.029ZM427.469 218.078L280.604 247.473L279.71 238.557L345.698 226.7L428.009 211.114L427.469 218.078Z" fill="black"/>
<path d="M203.06 212.044L262.403 225.623L368.116 204.189L319.19 193.967L203.06 212.044Z" fill="black"/>
<path d="M175.174 224.297C175.994 224.494 183.774 226.251 183.774 226.251L184.284 222.951L175.318 221.153L175.176 224.296L175.174 224.297Z" fill="black"/>
<path d="M188.538 227.006L197.81 228.726L198.325 225.341L188.968 223.621L188.538 227.006Z" fill="black"/>
<path d="M145.496 83.3713C146.174 83.2012 151.602 84.048 151.602 84.048L162.795 145.641L145.496 83.3713Z" fill="black"/>
<path d="M171.669 102.605L174.723 119.527L190.324 117.833L187.272 101.928L171.669 102.605Z" fill="#FF7500"/>
<path d="M181.198 159.643L184.25 176.563L199.852 174.871L196.8 158.966L181.198 159.643Z" fill="#FF7500"/>
<path d="M205.971 155.365L209.023 172.287L224.624 170.593L221.572 154.688L205.971 155.365Z" fill="#FF7500"/>
<path d="M177.097 129.341L180.149 146.261L195.752 144.569L192.7 128.664L177.097 129.341Z" fill="#FF7500"/>
<path d="M196.441 102.605L199.495 119.527L215.097 117.833L212.045 101.928L196.441 102.605Z" fill="#FF7500"/>
<path d="M201.869 129.341L204.921 146.261L220.525 144.569L217.471 128.664L201.869 129.341Z" fill="#FF7500"/>
<path d="M226.165 128.39L229.218 145.311L244.819 143.62L241.767 127.713L226.165 128.39Z" fill="#FF7500"/>
<path d="M223.596 102.605L226.648 119.527L242.252 117.833L239.198 101.928L223.596 102.605Z" fill="#FF7500"/>
<path d="M154.67 84.0905L160.195 84.3811L162.47 123.856L154.67 84.0905Z" fill="black"/>
<path d="M300.277 65.0057L306.026 30.6307L322.192 30L300.277 65.0057Z" fill="#59D359"/>
<path d="M313.38 67.05L331.343 40.8808L344.926 46.548L313.38 67.05Z" fill="#59D359"/>
<path d="M293.409 62.0685L284.723 37.5804L295.037 31.3499L293.409 62.0685Z" fill="#59D359"/>
</g>
<defs>
<clipPath id="clip0_261_198">
<rect width="297" height="223.039" fill="white" transform="translate(136 30)"/>
</clipPath>
</defs>
</svg>
