<svg width="101" height="101" viewBox="0 0 101 101" fill="none" xmlns="http://www.w3.org/2000/svg">
<circle cx="50.7532" cy="50.3271" r="50" fill="#E80537"/>
<path d="M64.2894 44.4724L47.3691 34.6925C46.3408 34.0988 45.1743 33.7861 43.9868 33.7858C42.7994 33.7855 41.6327 34.0976 40.604 34.6908C39.5754 35.284 38.7209 36.1374 38.1263 37.1653C37.5318 38.1932 37.2182 39.3595 37.217 40.5469V60.1068C37.2182 61.2936 37.5315 62.4593 38.1255 63.4869C38.7194 64.5144 39.5732 65.3677 40.601 65.9612C41.6299 66.5552 42.797 66.8679 43.9851 66.8679C45.1731 66.8679 46.3403 66.5552 47.3691 65.9612L64.2894 56.1813C65.315 55.5863 66.1664 54.7324 66.7582 53.7049C67.35 52.6775 67.6615 51.5126 67.6615 50.3269C67.6615 49.1412 67.35 47.9763 66.7582 46.9488C66.1664 45.9214 65.315 45.0674 64.2894 44.4724V44.4724ZM60.9054 50.3269L43.9851 60.1068V40.5469L60.9054 50.3269ZM50.7532 16.4863C44.0602 16.4863 37.5175 18.471 31.9524 22.1895C26.3874 25.9079 22.0499 31.1931 19.4886 37.3766C16.9273 43.5602 16.2572 50.3644 17.5629 56.9288C18.8687 63.4932 22.0917 69.523 26.8243 74.2557C31.557 78.9884 37.5868 82.2114 44.1512 83.5171C50.7157 84.8229 57.5199 84.1527 63.7034 81.5914C69.887 79.0301 75.1721 74.6927 78.8906 69.1276C82.609 63.5626 84.5937 57.0199 84.5937 50.3269C84.5937 45.8829 83.7184 41.4824 82.0178 37.3766C80.3171 33.2709 77.8244 29.5404 74.6821 26.398C71.5397 23.2556 67.8091 20.7629 63.7034 19.0623C59.5977 17.3616 55.1972 16.4863 50.7532 16.4863V16.4863ZM50.7532 77.3993C45.3988 77.3993 40.1646 75.8115 35.7126 72.8367C31.2605 69.862 27.7906 65.6339 25.7415 60.687C23.6925 55.7402 23.1564 50.2968 24.201 45.0453C25.2456 39.7938 27.824 34.9699 31.6101 31.1838C35.3963 27.3976 40.2201 24.8192 45.4716 23.7746C50.7232 22.73 56.1665 23.2662 61.1134 25.3152C66.0602 27.3642 70.2883 30.8342 73.2631 35.2862C76.2378 39.7383 77.8256 44.9724 77.8256 50.3269C77.8256 57.5069 74.9734 64.3929 69.8963 69.47C64.8192 74.547 57.9332 77.3993 50.7532 77.3993V77.3993Z" fill="white"/>
</svg>
