<svg width="63" height="62" viewBox="0 0 63 62" fill="none" xmlns="http://www.w3.org/2000/svg">
<path d="M42.0598 26.4621L29.1766 19.0156C28.3936 18.5636 27.5054 18.3255 26.6013 18.3252C25.6971 18.325 24.8088 18.5627 24.0256 19.0143C23.2423 19.466 22.5917 20.1158 22.1391 20.8984C21.6864 21.6811 21.4476 22.5691 21.4467 23.4732V38.3662C21.4476 39.2699 21.6861 40.1575 22.1384 40.9399C22.5906 41.7222 23.2407 42.372 24.0233 42.8238C24.8067 43.2761 25.6954 43.5142 26.5999 43.5142C27.5045 43.5142 28.3932 43.2761 29.1766 42.8238L42.0598 35.3773C42.8407 34.9243 43.4889 34.2741 43.9395 33.4918C44.3901 32.7095 44.6273 31.8225 44.6273 30.9197C44.6273 30.0169 44.3901 29.13 43.9395 28.3476C43.4889 27.5653 42.8407 26.9151 42.0598 26.4621V26.4621ZM39.4831 30.9197L26.5999 38.3662V23.4732L39.4831 30.9197ZM31.7532 5.15332C26.6571 5.15332 21.6754 6.66449 17.4382 9.49574C13.2009 12.327 9.89838 16.3512 7.94818 21.0593C5.99798 25.7675 5.48772 30.9483 6.48192 35.9465C7.47612 40.9447 9.93014 45.5358 13.5336 49.1393C17.1371 52.7428 21.7283 55.1968 26.7265 56.191C31.7246 57.1852 36.9054 56.675 41.6136 54.7248C46.3218 52.7746 50.3459 49.472 53.1772 45.2348C56.0084 40.9975 57.5196 36.0158 57.5196 30.9197C57.5196 27.536 56.8532 24.1855 55.5583 21.0593C54.2634 17.9332 52.3654 15.0928 49.9728 12.7001C47.5802 10.3075 44.7397 8.40955 41.6136 7.11467C38.4875 5.81979 35.1369 5.15332 31.7532 5.15332V5.15332ZM31.7532 51.5328C27.6763 51.5328 23.691 50.3239 20.3012 48.0589C16.9114 45.7939 14.2693 42.5746 12.7092 38.808C11.149 35.0415 10.7408 30.8969 11.5362 26.8983C12.3315 22.8997 14.2948 19.2268 17.1775 16.344C20.0603 13.4612 23.7333 11.498 27.7318 10.7027C31.7304 9.90731 35.875 10.3155 39.6415 11.8757C43.4081 13.4358 46.6274 16.0779 48.8924 19.4677C51.1574 22.8575 52.3663 26.8428 52.3663 30.9197C52.3663 36.3867 50.1946 41.6297 46.3289 45.4954C42.4632 49.3611 37.2202 51.5328 31.7532 51.5328V51.5328Z" fill="white"/>
</svg>
