<svg width="54" height="103" viewBox="0 0 54 103" fill="none" xmlns="http://www.w3.org/2000/svg">
<path d="M53.3035 88.2514L51.3887 85.6037L49.9153 84.0412L47.3415 62.5869L18.4579 62.7233L4.07827 74.2565L5.55167 90.093C3.46902 92.3872 0 96.6161 0 96.6161L0.354362 102.383L44.3512 100.355L53.3097 88.239L53.3035 88.2514Z" fill="black"/>
<path d="M46.6452 33.5862C46.6888 30.1076 44.258 22.7351 42.3556 20.3354C41.1619 18.8287 37.6308 17.0987 35.3492 16.7515C34.3296 14.7362 33.3287 12.8947 32.5702 11.8777C30.9165 9.67652 32.1413 2.73179 28.8339 0.716585C25.5265 -1.29863 15.0573 1.08242 13.0368 6.03054C11.0163 10.9787 10.2765 14.4572 10.2765 14.4572L11.0971 20.3354C9.97809 20.9617 8.62282 21.7368 6.51529 23.7148C3.06493 26.9639 0.50979 34.3241 0.360585 39.9295C0.21138 45.5411 1.63504 49.5901 4.68753 52.2936C7.7338 54.997 12.011 55.9829 12.9498 57.5207C13.3912 58.2462 13.4222 60.1312 14.2677 60.8877C15.3992 64.0872 16.6426 67.6526 18.9242 69.8228C22.8719 73.5804 31.5942 72.5449 35.4549 67.5099C38.3581 63.7213 39.1788 60.9993 39.6388 58.9655C40.9506 55.8093 43.4871 51.2146 44.1087 49.9621C45.3273 47.5067 46.6141 37.071 46.6577 33.5862H46.6452ZM42.1877 35.744C41.2987 40.1403 43.3503 43.8421 39.7072 49.4227C38.5136 51.2457 37.6245 53.2609 36.8537 55.2513L22.2191 51.8409L21.728 52.0703C27.8019 40.2767 37.5872 21.588 38.2338 22.2948C40.1921 24.4403 43.083 31.354 42.1939 35.744H42.1877Z" fill="black"/>
<path d="M39.4709 22.4002C37.2826 20.5152 34.3917 19.7898 31.992 19.5355C31.2708 16.8817 29.5301 14.0232 28.5416 13.1861C27.1117 11.9708 28.0132 11.0841 28.7841 7.6675C29.555 4.25095 26.4217 2.71939 26.4217 2.71939C26.4217 2.71939 22.8532 1.8141 20.2234 3.60608C17.9978 5.12524 12.6699 12.8512 14.6531 20.3602C12.558 21.9972 9.02685 24.9611 6.6893 27.9994C3.18299 32.5445 3.68655 40.8844 4.0347 45.7209C4.38906 50.5574 13.8698 54.4204 15.3681 56.2186C16.2073 57.2231 16.2944 59.6723 17.0653 62.0472C17.6745 63.9322 19.0733 65.935 19.0733 65.935C19.0733 65.935 20.9633 69.5438 24.7307 70.6103C28.4981 71.6768 34.6031 63.9446 34.6031 63.9446C34.6031 63.9446 41.5349 49.249 42.7721 43.8545C44.0154 38.4599 43.9781 26.2818 39.4647 22.394L39.4709 22.4002Z" fill="#FFCB2E"/>
<path d="M13.7206 26.6108L9.74805 33.6176L12.9435 32.9789L13.7206 26.6108Z" fill="black"/>
<path d="M10.6495 37.1332L12.6079 37.3564C12.6079 37.3564 11.6256 41.362 11.4515 41.145C11.2774 40.928 10.6495 37.127 10.6495 37.127V37.1332Z" fill="black"/>
<path d="M16.5183 36.2217L15.9712 40.773L18.3647 39.4894L16.5183 36.2217Z" fill="black"/>
<path d="M16.8912 21.9604C16.8912 21.9604 16.9845 22.0596 17.171 22.2208C17.8735 22.8285 19.9064 24.2919 23.3257 24.4345C27.6402 24.6205 30.7673 21.9604 30.7673 21.9604C30.7673 21.9604 27.3666 27.2744 22.0388 26.4497C16.7109 25.625 13.0367 22.7851 13.0367 22.7851L15.0572 20.9497" fill="black"/>
<path d="M26.6331 11.5432C26.6331 11.5432 25.8 12.7337 26.8507 13.4282C27.9014 14.1227 28.3801 15.307 28.1376 15.5364C27.8951 15.7659 26.3782 16.6402 25.2778 15.1644C24.1774 13.6886 25.0416 12.5787 25.0416 12.5787C25.0416 12.5787 25.5514 11.537 25.943 11.444C26.3285 11.351 26.6331 11.537 26.6331 11.537V11.5432Z" fill="black"/>
<path d="M49.8904 83.824C49.8034 84.2518 42.7659 92.5793 41.8769 93.6334L37.1645 75.0997L46.5582 63.9199L36.0889 73.996L8.71602 74.182L35.7967 75.788L41.8706 93.6396C41.8147 93.7078 41.7836 93.745 41.7836 93.745L6.50903 94.979L42.1628 95.0224L44.3449 100.367L43.5305 94.3527L49.2003 86.0252L49.8904 83.824Z" fill="#FFCB2E"/>
<path d="M25.1162 89.442C25.1162 89.442 26.7326 86.3788 29.6359 84.9341C32.5392 83.4893 37.1086 81.8834 38.5571 84.5744C40.0056 87.2717 37.2267 88.0902 34.0374 89.0823C27.3792 91.1471 25.1162 89.442 25.1162 89.442Z" fill="#FFCB2E"/>
<path d="M26.142 88.9273C26.2601 88.7847 29.2131 87.495 29.2131 87.495L30.1208 85.4673L29.6794 87.4082L33.2789 86.0626L34.0871 84.4814L33.683 86.044L37.2142 85.2813L33.8447 86.3664L35.5605 87.712C35.5605 87.712 33.4033 86.4533 33.3349 86.4409C33.2665 86.4285 29.8286 87.805 29.8286 87.805L31.159 88.8343L29.2939 87.8422L26.142 88.9397V88.9273Z" fill="black"/>
<path d="M25.5203 86.3355C25.5203 86.3355 25.054 83.9359 26.0114 81.8711C26.9688 79.8 28.7655 76.9043 30.7549 77.7476C32.7443 78.5909 31.5817 80.2651 30.2637 82.2121C27.5159 86.2797 25.5203 86.3355 25.5203 86.3355Z" fill="#FFCB2E"/>
<path d="M25.8559 85.6039C25.8559 85.4737 26.9066 83.4647 26.9066 83.4647L26.5087 81.9517L27.1242 83.2105L28.5043 80.8852L28.2494 79.6575L28.7219 80.693L30.3259 78.7212L28.952 80.8046L30.4875 80.786C30.4875 80.786 28.7468 81.0402 28.7033 81.065C28.6598 81.0898 27.3791 83.3593 27.3791 83.3593L28.5665 83.3407L27.0993 83.6135L25.8497 85.6039H25.8559Z" fill="black"/>
<path d="M24.2956 89.442C24.2956 89.442 22.6792 86.3788 19.7759 84.9341C16.8726 83.4893 12.3032 81.8834 10.8547 84.5744C9.40614 87.2717 12.1851 88.0902 15.3743 89.0823C22.0326 91.1471 24.2956 89.442 24.2956 89.442Z" fill="#FFCB2E"/>
<path d="M23.2698 88.9273C23.1516 88.7847 20.1986 87.495 20.1986 87.495L19.291 85.4673L19.7324 87.4082L16.1328 86.0626L15.3246 84.4814L15.7287 86.044L12.1975 85.2813L15.5671 86.3664L13.8512 87.712C13.8512 87.712 16.0085 86.4533 16.0768 86.4409C16.1452 86.4285 19.5832 87.805 19.5832 87.805L18.2527 88.8343L20.1178 87.8422L23.2698 88.9397V88.9273Z" fill="black"/>
<path d="M23.8853 86.3355C23.8853 86.3355 24.3516 83.9359 23.3942 81.8711C22.4368 79.8 20.6401 76.9043 18.6507 77.7476C16.6613 78.5909 17.8238 80.2651 19.1418 82.2121C21.8897 86.2797 23.8853 86.3355 23.8853 86.3355Z" fill="#FFCB2E"/>
<path d="M23.5495 85.6039C23.5495 85.4737 22.4989 83.4647 22.4989 83.4647L22.8968 81.9517L22.2813 83.2105L20.9012 80.8852L21.156 79.6575L20.6836 80.693L19.0796 78.7212L20.4535 80.8046L18.918 80.786C18.918 80.786 20.6587 81.0402 20.7022 81.065C20.7457 81.0898 22.0264 83.3593 22.0264 83.3593L20.839 83.3407L22.3062 83.6135L23.5558 85.6039H23.5495Z" fill="black"/>
</svg>
