<svg width="100" height="106" viewBox="0 0 100 106" fill="none" xmlns="http://www.w3.org/2000/svg">
<path d="M90.2264 29.3134L91.311 48.0559L85.8083 49.0875L86.3231 92.6386L18.3979 95.4092L16.7404 49.3185L11.7467 49.6409L11.3 32.2582L90.2264 29.3134Z" fill="#59D359"/>
<path d="M91.9092 27.3427L89.0736 27.2026L80.8413 27.2281L72.6527 27.8197L66.2233 28.0599L60.0638 28.1787C62.5214 26.9146 62.5116 26.4377 64.5499 25.041C70.4557 21.006 76.1732 11.7472 66.6575 8.81096C57.8932 6.10916 52.0193 22.5929 50.3758 27.4224C47.9037 21.9737 40.0445 1.11355 31.8648 2.69014C22.2621 4.53803 27.6003 11.9487 32.2452 18.1747C34.6589 21.4136 41.967 27.803 46.4292 30.0178L42.3758 30.1235L36.0632 29.9162L29.8159 30.4602L23.6442 30.623L19.9462 30.5012L15.1969 30.8487L8.97302 31.0113L9.78264 44.8967L9.66033 51.709L12.6761 51.8661C12.6761 51.8661 13.3221 51.8587 14.4835 51.8467L14.56 53.2639L15.4976 67.3679L16.3616 73.559L16.7538 86.2434L17.4599 96.812L34.2952 95.8642L56.457 95.6928L78.2411 95.0684L89.0714 94.7547L88.7554 84.745L88.3458 71.8433L88.3936 58.4797L87.673 50.6327C90.9939 50.4971 92.4448 49.7604 92.4448 49.7604L92.3148 45.4433L92.242 36.5206L91.9228 27.338L91.9092 27.3427ZM53.7288 26.4374C53.7288 26.4374 60.0102 13.3882 64.9972 12.2636C69.9843 11.139 67.6827 17.8247 65.2656 20.6838C62.842 23.5422 53.207 27.7966 53.207 27.7966L53.728 26.4438L53.7288 26.4374ZM30.8366 6.54409C39.3822 3.85527 47.5036 28.0658 47.5036 28.0658C47.5036 28.0658 39.0038 20.818 37.2208 19.4463C35.4378 18.0745 26.2303 7.99831 30.8366 6.54409ZM12.5274 48.9474L11.6787 33.5063L45.0097 33.0717L45.9732 33.0274L46.9059 48.323L41.2698 48.4251L31.7297 48.0854L26.6409 48.6886L19.0467 48.6668L12.5218 48.9401L12.5274 48.9474ZM17.681 51.7081C19.1877 51.6952 21.2806 51.7846 23.2899 51.7653C25.1429 51.7453 29.9812 51.2138 29.9812 51.2138C29.9812 51.2138 37.9712 51.5998 42.7159 51.5384C44.282 51.5202 45.8681 51.4981 47.4671 51.4777L50.7624 93.4352L19.899 94.3857L17.6738 51.7136L17.681 51.7081ZM86.1058 92.1543L59.4763 93.2637L56.5735 51.3441C58.2189 51.3167 59.8572 51.2949 61.477 51.2641C63.8278 51.2241 69.0407 50.6175 69.0407 50.6175C69.0407 50.6175 73.3047 51.0474 75.5785 50.9973C79.0226 50.9168 82.1277 50.8379 84.732 50.7525L85.5875 67.9472L85.1321 79.2315L86.1113 92.1615L86.1058 92.1543ZM89.1872 47.2003L83.4306 47.3779L74.6248 47.6548L68.9392 47.3856L61.9267 48.0518L56.045 48.2393L55.1888 31.8524L88.9698 30.31L89.1872 47.2003Z" fill="black"/>
<path d="M23.8849 92.2905C23.4007 92.3059 20.9929 92.3841 20.9929 92.3841L20.4842 64.9922L23.8913 92.2914L23.8849 92.2905Z" fill="black"/>
<path d="M28.0328 92.1581C27.6461 92.0753 25.7172 92.2288 25.7172 92.2288L23.0355 70.2817L28.0336 92.1517L28.0328 92.1581Z" fill="black"/>
</svg>
