<svg width="513" height="528" viewBox="0 0 513 528" fill="none" xmlns="http://www.w3.org/2000/svg">
<path d="M33.6476 307.45C31.8014 342.433 49.2887 367.16 58.2645 375.956C79.6147 396.89 94.3516 400.782 111.917 407.075C126.608 412.349 144.923 410.623 163.646 421.699C163.743 421.756 163.84 421.812 163.937 421.869C164.034 421.926 164.131 421.982 164.228 422.039C183.079 432.879 190.595 449.678 202.409 459.881C216.529 472.078 227.168 482.993 255.897 491.283C267.97 494.77 298.101 497.83 327.649 479.013C368.364 453.089 366.334 412.395 390.027 340.248C411.949 273.294 438.985 236.679 434.442 195.629C429.9 154.579 407.58 121.136 358.048 90.9924C357.794 90.8444 357.538 90.6846 357.288 90.5292C357.035 90.3812 356.769 90.2363 356.511 90.0958C305.896 61.8086 265.811 58.8263 227.83 75.0619C189.856 91.3018 171.279 132.853 123.772 184.877C72.6035 241.001 36.1877 259.25 33.6476 307.45Z" fill="#FFBD83"/>
<g clip-path="url(#clip0_261_197)">
<path d="M357.24 222.919C350.77 220.089 351.37 217.419 350.59 216.209C349.55 214.599 354.03 205.239 354.03 205.239L342.23 198.269L340.61 200.679C338.96 203.129 336.14 205.599 335.12 204.999C333.63 204.079 334.53 199.659 335.45 197.449L336.71 194.449L325.01 189.039L323.35 190.989C321.44 193.229 318.64 195.369 317.52 195.469C316.98 194.789 317.2 191.799 318.23 189.199L318.45 187.519L308.03 182.859C308.03 182.859 306.13 185.819 304.7 188.069C300.76 194.289 293.95 191.619 299.05 182.749L301.05 179.199L288.41 172.879L287.08 175.649C286.23 178.499 283.51 184.049 280.76 185.179C278.76 185.999 270.72 182.429 270.72 182.429L205.22 322.619L208.34 323.989C211.34 325.299 213.69 327.519 214.8 330.069C214.8 330.089 215.45 332.039 211.74 338.309C211.51 338.699 211.38 338.909 211.26 339.259L210.21 342.249L223.09 347.689L225.92 343.319L226.06 343.089C226.44 342.389 228.85 338.789 230.51 339.579C232.08 340.309 232.55 341.249 232.77 341.889C233.57 344.189 232.39 347.439 231.87 348.489L230.28 351.629L241.32 356.619L242.72 353.579C243.28 352.359 244.7 348.239 246.44 347.659C246.83 347.529 248.88 347.159 249.72 347.599C250.15 347.829 250.84 349.049 250.92 349.339C251.32 350.769 249.72 353.249 248.87 354.669L247.25 357.749L258.02 362.949C258.02 362.949 260 359.949 261.39 357.669C261.85 356.909 263.7 354.839 264.86 354.819C265.64 354.799 267.23 355.889 267.62 356.469C268.04 357.299 267.34 359.809 266.25 362.239L265.25 365.729L276.68 371.429C276.68 371.429 281.08 363.909 284.23 362.619C287.51 361.269 290.3 361.369 291.49 361.899L295.26 362.729L360.73 225.449L357.24 222.959V222.919ZM275.15 365.659L271.93 364.109C272.62 361.859 273.13 358.939 272.47 356.399C272.39 355.869 272.26 355.359 272.05 354.899C271.93 354.669 271.82 354.429 271.68 354.209C269.99 351.709 267.03 350.199 263.95 350.269C260.72 350.349 259.58 352.299 257.72 355.349C257.51 355.689 256.14 358.329 255.95 358.629L253 357.019C253.8 354.869 256.35 350.869 255.61 348.189C255.02 346.049 253.63 344.359 251.61 343.289C249.3 342.079 246.88 341.869 244.55 342.659C243.21 343.119 240.24 350.059 240.24 350.059C240.24 350.059 237.05 348.799 236.56 348.429C236.88 346.459 239.91 341.929 239.14 339.699C238.2 336.959 236.22 334.799 233.37 333.469C228.23 331.039 224.14 336.179 221.41 340.759L217.84 338.779C220.24 333.939 222.16 330.159 220.97 327.389C219.61 324.249 217.16 321.459 214.04 319.439L273.05 189.069C275.74 190.139 279.15 190.979 282.78 189.489C283.1 189.359 283.39 189.179 283.7 189.019C287.27 186.899 288.9 181.869 290.29 178.819L294.93 181.069C294.02 184.009 291.92 188.209 293.87 191.099C295.56 193.599 298.52 195.109 301.6 195.039C304.83 194.959 309.22 188.379 309.4 188.079L312.97 189.789C312.17 193.149 309.75 198.269 313.7 201.049C318.28 204.269 322.96 198.239 325.86 195.409L329.94 197.309C328.99 201.049 326.66 207.709 331.56 210.729C336.33 213.689 340.71 208.639 343.83 205.099L347.91 206.869C346.77 210.229 344.64 215.269 346.29 219.029C346.44 219.319 346.57 219.619 346.75 219.899C348.66 222.869 352.49 225.239 356.04 227.009C356.04 227.009 356.06 227.009 356.06 227.019C356.06 227.019 276.49 363.139 275.14 365.669L275.15 365.659Z" fill="black"/>
<path d="M282.32 358.149C282.6 358.009 282.88 357.849 283.18 357.729C282.89 357.849 282.6 357.989 282.32 358.149Z" fill="black"/>
<path d="M356.82 226.619C353.27 224.849 349.42 223.189 347.51 220.219C347.33 219.939 346.98 218.729 346.84 218.429C345.19 214.669 347.44 210.109 348.59 206.749L343.93 204.169C340.81 207.709 336.61 213.119 331.83 210.159C326.93 207.139 330.13 200.679 331.08 196.939L326.13 194.199C323.23 197.029 318.49 203.689 313.91 200.479C309.96 197.699 312.65 193.119 313.45 189.759L309.46 187.849C309.28 188.149 304.7 194.979 301.48 195.049C298.4 195.119 295.65 193.549 293.96 191.049C292.01 188.159 294.3 183.969 295.21 181.029L290.17 178.839C288.78 181.879 287.14 186.919 283.58 189.039C283.29 189.209 282.98 189.379 282.66 189.509C279.03 190.999 275.62 190.159 272.93 189.089L210.58 320.169C213.7 322.199 217.95 324.429 219.31 327.569C220.51 330.339 218.39 334.749 215.98 339.579L221.51 342.529C224.24 337.949 227.6 331.709 232.73 334.129C235.58 335.469 236.57 336.299 237.51 339.029C238.28 341.269 236.75 346.479 236.43 348.449C236.91 348.819 240.34 350.609 240.34 350.609C240.34 350.609 243.27 343.379 244.61 342.919C246.93 342.119 249.16 342.109 251.47 343.309C253.49 344.379 254.41 346.109 255.01 348.249C255.75 350.929 253.66 354.899 252.86 357.039L256.49 359.329C256.67 359.029 258.16 355.969 258.37 355.629C260.23 352.569 261.58 350.949 264.81 350.869C267.89 350.799 269.86 351.729 271.54 354.229C271.69 354.449 271.81 354.679 271.91 354.919C273.34 357.729 270.71 360.679 269.88 363.389L275.16 366.419C276.62 363.689 279.16 359.379 283.16 357.729C286.87 356.209 290.39 356.439 292.94 357.019C292.94 357.019 356.81 226.629 356.81 226.619H356.82Z" fill="#E80537"/>
<path d="M294.54 340.779C295.02 339.819 342.01 244.649 344.52 240.399C345.17 239.299 345.61 238.029 345.84 236.609C346.57 232.039 344.25 227.459 340.05 225.229C324.94 217.199 289.12 198.379 282.8 196.909C275.73 195.269 272.62 199.619 271.9 202.299C269.85 206.659 223.63 304.929 222.4 307.399C220.95 310.299 220.7 313.089 221.65 315.679C223.09 319.619 226.9 321.779 228.07 322.359C228.27 322.459 228.4 322.509 228.41 322.519C233.5 325.079 278.31 347.519 283.83 348.639C290.52 350.009 294.42 341.069 294.54 340.769V340.779ZM282.06 200.069C286.92 201.199 314.41 215.289 338.52 228.099C341.49 229.679 343.15 232.889 342.63 236.099C342.47 237.109 342.16 238.009 341.72 238.749C341.24 239.559 339.26 243.449 336.34 249.259L269.14 215.779C272.35 208.959 274.51 204.369 274.9 203.539L275.01 203.219C275.05 203.029 276.15 198.699 282.06 200.069ZM267.75 218.719L334.88 252.159C325.16 271.549 307.62 306.979 298.1 326.229L232.52 293.549C241.96 273.529 258.34 238.709 267.75 218.709V218.719ZM284.47 345.469C280.61 344.679 249.69 329.579 229.77 319.589C229.73 319.569 225.87 317.849 224.67 314.549C224.05 312.829 224.25 310.909 225.28 308.849C225.54 308.319 227.76 303.619 231.13 296.499L296.66 329.149C293.83 334.879 291.95 338.679 291.58 339.429C291.55 339.499 288.5 346.299 284.46 345.479L284.47 345.469Z" fill="black"/>
<path d="M235.82 292.869L239.17 294.539L256.48 249.199L235.82 292.869Z" fill="black"/>
<path d="M241.17 295.529L244.52 297.209L253.46 263.659L241.17 295.529Z" fill="black"/>
<path d="M246.24 298.059L249.6 299.729L253.25 276.099L246.24 298.059Z" fill="black"/>
<path d="M298.55 291.749L296.54 285.059L292.17 269.839L288.16 257.509L283.55 243.289L278.5 226.659L274.69 212.979L251.5 217.439C251.5 217.439 250.89 224.289 247.65 225.969C244.41 227.649 240.61 218.479 240.61 218.479L221.21 223.429L203.89 227.809L184.97 231.609L105 252.719L132.49 341.019L266.8 307.009C266.8 307.009 266.27 299.199 269.19 298.329C273.03 297.189 275.48 304.739 275.48 304.739L300.19 298.289L298.54 291.749H298.55ZM277.37 300.549C277.37 300.549 274.51 292.539 267.82 294.279C263.3 295.449 263.6 304.039 263.6 304.039L135.13 337.199L110.15 255.459L155.93 244.369L169.09 240.099L184.16 237.119L239.13 222.979C239.13 222.979 240.73 230.659 247.76 229.669C252.75 228.969 254.31 220.889 254.31 220.889L270.95 217.309L281.17 250.379L286.17 264.099L288.77 274.979L295.23 295.899L277.38 300.539L277.37 300.549Z" fill="black"/>
<path d="M286.15 264.099L281.15 250.379L270.93 217.309L254.29 220.889C254.29 220.889 252.74 228.969 247.74 229.669C240.72 230.659 239.11 222.979 239.11 222.979L184.14 237.119L169.07 240.099L155.91 244.369L110.13 255.459L135.11 337.199L263.58 304.039C263.58 304.039 263.28 295.459 267.8 294.279C274.49 292.539 277.35 300.549 277.35 300.549L295.2 295.909L288.74 274.989L286.14 264.109L286.15 264.099Z" fill="#FFCB2E"/>
<path d="M250.19 231.129L248.21 231.589L249.7 236.229L251.68 235.769L250.19 231.129Z" fill="black"/>
<path d="M253.09 240.379L251.11 240.839L252.52 245.439L254.5 244.979L253.09 240.379ZM255.91 249.579L253.93 250.039L255.34 254.639L257.32 254.179L255.91 249.579ZM258.73 258.779L256.75 259.239L258.16 263.839L260.14 263.379L258.73 258.779ZM261.55 267.979L259.57 268.439L260.98 273.039L262.96 272.579L261.55 267.979ZM264.37 277.179L262.39 277.639L263.8 282.239L265.78 281.779L264.37 277.179Z" fill="black"/>
<path d="M267.2 286.399L265.22 286.849L266.83 291.859L268.81 291.399L267.2 286.399Z" fill="black"/>
<path d="M199.19 309.059L191.81 310.979L184.73 311.449L174.56 315.459L138.13 324.939L119.6 264.959L125.1 263.529L136.14 262.019L147.21 257.779L180.66 249.079L186.17 266.909L188.77 280.869L195.37 296.719L199.19 309.059Z" fill="#E80537"/>
<path d="M143.05 283.939C143.05 283.939 145.98 280.729 149.52 280.769C153.07 280.809 157.9 286.109 159.49 288.929C161.08 291.739 163.82 300.699 163.82 300.699C163.82 300.699 164.17 306.319 162.08 307.229C159.98 308.149 157.71 307.269 157.71 307.269C157.71 307.269 156.29 306.909 155.28 306.309C154 305.559 152.99 304.519 152.22 304.389C150.84 304.159 145.1 305.949 143.03 303.959C140.96 301.979 137.43 298.519 137.19 295.249C136.95 291.979 137.96 287.789 137.96 287.789L143.07 283.939H143.05Z" fill="#FFCB2E"/>
<path d="M135.93 276.969C135.93 276.969 137.93 276.489 138.94 278.259C139.95 280.039 139.9 280.749 141.02 280.759C142.14 280.759 145.64 282.039 146.43 283.609C147.22 285.179 146.14 291.619 140.13 290.069C134.12 288.519 133.07 281.379 133.53 279.629C133.99 277.879 135.93 276.969 135.93 276.969Z" fill="black"/>
<path d="M139.75 292.069L140.76 296.589L141.92 295.129L139.75 292.069Z" fill="black"/>
<path d="M142.55 297.789L143.51 297.169C143.51 297.169 144.66 299.279 144.5 299.249C144.34 299.219 142.55 297.789 142.55 297.789Z" fill="black"/>
<path d="M144.8 295.239L146.35 297.429L146.91 295.989L144.8 295.239Z" fill="black"/>
<path d="M149.98 300.709L150.01 299.699L153.66 300.309L149.98 300.709Z" fill="black"/>
<path d="M139.51 280.749C139.51 280.749 139.61 281.579 140.35 281.489C141.09 281.409 141.77 281.749 141.76 281.939C141.75 282.129 141.42 283.069 140.34 282.829C139.27 282.589 139.21 281.789 139.21 281.789C139.21 281.789 139.02 281.149 139.16 280.959C139.3 280.779 139.5 280.749 139.5 280.749H139.51Z" fill="#FFCB2E"/>
<path d="M163.35 286.199C163.35 286.199 161.33 279.009 163.87 272.619C166.41 266.229 171.4 257.219 177.84 259.499C184.28 261.779 181.02 266.999 177.32 273.079C169.62 285.759 163.35 286.199 163.35 286.199Z" fill="black"/>
<path d="M164.24 283.939C164.22 283.549 167.06 277.329 167.06 277.329L165.46 272.799L167.68 276.519L171.49 269.299L170.41 265.629L172.12 268.689L176.71 262.499L172.88 268.979L177.71 268.709C177.71 268.709 172.29 269.719 172.16 269.809C172.03 269.899 168.52 276.929 168.52 276.929L172.24 276.699L167.7 277.729L164.24 283.919V283.939Z" fill="white"/>
<path d="M159.3 280.659C159.3 280.659 154.91 277.479 153.32 272.819C151.74 268.159 150.27 260.989 154.79 259.549C159.3 258.109 159.95 262.419 160.77 267.389C162.47 277.769 159.3 280.659 159.3 280.659Z" fill="black"/>
<path d="M158.74 279.019C158.55 278.809 157.21 274.109 157.21 274.109L154.26 272.249L157.17 273.399L155.89 267.739L153.62 266.139L155.95 267.129L155.57 261.719L156.49 266.979L158.96 264.789C158.96 264.789 156.51 267.649 156.48 267.749C156.45 267.849 157.81 273.289 157.81 273.289L159.71 271.589L157.74 274.089L158.73 279.029L158.74 279.019Z" fill="white"/>
<path d="M199.81 290.489L204.73 306.869L207.94 306.039L202.8 289.639L199.81 290.489Z" fill="black"/>
<path d="M235.05 281.319L239.97 297.709L243.18 296.869L238.04 280.469L235.05 281.319Z" fill="black"/>
<path d="M204.62 289.439L209.46 305.549L212.67 304.709L207.62 288.589L204.62 289.439Z" fill="black"/>
<path d="M208.91 288.329L213.74 304.429L216.95 303.599L211.9 287.479L208.91 288.329Z" fill="black"/>
<path d="M213.19 287.209L218.03 303.319L221.24 302.479L216.19 286.369L213.19 287.209Z" fill="black"/>
<path d="M217.48 286.099L222.31 302.209L225.52 301.369L220.47 285.249L217.48 286.099Z" fill="black"/>
<path d="M221.76 284.979L226.59 301.089L229.81 300.249L224.76 284.139L221.76 284.979Z" fill="black"/>
<path d="M226.05 283.869L230.88 299.979L234.09 299.139L229.04 283.019L226.05 283.869Z" fill="black"/>
<path d="M230.33 282.749L235.16 298.859L238.38 298.029L233.33 281.909L230.33 282.749Z" fill="black"/>
<path d="M203.66 245.249L207.2 244.629L203.92 281.039L200.18 281.509L203.66 245.249Z" fill="black"/>
<path d="M196.75 252.429C196.75 252.429 194.26 248.139 191.76 248.309C189.26 248.489 188.1 251.409 189.01 255.949C189.93 260.499 193.08 265.599 196.34 264.319C199.61 263.029 198.62 259.969 198.43 257.309C198.23 254.649 196.75 252.429 196.75 252.429ZM194.2 255.399C194.2 255.399 195.98 260.679 194.97 260.349C193.96 260.019 191.79 252.699 192.73 252.289C193.67 251.869 194.2 255.399 194.2 255.399Z" fill="black"/>
<path d="M216.53 262.909C216.53 262.909 214.04 258.619 211.54 258.789C209.04 258.969 207.88 261.889 208.79 266.429C209.71 270.979 212.86 276.079 216.12 274.799C219.39 273.509 218.4 270.449 218.21 267.789C218.01 265.129 216.53 262.909 216.53 262.909ZM213.98 265.879C213.98 265.879 215.76 271.159 214.75 270.829C213.74 270.499 211.57 263.179 212.5 262.769C213.44 262.349 213.97 265.879 213.97 265.879H213.98Z" fill="black"/>
<path d="M164.39 305.659C164.45 305.219 165.22 304.399 165.17 303.909C165.43 302.319 164.96 299.889 164.96 299.889C164.96 299.889 162.75 293.239 162.31 291.719C161.88 290.199 159.48 286.229 158.12 284.699C156.76 283.159 151.61 279.829 149.81 279.479C148.01 279.129 144.1 282.609 144.31 282.559C144.31 282.559 147.34 281.119 149.06 281.339C150.78 281.559 154.8 283.519 156.15 285.759C157.5 287.999 159.87 288.869 160.47 292.639C161.06 296.419 163.62 299.979 163.3 302.279C163.2 302.989 163.11 303.709 162.98 304.369C162.63 305.369 161.79 306.809 159.85 307.149C159.48 307.219 159.13 307.239 158.78 307.229C158.01 307.109 157.23 306.929 156.63 306.769C155.6 306.349 154.74 305.729 154.1 305.229C153.9 305.069 153.69 304.899 153.45 304.739C153.45 304.739 153.44 304.739 153.43 304.729C152.34 303.939 151.58 303.579 149.5 303.859C148.66 303.859 147.72 303.889 146.81 303.869C145.12 303.749 143.5 303.449 143.29 303.309C141.71 302.339 139.34 299.639 138.29 296.749C137.24 293.859 138.92 289.739 138.85 289.359C138.78 288.979 137.43 288.809 137.43 288.809C137.43 288.809 136.58 290.719 136.34 293.399C136.09 296.079 136.94 299.919 139.09 302.419C139.94 303.409 143.77 306.319 146.66 306.109C149.55 305.899 149.84 305.069 151.47 305.539C153.1 305.999 155.78 308.369 157.32 308.809C158.86 309.249 160.89 309.739 162.04 309.089C163.2 308.449 164.27 306.459 164.38 305.639L164.39 305.659Z" fill="black"/>
<path d="M291.38 294.419C290.61 294.669 286.52 296.319 286.52 296.319L272.27 237.919L291.39 294.409L291.38 294.419Z" fill="black"/>
</g>
<defs>
<clipPath id="clip0_261_197">
<rect width="255.73" height="265.33" fill="white" transform="translate(105 106.069)"/>
</clipPath>
</defs>
</svg>
