<svg width="431" height="431" viewBox="0 0 431 431" fill="none" xmlns="http://www.w3.org/2000/svg">
<g clip-path="url(#clip0_280_233)">
<path d="M10.8328 242.516C8.98659 277.499 26.4739 302.225 35.4496 311.021C56.7999 331.955 71.5368 335.848 89.1024 342.14C103.793 347.414 122.108 345.689 140.832 356.765C140.929 356.821 141.026 356.878 141.122 356.934C141.219 356.991 141.316 357.048 141.413 357.104C160.265 367.945 167.78 384.743 179.594 394.946C193.714 407.143 204.353 418.059 233.082 426.348C245.155 429.835 275.286 432.896 304.835 414.078C345.549 388.154 343.519 347.461 367.212 275.313C389.134 208.359 416.17 171.744 411.628 130.695C407.085 89.6447 384.765 56.2013 335.233 26.0577C334.979 25.9098 334.723 25.75 334.473 25.5945C334.22 25.4465 333.954 25.3016 333.697 25.1611C283.081 -3.12603 242.996 -6.10838 205.015 10.1272C167.041 26.3672 148.464 67.918 100.957 119.942C49.7887 176.067 13.3728 194.315 10.8328 242.516Z" fill="#FFBD83"/>
<g clip-path="url(#clip1_280_233)">
<path d="M334.425 157.984C327.955 155.154 328.555 152.484 327.775 151.274C326.735 149.664 331.215 140.304 331.215 140.304L319.415 133.334L317.795 135.744C316.145 138.194 313.325 140.664 312.305 140.064C310.815 139.144 311.715 134.724 312.635 132.514L313.895 129.514L302.195 124.104L300.535 126.054C298.625 128.294 295.825 130.434 294.705 130.534C294.165 129.854 294.385 126.864 295.415 124.264L295.635 122.584L285.215 117.924C285.215 117.924 283.315 120.884 281.885 123.134C277.945 129.354 271.135 126.684 276.235 117.814L278.235 114.264L265.595 107.944L264.265 110.714C263.415 113.564 260.695 119.114 257.945 120.244C255.945 121.064 247.905 117.494 247.905 117.494L182.405 257.684L185.525 259.054C188.525 260.364 190.875 262.584 191.985 265.134C191.985 265.154 192.635 267.104 188.925 273.374C188.695 273.764 188.565 273.974 188.445 274.324L187.395 277.314L200.275 282.754L203.105 278.384L203.245 278.154C203.625 277.454 206.035 273.854 207.695 274.644C209.265 275.374 209.735 276.314 209.955 276.954C210.755 279.254 209.575 282.504 209.055 283.554L207.465 286.694L218.505 291.684L219.905 288.644C220.465 287.424 221.885 283.304 223.625 282.724C224.015 282.594 226.065 282.224 226.905 282.664C227.335 282.894 228.025 284.114 228.105 284.404C228.505 285.834 226.905 288.314 226.055 289.734L224.435 292.814L235.205 298.014C235.205 298.014 237.185 295.014 238.575 292.734C239.035 291.974 240.885 289.904 242.045 289.884C242.825 289.864 244.415 290.954 244.805 291.534C245.225 292.364 244.525 294.874 243.435 297.304L242.435 300.794L253.865 306.494C253.865 306.494 258.265 298.974 261.415 297.684C264.695 296.334 267.485 296.434 268.675 296.964L272.445 297.794L337.915 160.514L334.425 158.024V157.984ZM252.335 300.724L249.115 299.174C249.805 296.924 250.315 294.004 249.655 291.464C249.575 290.934 249.445 290.424 249.235 289.964C249.115 289.734 249.005 289.494 248.865 289.274C247.175 286.774 244.215 285.264 241.135 285.334C237.905 285.414 236.765 287.364 234.905 290.414C234.695 290.754 233.325 293.394 233.135 293.694L230.185 292.084C230.985 289.934 233.535 285.934 232.795 283.254C232.205 281.114 230.815 279.424 228.795 278.354C226.485 277.144 224.065 276.934 221.735 277.724C220.395 278.184 217.425 285.124 217.425 285.124C217.425 285.124 214.235 283.864 213.745 283.494C214.065 281.524 217.095 276.994 216.325 274.764C215.385 272.024 213.405 269.864 210.555 268.534C205.415 266.104 201.325 271.244 198.595 275.824L195.025 273.844C197.425 269.004 199.345 265.224 198.155 262.454C196.795 259.314 194.345 256.524 191.225 254.504L250.235 124.134C252.925 125.204 256.335 126.044 259.965 124.554C260.285 124.424 260.575 124.244 260.885 124.084C264.455 121.964 266.085 116.934 267.475 113.884L272.115 116.134C271.205 119.074 269.105 123.274 271.055 126.164C272.745 128.664 275.705 130.174 278.785 130.104C282.015 130.024 286.405 123.444 286.585 123.144L290.155 124.854C289.355 128.214 286.935 133.334 290.885 136.114C295.465 139.334 300.145 133.304 303.045 130.474L307.125 132.374C306.175 136.114 303.845 142.774 308.745 145.794C313.515 148.754 317.895 143.704 321.015 140.164L325.095 141.934C323.955 145.294 321.825 150.334 323.475 154.094C323.625 154.384 323.755 154.684 323.935 154.964C325.845 157.934 329.675 160.304 333.225 162.074C333.225 162.074 333.245 162.074 333.245 162.084C333.245 162.084 253.675 298.204 252.325 300.734L252.335 300.724Z" fill="black"/>
<path d="M259.505 293.214C259.785 293.074 260.065 292.914 260.365 292.794C260.075 292.914 259.785 293.054 259.505 293.214Z" fill="black"/>
<path d="M334.005 161.684C330.455 159.914 326.605 158.254 324.695 155.284C324.515 155.004 324.165 153.794 324.025 153.494C322.375 149.734 324.625 145.174 325.775 141.814L321.115 139.234C317.995 142.774 313.795 148.184 309.015 145.224C304.115 142.204 307.315 135.744 308.265 132.004L303.315 129.264C300.415 132.094 295.675 138.754 291.095 135.544C287.145 132.764 289.835 128.184 290.635 124.824L286.645 122.914C286.465 123.214 281.885 130.044 278.665 130.114C275.585 130.184 272.835 128.614 271.145 126.114C269.195 123.224 271.485 119.034 272.395 116.094L267.355 113.904C265.965 116.944 264.325 121.984 260.765 124.104C260.475 124.274 260.165 124.444 259.845 124.574C256.215 126.064 252.805 125.224 250.115 124.154L187.765 255.234C190.885 257.264 195.135 259.494 196.495 262.634C197.695 265.404 195.575 269.814 193.165 274.644L198.695 277.594C201.425 273.014 204.785 266.774 209.915 269.194C212.765 270.534 213.755 271.364 214.695 274.094C215.465 276.334 213.935 281.544 213.615 283.514C214.095 283.884 217.525 285.674 217.525 285.674C217.525 285.674 220.455 278.444 221.795 277.984C224.115 277.184 226.345 277.174 228.655 278.374C230.675 279.444 231.595 281.174 232.195 283.314C232.935 285.994 230.845 289.964 230.045 292.104L233.675 294.394C233.855 294.094 235.345 291.034 235.555 290.694C237.415 287.634 238.765 286.014 241.995 285.934C245.075 285.864 247.045 286.794 248.725 289.294C248.875 289.514 248.995 289.744 249.095 289.984C250.525 292.794 247.895 295.744 247.065 298.454L252.345 301.484C253.805 298.754 256.345 294.444 260.345 292.794C264.055 291.274 267.575 291.504 270.125 292.084C270.125 292.084 333.995 161.694 333.995 161.684H334.005Z" fill="#E80537"/>
<path d="M271.725 275.844C272.205 274.884 319.195 179.714 321.705 175.464C322.355 174.364 322.795 173.094 323.025 171.674C323.755 167.104 321.435 162.524 317.235 160.294C302.125 152.264 266.305 133.444 259.985 131.974C252.915 130.334 249.805 134.684 249.085 137.364C247.035 141.724 200.815 239.994 199.585 242.464C198.135 245.364 197.885 248.154 198.835 250.744C200.275 254.684 204.085 256.844 205.255 257.424C205.455 257.524 205.585 257.574 205.595 257.584C210.685 260.144 255.495 282.584 261.015 283.704C267.705 285.074 271.605 276.134 271.725 275.834V275.844ZM259.245 135.134C264.105 136.264 291.595 150.354 315.705 163.164C318.675 164.744 320.335 167.954 319.815 171.164C319.655 172.174 319.345 173.074 318.905 173.814C318.425 174.624 316.445 178.514 313.525 184.324L246.325 150.844C249.535 144.024 251.695 139.434 252.085 138.604L252.195 138.284C252.235 138.094 253.335 133.764 259.245 135.134ZM244.935 153.784L312.065 187.224C302.345 206.614 284.805 242.044 275.285 261.294L209.705 228.614C219.145 208.594 235.525 173.774 244.935 153.774V153.784ZM261.655 280.534C257.795 279.744 226.875 264.644 206.955 254.654C206.915 254.634 203.055 252.914 201.855 249.614C201.235 247.894 201.435 245.974 202.465 243.914C202.725 243.384 204.945 238.684 208.315 231.564L273.845 264.214C271.015 269.944 269.135 273.744 268.765 274.494C268.735 274.564 265.685 281.364 261.645 280.544L261.655 280.534Z" fill="black"/>
<path d="M213.005 227.934L216.355 229.604L233.665 184.264L213.005 227.934Z" fill="black"/>
<path d="M218.355 230.594L221.705 232.274L230.645 198.724L218.355 230.594Z" fill="black"/>
<path d="M223.425 233.124L226.785 234.794L230.435 211.164L223.425 233.124Z" fill="black"/>
<path d="M275.735 226.814L273.725 220.124L269.355 204.904L265.345 192.574L260.735 178.354L255.685 161.724L251.875 148.044L228.685 152.504C228.685 152.504 228.075 159.354 224.835 161.034C221.595 162.714 217.795 153.544 217.795 153.544L198.395 158.494L181.075 162.874L162.155 166.674L82.1852 187.784L109.675 276.084L243.985 242.074C243.985 242.074 243.455 234.264 246.375 233.394C250.215 232.254 252.665 239.804 252.665 239.804L277.375 233.354L275.725 226.814H275.735ZM254.555 235.614C254.555 235.614 251.695 227.604 245.005 229.344C240.485 230.514 240.785 239.104 240.785 239.104L112.315 272.264L87.3352 190.524L133.115 179.434L146.275 175.164L161.345 172.184L216.315 158.044C216.315 158.044 217.915 165.724 224.945 164.734C229.935 164.034 231.495 155.954 231.495 155.954L248.135 152.374L258.355 185.444L263.355 199.164L265.955 210.044L272.415 230.964L254.565 235.604L254.555 235.614Z" fill="black"/>
<path d="M263.335 199.164L258.335 185.444L248.115 152.374L231.475 155.954C231.475 155.954 229.925 164.034 224.925 164.734C217.905 165.724 216.295 158.044 216.295 158.044L161.325 172.184L146.255 175.164L133.095 179.434L87.3152 190.524L112.295 272.264L240.765 239.104C240.765 239.104 240.465 230.524 244.985 229.344C251.675 227.604 254.535 235.614 254.535 235.614L272.385 230.974L265.925 210.054L263.325 199.174L263.335 199.164Z" fill="#FFCB2E"/>
<path d="M227.375 166.194L225.395 166.654L226.885 171.294L228.865 170.834L227.375 166.194Z" fill="black"/>
<path d="M230.275 175.444L228.295 175.904L229.705 180.504L231.685 180.044L230.275 175.444ZM233.095 184.644L231.115 185.104L232.525 189.704L234.505 189.244L233.095 184.644ZM235.915 193.844L233.935 194.304L235.345 198.904L237.325 198.444L235.915 193.844ZM238.735 203.044L236.755 203.504L238.165 208.104L240.145 207.644L238.735 203.044ZM241.555 212.244L239.575 212.704L240.985 217.304L242.965 216.844L241.555 212.244Z" fill="black"/>
<path d="M244.385 221.464L242.405 221.914L244.015 226.924L245.995 226.464L244.385 221.464Z" fill="black"/>
<path d="M176.375 244.124L168.995 246.044L161.915 246.514L151.745 250.524L115.315 260.004L96.7852 200.024L102.285 198.594L113.325 197.084L124.395 192.844L157.845 184.144L163.355 201.974L165.955 215.934L172.555 231.784L176.375 244.124Z" fill="#E80537"/>
<path d="M120.235 219.004C120.235 219.004 123.165 215.794 126.705 215.834C130.255 215.874 135.085 221.174 136.675 223.994C138.265 226.804 141.005 235.764 141.005 235.764C141.005 235.764 141.355 241.384 139.265 242.294C137.165 243.214 134.895 242.334 134.895 242.334C134.895 242.334 133.475 241.974 132.465 241.374C131.185 240.624 130.175 239.584 129.405 239.454C128.025 239.224 122.285 241.014 120.215 239.024C118.145 237.044 114.615 233.584 114.375 230.314C114.135 227.044 115.145 222.854 115.145 222.854L120.255 219.004H120.235Z" fill="#FFCB2E"/>
<path d="M113.115 212.034C113.115 212.034 115.115 211.554 116.125 213.324C117.135 215.104 117.085 215.814 118.205 215.824C119.325 215.824 122.825 217.104 123.615 218.674C124.405 220.244 123.325 226.684 117.315 225.134C111.305 223.584 110.255 216.444 110.715 214.694C111.175 212.944 113.115 212.034 113.115 212.034Z" fill="black"/>
<path d="M116.935 227.134L117.945 231.654L119.105 230.194L116.935 227.134Z" fill="black"/>
<path d="M119.735 232.854L120.695 232.234C120.695 232.234 121.845 234.344 121.685 234.314C121.525 234.284 119.735 232.854 119.735 232.854Z" fill="black"/>
<path d="M121.985 230.304L123.535 232.494L124.095 231.054L121.985 230.304Z" fill="black"/>
<path d="M127.165 235.774L127.195 234.764L130.845 235.374L127.165 235.774Z" fill="black"/>
<path d="M116.695 215.814C116.695 215.814 116.795 216.644 117.535 216.554C118.275 216.474 118.955 216.814 118.945 217.004C118.935 217.194 118.605 218.134 117.525 217.894C116.455 217.654 116.395 216.854 116.395 216.854C116.395 216.854 116.205 216.214 116.345 216.024C116.485 215.844 116.685 215.814 116.685 215.814H116.695Z" fill="#FFCB2E"/>
<path d="M140.535 221.264C140.535 221.264 138.515 214.074 141.055 207.684C143.595 201.294 148.585 192.284 155.025 194.564C161.465 196.844 158.205 202.064 154.505 208.144C146.805 220.824 140.535 221.264 140.535 221.264Z" fill="black"/>
<path d="M141.425 219.004C141.405 218.614 144.245 212.394 144.245 212.394L142.645 207.864L144.865 211.584L148.675 204.364L147.595 200.694L149.305 203.754L153.895 197.564L150.065 204.044L154.895 203.774C154.895 203.774 149.475 204.784 149.345 204.874C149.215 204.964 145.705 211.994 145.705 211.994L149.425 211.764L144.885 212.794L141.425 218.984V219.004Z" fill="white"/>
<path d="M136.485 215.724C136.485 215.724 132.095 212.544 130.505 207.884C128.925 203.224 127.455 196.054 131.975 194.614C136.485 193.174 137.135 197.484 137.955 202.454C139.655 212.834 136.485 215.724 136.485 215.724Z" fill="black"/>
<path d="M135.925 214.084C135.735 213.874 134.395 209.174 134.395 209.174L131.445 207.314L134.355 208.464L133.075 202.804L130.805 201.204L133.135 202.194L132.755 196.784L133.675 202.044L136.145 199.854C136.145 199.854 133.695 202.714 133.665 202.814C133.635 202.914 134.995 208.354 134.995 208.354L136.895 206.654L134.925 209.154L135.915 214.094L135.925 214.084Z" fill="white"/>
<path d="M176.995 225.554L181.915 241.934L185.125 241.104L179.985 224.704L176.995 225.554Z" fill="black"/>
<path d="M212.235 216.384L217.155 232.774L220.365 231.934L215.225 215.534L212.235 216.384Z" fill="black"/>
<path d="M181.805 224.504L186.645 240.614L189.855 239.774L184.805 223.654L181.805 224.504Z" fill="black"/>
<path d="M186.095 223.394L190.925 239.494L194.135 238.664L189.085 222.544L186.095 223.394Z" fill="black"/>
<path d="M190.375 222.274L195.215 238.384L198.425 237.544L193.375 221.434L190.375 222.274Z" fill="black"/>
<path d="M194.665 221.164L199.495 237.274L202.705 236.434L197.655 220.314L194.665 221.164Z" fill="black"/>
<path d="M198.945 220.044L203.775 236.154L206.995 235.314L201.945 219.204L198.945 220.044Z" fill="black"/>
<path d="M203.235 218.934L208.065 235.044L211.275 234.204L206.225 218.084L203.235 218.934Z" fill="black"/>
<path d="M207.515 217.814L212.345 233.924L215.565 233.094L210.515 216.974L207.515 217.814Z" fill="black"/>
<path d="M180.845 180.314L184.385 179.694L181.105 216.104L177.365 216.574L180.845 180.314Z" fill="black"/>
<path d="M173.935 187.494C173.935 187.494 171.445 183.204 168.945 183.374C166.445 183.554 165.285 186.474 166.195 191.014C167.115 195.564 170.265 200.664 173.525 199.384C176.795 198.094 175.805 195.034 175.615 192.374C175.415 189.714 173.935 187.494 173.935 187.494ZM171.385 190.464C171.385 190.464 173.165 195.744 172.155 195.414C171.145 195.084 168.975 187.764 169.915 187.354C170.855 186.934 171.385 190.464 171.385 190.464Z" fill="black"/>
<path d="M193.715 197.974C193.715 197.974 191.225 193.684 188.725 193.854C186.225 194.034 185.065 196.954 185.975 201.494C186.895 206.044 190.045 211.144 193.305 209.864C196.575 208.574 195.585 205.514 195.395 202.854C195.195 200.194 193.715 197.974 193.715 197.974ZM191.165 200.944C191.165 200.944 192.945 206.224 191.935 205.894C190.925 205.564 188.755 198.244 189.685 197.834C190.625 197.414 191.155 200.944 191.155 200.944H191.165Z" fill="black"/>
<path d="M141.575 240.724C141.635 240.284 142.405 239.464 142.355 238.974C142.615 237.384 142.145 234.954 142.145 234.954C142.145 234.954 139.935 228.304 139.495 226.784C139.065 225.264 136.665 221.294 135.305 219.764C133.945 218.224 128.795 214.894 126.995 214.544C125.195 214.194 121.285 217.674 121.495 217.624C121.495 217.624 124.525 216.184 126.245 216.404C127.965 216.624 131.985 218.584 133.335 220.824C134.685 223.064 137.055 223.934 137.655 227.704C138.245 231.484 140.805 235.044 140.485 237.344C140.385 238.054 140.295 238.774 140.165 239.434C139.815 240.434 138.975 241.874 137.035 242.214C136.665 242.284 136.315 242.304 135.965 242.294C135.195 242.174 134.415 241.994 133.815 241.834C132.785 241.414 131.925 240.794 131.285 240.294C131.085 240.134 130.875 239.964 130.635 239.804C130.635 239.804 130.625 239.804 130.615 239.794C129.525 239.004 128.765 238.644 126.685 238.924C125.845 238.924 124.905 238.954 123.995 238.934C122.305 238.814 120.685 238.514 120.475 238.374C118.895 237.404 116.525 234.704 115.475 231.814C114.425 228.924 116.105 224.804 116.035 224.424C115.965 224.044 114.615 223.874 114.615 223.874C114.615 223.874 113.765 225.784 113.525 228.464C113.275 231.144 114.125 234.984 116.275 237.484C117.125 238.474 120.955 241.384 123.845 241.174C126.735 240.964 127.025 240.134 128.655 240.604C130.285 241.064 132.965 243.434 134.505 243.874C136.045 244.314 138.075 244.804 139.225 244.154C140.385 243.514 141.455 241.524 141.565 240.704L141.575 240.724Z" fill="black"/>
<path d="M268.565 229.484C267.795 229.734 263.705 231.384 263.705 231.384L249.455 172.984L268.575 229.474L268.565 229.484Z" fill="black"/>
</g>
</g>
<defs>
<clipPath id="clip0_280_233">
<rect width="431" height="431" fill="white"/>
</clipPath>
<clipPath id="clip1_280_233">
<rect width="255.73" height="265.33" fill="white" transform="translate(82.1852 41.1345)"/>
</clipPath>
</defs>
</svg>
