<svg width="267" height="560" viewBox="0 0 267 560" fill="none" xmlns="http://www.w3.org/2000/svg">
<path d="M0.908541 316.414C-1.50065 362.065 21.3195 394.333 33.0324 405.811C60.8935 433.129 80.1244 438.208 103.047 446.419C122.217 453.302 146.117 451.05 170.551 465.504C170.677 465.578 170.804 465.651 170.931 465.725C171.057 465.799 171.184 465.873 171.31 465.947C195.91 480.093 205.717 502.015 221.135 515.328C239.56 531.246 253.443 545.49 290.933 556.307C306.689 560.858 346.008 564.851 384.567 540.295C437.698 506.466 435.048 453.362 465.967 359.214C494.575 271.842 529.855 224.061 523.927 170.493C518 116.925 488.873 73.2825 424.236 33.9465C423.905 33.7533 423.57 33.5448 423.245 33.342C422.914 33.1489 422.567 32.9598 422.231 32.7764C356.18 -4.13701 303.871 -8.02885 254.307 13.1578C204.753 34.3502 180.511 88.5721 118.517 156.462C51.7442 229.701 4.22322 253.514 0.908541 316.414Z" fill="#FFBD83"/>
</svg>
