<svg width="314" height="383" viewBox="0 0 314 383" fill="none" xmlns="http://www.w3.org/2000/svg">
<path d="M226.066 19.8604C188.705 50.1178 184.321 105.804 216.394 144.239C222.997 152.004 226.3 162.022 225.596 172.191C224.861 182.096 220.043 191.243 212.272 197.458C204.434 203.753 194.393 206.613 184.441 205.363C174.231 204.085 164.892 198.982 158.335 191.048C126.234 152.61 69.3892 146.117 31.7284 176.459C-5.94839 206.814 -10.0492 262.429 22.008 300.876C59.4511 345.715 112.725 374.454 170.836 381.181C227.279 388.445 284.285 372.412 328.746 336.798C372.695 301.494 399.931 249.514 403.915 193.365C408.471 135.651 390.17 78.5099 352.969 34.2624C320.693 -4.0339 263.835 -10.5434 226.079 19.8762L226.066 19.8604Z" fill="white"/>
</svg>
