<svg width="541" height="746" viewBox="0 0 541 746" fill="none" xmlns="http://www.w3.org/2000/svg">
<path d="M0.522189 421.619C-2.68884 482.464 27.7264 525.471 43.3376 540.769C80.4715 577.179 106.103 583.949 136.654 594.893C162.205 604.066 194.059 601.065 226.625 620.329C226.794 620.428 226.963 620.526 227.131 620.624C227.3 620.723 227.469 620.821 227.637 620.92C260.425 639.774 273.496 668.992 294.044 686.737C318.603 707.951 337.106 726.936 387.073 741.354C408.072 747.419 460.478 752.742 511.871 720.013C582.685 674.924 579.153 604.147 620.362 478.663C658.491 362.212 705.513 298.529 697.613 227.132C689.712 155.735 650.892 97.5682 564.742 45.1403C564.301 44.8829 563.855 44.605 563.421 44.3346C562.98 44.0772 562.518 43.8252 562.07 43.5808C474.035 -5.61819 404.317 -10.8053 338.257 17.4328C272.211 45.6785 239.9 117.947 157.273 208.431C68.277 306.046 4.94006 337.785 0.522189 421.619Z" fill="#E80537"/>
</svg>
