<svg width="188" height="588" viewBox="0 0 188 588" fill="none" xmlns="http://www.w3.org/2000/svg">
<path d="M-153.889 581.168C-107.446 596.039 -67.9664 581.252 -52.9472 572.282C-17.2054 550.951 -6.74796 532.49 7.94248 511.07C20.244 493.16 24.4053 467.893 45.9457 446.607C46.0562 446.497 46.1667 446.386 46.2772 446.276C46.3877 446.165 46.4982 446.055 46.6088 445.944C67.8772 424.404 93.1534 420.234 111.071 407.941C132.491 393.25 150.953 382.793 172.284 347.051C181.253 332.032 196.041 292.552 181.17 246.11C160.685 182.119 105.182 170.445 16.4421 113.004C-65.9331 59.7858 -105.654 10.4253 -162.526 2.00684C-219.397 -6.41165 -272.323 11.7956 -330.441 67.8063C-330.73 68.0953 -331.036 68.3843 -331.333 68.6648C-331.622 68.9538 -331.912 69.2599 -332.192 69.5574C-388.194 127.684 -406.401 180.592 -397.991 237.473C-389.573 294.344 -340.212 334.065 -286.994 416.44C-229.553 505.197 -217.88 560.683 -153.889 581.168Z" fill="#E80537"/>
</svg>
