<svg width="255" height="312" viewBox="0 0 255 312" fill="none" xmlns="http://www.w3.org/2000/svg">
<path d="M29.8256 303.022C65.7528 283.434 77.9815 237.491 57.0391 200.386C52.7043 192.871 51.4797 183.977 53.632 175.572C55.7688 167.394 61.2081 160.477 68.6689 156.469C76.1977 152.403 85.0429 151.552 93.1819 154.128C101.533 156.767 108.567 162.474 112.836 170.124C133.802 207.235 180.391 221.408 216.581 201.795C252.787 182.174 264.768 136.248 243.841 99.135C219.387 55.8445 179.206 23.5979 131.593 9.03557C85.4591 -5.72062 35.2735 -1.05993 -7.42004 21.9202C-49.6376 44.7198 -80.4271 84.0485 -92.3915 130.44C-105.076 178.055 -98.5378 228.702 -74.1958 271.461C-53.0619 308.481 -6.46503 322.669 29.8173 303.006L29.8256 303.022Z" fill="#E80537"/>
</svg>
