<svg width="285" height="394" viewBox="0 0 285 394" fill="none" xmlns="http://www.w3.org/2000/svg">
<path d="M28.9493 203.915C64.6562 236.108 120.346 231.766 153.317 194.099C159.958 186.367 169.34 181.544 179.495 180.656C189.393 179.839 199.179 183.174 206.528 189.882C213.967 196.644 218.356 206.117 218.671 216.142C218.999 226.427 215.412 236.447 208.597 244.159C175.627 281.855 178.066 339.017 213.903 371.493C249.756 403.983 305.33 399.372 338.316 361.718C376.776 317.749 396.868 260.649 394.462 202.2C392.848 145.314 368.132 91.5011 326.029 53.1289C284.311 15.2141 228.723 -3.59449 172.639 1.21508C114.92 5.70263 61.326 32.6793 23.4121 76.3176C-9.39027 114.164 -6.96551 171.342 28.963 203.9L28.9493 203.915Z" fill="#FF7500"/>
</svg>
