<svg width="306" height="720" viewBox="0 0 306 720" fill="none" xmlns="http://www.w3.org/2000/svg">
<path d="M289.7 473.727C315.766 418.654 303.95 367.322 295.314 347.243C274.779 299.463 253.635 283.471 229.524 261.749C209.368 243.565 178.758 234.25 155.941 204.067C155.822 203.912 155.704 203.757 155.585 203.602C155.466 203.447 155.348 203.292 155.229 203.136C132.052 173.248 131.049 141.255 118.773 117.039C104.105 88.0905 94.1928 63.5031 53.4367 31.1987C36.3114 17.6168 -10.1517 -7.19892 -70.1215 3.57337C-152.751 18.4094 -176.348 85.2304 -262.102 185.682C-341.578 278.946 -409.254 320.016 -429.044 389.068C-448.835 458.121 -434.998 526.67 -375.195 607.874C-374.884 608.279 -374.577 608.706 -374.278 609.121C-373.968 609.526 -373.637 609.934 -373.314 610.331C-310.542 689.263 -248.01 720.525 -176.176 719.474C-104.351 718.411 -47.0277 663.815 63.7606 611.464C183.148 554.934 253.792 549.611 289.7 473.727Z" fill="#E80537"/>
</svg>
