<svg width="233" height="233" viewBox="0 0 233 233" fill="none" xmlns="http://www.w3.org/2000/svg">
<path d="M160.192 123.962C160.861 123.981 161.526 123.867 162.149 123.626C162.773 123.385 163.342 123.023 163.825 122.561L165.625 124.519C164.436 125.742 162.787 126.651 160.223 126.651C155.828 126.651 152.989 123.738 152.989 119.791C152.973 118.886 153.138 117.988 153.475 117.149C153.813 116.31 154.315 115.547 154.952 114.905C155.59 114.264 156.35 113.757 157.187 113.414C158.024 113.072 158.921 112.901 159.826 112.912C164.19 112.912 166.665 116.234 166.448 120.838H156.129C156.496 122.749 157.837 123.972 160.188 123.972M163.332 118.643C163.051 116.854 161.987 115.54 159.852 115.54C157.869 115.54 156.485 116.662 156.129 118.643H163.332ZM92.448 123.82L100.389 115.754H92.6391V113.207H104.074V115.806L96.1321 123.869H104.179V126.402H92.4511L92.448 123.82ZM113.093 123.964C113.761 123.983 114.426 123.868 115.049 123.628C115.673 123.387 116.242 123.025 116.725 122.562L118.529 124.519C117.339 125.742 115.69 126.651 113.126 126.651C108.731 126.651 105.893 123.738 105.893 119.791C105.876 118.886 106.042 117.988 106.379 117.149C106.716 116.31 107.218 115.547 107.856 114.905C108.493 114.264 109.253 113.757 110.09 113.414C110.927 113.072 111.825 112.901 112.729 112.912C117.093 112.912 119.568 116.234 119.351 120.838H109.033C109.399 122.749 110.74 123.972 113.091 123.972M116.236 118.643C115.956 116.854 114.89 115.54 112.755 115.54C110.772 115.54 109.389 116.662 109.033 118.643H116.236ZM136.494 119.774C136.494 115.567 139.643 112.918 143.113 112.918C143.945 112.907 144.77 113.078 145.529 113.42C146.289 113.761 146.964 114.265 147.508 114.896V107.123H150.313V126.384H147.508V124.549C146.974 125.206 146.3 125.734 145.534 126.094C144.769 126.454 143.933 126.638 143.087 126.632C139.721 126.632 136.495 123.972 136.495 119.779M147.665 119.754C147.566 116.055 143.079 114.297 140.48 116.947C137.882 119.598 139.777 124.053 143.481 124.051C145.89 124.051 147.664 122.125 147.664 119.771M168.275 123.593L170.815 122.275C171.5 123.498 172.802 124.236 174.204 124.201C175.794 124.201 176.613 123.385 176.613 122.461C176.613 121.391 175.079 121.168 173.411 120.826C171.167 120.367 168.831 119.61 168.831 116.897C168.831 114.813 170.814 112.889 173.937 112.916C176.383 112.916 178.226 113.895 179.266 115.472L176.912 116.766C176.586 116.283 176.142 115.892 175.624 115.629C175.105 115.366 174.527 115.239 173.946 115.261C172.437 115.261 171.653 116 171.653 116.843C171.653 117.791 172.87 118.056 174.777 118.479C176.948 118.938 179.409 119.665 179.409 122.408C179.409 124.242 177.82 126.677 174.064 126.651C171.312 126.651 169.38 125.543 168.265 123.594M187.025 120.537L184.801 122.963V126.387H181.996V107.126H184.801V119.728L190.757 113.19H194.173L189.009 118.846L194.305 126.385H191.13L187.025 120.537ZM128 112.939C124.665 112.939 121.886 115.102 121.886 118.687V126.387H124.744V119.016C124.744 116.853 125.987 115.561 128.11 115.561C130.234 115.561 131.29 116.854 131.29 119.016V126.359H134.133V118.66C134.133 115.075 131.328 112.912 128.019 112.912M60.4744 108.927V133.722H39.9368L60.4744 108.927ZM60.4744 100.027C60.4748 102.751 59.3933 105.363 57.4678 107.29C55.5422 109.217 52.9303 110.3 50.2064 110.301C47.4824 110.3 44.8705 109.217 42.9449 107.29C41.0194 105.363 39.9379 102.751 39.9383 100.027H60.4744ZM63.8574 133.718C63.8586 130.996 64.9408 128.385 66.8661 126.459C68.7915 124.534 71.4025 123.452 74.1254 123.45C76.8483 123.452 79.4593 124.534 81.3847 126.459C83.3101 128.385 84.3923 130.996 84.3935 133.718H63.8574ZM63.8574 124.819V100.03H84.395L63.8574 124.819Z" fill="#4D4D4D"/>
<path d="M70.1698 66.3533H68.9447C68.8722 66.0009 68.7454 65.6913 68.5643 65.4245C68.3864 65.1578 68.1691 64.9338 67.9122 64.7527C67.6586 64.5682 67.377 64.4299 67.0674 64.3377C66.7579 64.2455 66.4351 64.1994 66.0992 64.1994C65.4866 64.1994 64.9317 64.3542 64.4344 64.6638C63.9404 64.9733 63.5468 65.4295 63.2537 66.0321C62.9639 66.6348 62.819 67.3742 62.819 68.2502C62.819 69.1263 62.9639 69.8656 63.2537 70.4683C63.5468 71.071 63.9404 71.5271 64.4344 71.8367C64.9317 72.1463 65.4866 72.3011 66.0992 72.3011C66.4351 72.3011 66.7579 72.255 67.0674 72.1627C67.377 72.0705 67.6586 71.9339 67.9122 71.7527C68.1691 71.5683 68.3864 71.3427 68.5643 71.0759C68.7454 70.8059 68.8722 70.4963 68.9447 70.1472H70.1698C70.0776 70.6643 69.9096 71.127 69.6659 71.5354C69.4222 71.9437 69.1192 72.2912 68.7569 72.5777C68.3947 72.8609 67.9879 73.0767 67.5368 73.2249C67.0889 73.3731 66.6097 73.4472 66.0992 73.4472C65.2363 73.4472 64.469 73.2364 63.7971 72.8148C63.1253 72.3933 62.5967 71.7939 62.2114 71.0167C61.8261 70.2394 61.6334 69.3173 61.6334 68.2502C61.6334 67.1832 61.8261 66.261 62.2114 65.4838C62.5967 64.7066 63.1253 64.1072 63.7971 63.6856C64.469 63.2641 65.2363 63.0533 66.0992 63.0533C66.6097 63.0533 67.0889 63.1274 67.5368 63.2756C67.9879 63.4238 68.3947 63.6412 68.7569 63.9277C69.1192 64.2109 69.4222 64.5567 69.6659 64.9651C69.9096 65.3702 70.0776 65.8329 70.1698 66.3533ZM74.7475 63.1916L77.3558 67.4005H77.4349L80.0432 63.1916H81.4857L78.3043 68.2502L81.4857 73.3088H80.0432L77.4349 69.179H77.3558L74.7475 73.3088H73.305L76.5654 68.2502L73.305 63.1916H74.7475ZM91.581 73.3088H90.2965L94.0115 63.1916H95.2761L98.991 73.3088H97.7066L94.6833 64.7922H94.6043L91.581 73.3088ZM92.0552 69.3568H97.2324V70.4436H92.0552V69.3568ZM103.703 73.3088L100.937 63.1916H102.182L104.296 71.4316H104.395L106.549 63.1916H107.932L110.086 71.4316H110.185L112.299 63.1916H113.544L110.777 73.3088H109.513L107.28 65.2467H107.201L104.968 73.3088H103.703ZM116.784 73.3088H115.5L119.215 63.1916H120.479L124.194 73.3088H122.91L119.886 64.7922H119.807L116.784 73.3088ZM117.258 69.3568H122.436V70.4436H117.258V69.3568ZM127.857 73.3088V63.1916H131.275C132.066 63.1916 132.714 63.3266 133.222 63.5967C133.729 63.8635 134.104 64.2307 134.348 64.6983C134.592 65.166 134.714 65.6979 134.714 66.294C134.714 66.8901 134.592 67.4187 134.348 67.8797C134.104 68.3408 133.73 68.7031 133.227 68.9665C132.723 69.2267 132.079 69.3568 131.295 69.3568H128.529V68.2502H131.255C131.796 68.2502 132.23 68.1712 132.56 68.0131C132.892 67.855 133.133 67.6311 133.281 67.3413C133.432 67.0481 133.508 66.6991 133.508 66.294C133.508 65.8889 133.432 65.5348 133.281 65.2319C133.129 64.9289 132.887 64.695 132.555 64.5304C132.222 64.3624 131.782 64.2784 131.236 64.2784H129.082V73.3088H127.857ZM132.619 68.764L135.109 73.3088H133.686L131.236 68.764H132.619ZM141.964 73.3088H138.842V63.1916H142.102C143.084 63.1916 143.923 63.3942 144.622 63.7992C145.32 64.201 145.855 64.779 146.227 65.5332C146.599 66.2841 146.785 67.1832 146.785 68.2305C146.785 69.2843 146.598 70.1917 146.222 70.9524C145.847 71.7099 145.3 72.2928 144.582 72.7012C143.864 73.1063 142.991 73.3088 141.964 73.3088ZM140.067 72.222H141.885C142.721 72.222 143.414 72.0607 143.964 71.7379C144.514 71.4152 144.925 70.9557 145.195 70.3596C145.465 69.7635 145.6 69.0538 145.6 68.2305C145.6 67.4137 145.466 66.7106 145.199 66.1211C144.933 65.5283 144.534 65.0738 144.004 64.7576C143.474 64.4382 142.813 64.2784 142.023 64.2784H140.067V72.222ZM156.46 65.7209C156.401 65.2203 156.16 64.8317 155.739 64.5551C155.317 64.2784 154.8 64.1401 154.187 64.1401C153.74 64.1401 153.348 64.2126 153.012 64.3575C152.679 64.5024 152.419 64.7016 152.231 64.9552C152.047 65.2088 151.955 65.497 151.955 65.8197C151.955 66.0898 152.019 66.322 152.147 66.5163C152.279 66.7073 152.447 66.867 152.651 66.9955C152.855 67.1206 153.069 67.2243 153.293 67.3067C153.517 67.3857 153.723 67.4499 153.911 67.4993L154.938 67.776C155.202 67.8451 155.495 67.9407 155.818 68.0625C156.144 68.1844 156.455 68.3507 156.751 68.5615C157.051 68.7689 157.298 69.0357 157.492 69.3617C157.687 69.6878 157.784 70.0879 157.784 70.5622C157.784 71.1089 157.641 71.6029 157.354 72.0442C157.071 72.4855 156.656 72.8362 156.109 73.0964C155.566 73.3566 154.905 73.4867 154.128 73.4867C153.404 73.4867 152.776 73.3698 152.246 73.1359C151.719 72.9021 151.304 72.5761 151.001 72.1578C150.701 71.7395 150.532 71.2538 150.492 70.7005H151.757C151.79 71.0825 151.918 71.3987 152.142 71.649C152.369 71.896 152.656 72.0804 153.002 72.2023C153.351 72.3208 153.726 72.3801 154.128 72.3801C154.596 72.3801 155.016 72.3044 155.388 72.1529C155.76 71.9981 156.055 71.784 156.272 71.5107C156.489 71.234 156.598 70.9113 156.598 70.5424C156.598 70.2065 156.504 69.9331 156.317 69.7224C156.129 69.5116 155.882 69.3403 155.576 69.2086C155.269 69.0769 154.938 68.9616 154.583 68.8628L153.338 68.5071C152.547 68.2799 151.922 67.9555 151.461 67.5339C150.999 67.1124 150.769 66.5607 150.769 65.879C150.769 65.3125 150.922 64.8185 151.228 64.397C151.538 63.9721 151.953 63.6428 152.473 63.409C152.997 63.1719 153.581 63.0533 154.227 63.0533C154.879 63.0533 155.459 63.1702 155.966 63.404C156.473 63.6346 156.875 63.9507 157.171 64.3525C157.471 64.7543 157.629 65.2105 157.645 65.7209H156.46Z" fill="#4D4D4D"/>
<path d="M94.3101 167.974V167.085L97.6496 163.43C98.0415 163.001 98.3642 162.629 98.6178 162.313C98.8714 161.994 99.0591 161.694 99.181 161.414C99.3061 161.131 99.3687 160.834 99.3687 160.525C99.3687 160.169 99.2831 159.861 99.1118 159.601C98.9439 159.341 98.7133 159.14 98.4202 158.998C98.1271 158.857 97.7978 158.786 97.4322 158.786C97.0436 158.786 96.7044 158.867 96.4146 159.028C96.128 159.186 95.9057 159.408 95.7477 159.695C95.5929 159.981 95.5155 160.317 95.5155 160.703H94.3496C94.3496 160.11 94.4863 159.589 94.7597 159.142C95.033 158.694 95.4052 158.345 95.8761 158.094C96.3503 157.844 96.8822 157.719 97.4717 157.719C98.0645 157.719 98.5898 157.844 99.0476 158.094C99.5054 158.345 99.8644 158.682 100.125 159.107C100.385 159.532 100.515 160.004 100.515 160.525C100.515 160.897 100.447 161.261 100.312 161.617C100.181 161.969 99.95 162.362 99.6207 162.797C99.2946 163.229 98.8418 163.756 98.2621 164.378L95.9897 166.809V166.888H100.693V167.974H94.3101ZM108.12 168.113C107.375 168.113 106.741 167.91 106.218 167.505C105.694 167.097 105.294 166.506 105.017 165.732C104.741 164.954 104.602 164.016 104.602 162.916C104.602 161.822 104.741 160.889 105.017 160.115C105.297 159.338 105.699 158.745 106.223 158.336C106.749 157.925 107.382 157.719 108.12 157.719C108.857 157.719 109.488 157.925 110.012 158.336C110.538 158.745 110.94 159.338 111.217 160.115C111.497 160.889 111.637 161.822 111.637 162.916C111.637 164.016 111.499 164.954 111.222 165.732C110.945 166.506 110.545 167.097 110.021 167.505C109.498 167.91 108.864 168.113 108.12 168.113ZM108.12 167.026C108.857 167.026 109.43 166.67 109.839 165.959C110.247 165.247 110.451 164.233 110.451 162.916C110.451 162.04 110.357 161.294 110.17 160.678C109.985 160.062 109.718 159.593 109.369 159.27C109.024 158.947 108.607 158.786 108.12 158.786C107.388 158.786 106.817 159.146 106.405 159.868C105.994 160.586 105.788 161.602 105.788 162.916C105.788 163.792 105.88 164.536 106.064 165.149C106.249 165.761 106.514 166.227 106.86 166.547C107.209 166.866 107.629 167.026 108.12 167.026ZM115.601 167.974V167.085L118.94 163.43C119.332 163.001 119.655 162.629 119.908 162.313C120.162 161.994 120.35 161.694 120.472 161.414C120.597 161.131 120.659 160.834 120.659 160.525C120.659 160.169 120.574 159.861 120.402 159.601C120.234 159.341 120.004 159.14 119.711 158.998C119.418 158.857 119.088 158.786 118.723 158.786C118.334 158.786 117.995 158.867 117.705 159.028C117.419 159.186 117.196 159.408 117.038 159.695C116.883 159.981 116.806 160.317 116.806 160.703H115.64C115.64 160.11 115.777 159.589 116.05 159.142C116.324 158.694 116.696 158.345 117.167 158.094C117.641 157.844 118.173 157.719 118.762 157.719C119.355 157.719 119.88 157.844 120.338 158.094C120.796 158.345 121.155 158.682 121.415 159.107C121.675 159.532 121.805 160.004 121.805 160.525C121.805 160.897 121.738 161.261 121.603 161.617C121.471 161.969 121.241 162.362 120.911 162.797C120.585 163.229 120.132 163.756 119.553 164.378L117.28 166.809V166.888H121.983V167.974H115.601ZM126.11 167.974V167.085L129.45 163.43C129.842 163.001 130.164 162.629 130.418 162.313C130.671 161.994 130.859 161.694 130.981 161.414C131.106 161.131 131.169 160.834 131.169 160.525C131.169 160.169 131.083 159.861 130.912 159.601C130.744 159.341 130.513 159.14 130.22 158.998C129.927 158.857 129.598 158.786 129.232 158.786C128.844 158.786 128.504 158.867 128.215 159.028C127.928 159.186 127.706 159.408 127.548 159.695C127.393 159.981 127.316 160.317 127.316 160.703H126.15C126.15 160.11 126.286 159.589 126.56 159.142C126.833 158.694 127.205 158.345 127.676 158.094C128.15 157.844 128.682 157.719 129.272 157.719C129.865 157.719 130.39 157.844 130.848 158.094C131.305 158.345 131.664 158.682 131.925 159.107C132.185 159.532 132.315 160.004 132.315 160.525C132.315 160.897 132.247 161.261 132.112 161.617C131.981 161.969 131.75 162.362 131.421 162.797C131.095 163.229 130.642 163.756 130.062 164.378L127.79 166.809V166.888H132.493V167.974H126.11Z" fill="#4D4D4D"/>
<circle cx="116.448" cy="116.272" r="114.767" stroke="#999999" stroke-width="2.31853"/>
</svg>
